RangeenColr0.ttx.ufo
<glyph name="ampersand" format="2">
  <advance width="433"/>
  <unicode hex="0026"/>
  <outline>
    <contour>
      <point x="239" y="76" type="qcurve"/>
      <point x="250" y="76"/>
      <point x="285" y="97"/>
      <point x="292" y="97" type="qcurve"/>
      <point x="294" y="97"/>
      <point x="294" y="96" type="qcurve"/>
      <point x="322" y="54" type="line"/>
      <point x="328" y="45"/>
      <point x="341" y="45" type="qcurve"/>
      <point x="350" y="45"/>
      <point x="363" y="58"/>
      <point x="363" y="76"/>
      <point x="360" y="80" type="qcurve"/>
      <point x="325" y="131" type="line"/>
      <point x="325" y="132" type="line"/>
      <point x="325" y="150"/>
      <point x="378" y="246"/>
      <point x="378" y="272" type="qcurve"/>
      <point x="378" y="281"/>
      <point x="365" y="294"/>
      <point x="347" y="294"/>
      <point x="334" y="281"/>
      <point x="334" y="272" type="qcurve"/>
      <point x="334" y="259"/>
      <point x="307" y="175"/>
      <point x="297" y="175" type="qcurve"/>
      <point x="295" y="175"/>
      <point x="295" y="176" type="qcurve"/>
      <point x="258" y="231" type="line"/>
      <point x="195" y="326"/>
      <point x="195" y="369" type="qcurve"/>
      <point x="196" y="371" type="line"/>
      <point x="227" y="400"/>
      <point x="263" y="438"/>
      <point x="298" y="509"/>
      <point x="298" y="547" type="qcurve"/>
      <point x="298" y="555"/>
      <point x="297" y="580"/>
      <point x="297" y="592" type="qcurve"/>
      <point x="297" y="593" type="line"/>
      <point x="295" y="703"/>
      <point x="277" y="739" type="qcurve"/>
      <point x="260" y="774"/>
      <point x="227" y="774" type="qcurve"/>
      <point x="200" y="774"/>
      <point x="144" y="739"/>
      <point x="137" y="721" type="qcurve"/>
      <point x="110" y="652" type="line"/>
      <point x="109" y="649"/>
      <point x="109" y="644" type="qcurve"/>
      <point x="109" y="491" type="line"/>
      <point x="109" y="473"/>
      <point x="140" y="398"/>
      <point x="140" y="381" type="qcurve"/>
      <point x="139" y="379" type="line"/>
      <point x="55" y="299"/>
      <point x="55" y="215" type="qcurve"/>
      <point x="55" y="136"/>
      <point x="148" y="76"/>
    </contour>
    <contour>
      <point x="134" y="381" type="qcurve"/>
      <point x="104" y="439"/>
      <point x="104" y="491" type="qcurve"/>
      <point x="104" y="644" type="line"/>
      <point x="104" y="651"/>
      <point x="105" y="654" type="qcurve"/>
      <point x="132" y="723" type="line"/>
      <point x="140" y="745"/>
      <point x="197" y="779"/>
      <point x="227" y="779" type="qcurve"/>
      <point x="253" y="779"/>
      <point x="285" y="746"/>
      <point x="298" y="683"/>
      <point x="302" y="636"/>
      <point x="302" y="600" type="qcurve"/>
      <point x="302" y="595"/>
      <point x="302" y="593" type="qcurve"/>
      <point x="302" y="592" type="line"/>
      <point x="302" y="580"/>
      <point x="303" y="555"/>
      <point x="303" y="547" type="qcurve"/>
      <point x="303" y="508"/>
      <point x="268" y="436"/>
      <point x="232" y="396"/>
      <point x="201" y="368" type="qcurve"/>
      <point x="246" y="257"/>
      <point x="262" y="233" type="qcurve"/>
      <point x="296" y="182" type="line"/>
      <point x="306" y="199"/>
      <point x="329" y="258"/>
      <point x="329" y="272" type="qcurve"/>
      <point x="329" y="283"/>
      <point x="345" y="299"/>
      <point x="367" y="299"/>
      <point x="383" y="283"/>
      <point x="383" y="272" type="qcurve"/>
      <point x="383" y="207"/>
      <point x="330" y="132" type="qcurve"/>
      <point x="364" y="82" type="line"/>
      <point x="368" y="75"/>
      <point x="368" y="67" type="qcurve"/>
      <point x="368" y="56"/>
      <point x="352" y="40"/>
      <point x="341" y="40" type="qcurve"/>
      <point x="327" y="40"/>
      <point x="318" y="52" type="qcurve"/>
      <point x="292" y="91" type="line"/>
      <point x="267" y="71"/>
      <point x="239" y="71" type="qcurve"/>
      <point x="147" y="71"/>
      <point x="50" y="134"/>
      <point x="50" y="215" type="qcurve"/>
      <point x="50" y="301"/>
    </contour>
  </outline>
</glyph>
<glyph name="zero" format="2">
  <advance width="298"/>
  <unicode hex="0030"/>
  <outline>
    <contour>
      <point x="177" y="428"/>
      <point x="121" y="428"/>
      <point x="81" y="384"/>
      <point x="63" y="311"/>
      <point x="55" y="242"/>
      <point x="55" y="168"/>
      <point x="63" y="99"/>
      <point x="81" y="26"/>
      <point x="121" y="-18"/>
      <point x="177" y="-18"/>
      <point x="217" y="26"/>
      <point x="235" y="99"/>
      <point x="243" y="168"/>
      <point x="243" y="242"/>
      <point x="235" y="311"/>
      <point x="217" y="384"/>
    </contour>
    <contour>
      <point x="178" y="-23"/>
      <point x="120" y="-23"/>
      <point x="78" y="22"/>
      <point x="58" y="95"/>
      <point x="50" y="167"/>
      <point x="50" y="243"/>
      <point x="58" y="315"/>
      <point x="78" y="388"/>
      <point x="120" y="433"/>
      <point x="178" y="433"/>
      <point x="220" y="388"/>
      <point x="240" y="315"/>
      <point x="248" y="243"/>
      <point x="248" y="167"/>
      <point x="240" y="95"/>
      <point x="220" y="22"/>
    </contour>
    <contour>
      <point x="149" y="379" type="qcurve"/>
      <point x="126" y="376"/>
      <point x="104" y="259"/>
      <point x="104" y="205" type="qcurve"/>
      <point x="104" y="149"/>
      <point x="126" y="43"/>
      <point x="149" y="31" type="qcurve"/>
      <point x="172" y="34"/>
      <point x="194" y="151"/>
      <point x="194" y="205" type="qcurve"/>
      <point x="194" y="261"/>
      <point x="172" y="367"/>
    </contour>
    <contour>
      <point x="173" y="26"/>
      <point x="125" y="26"/>
      <point x="99" y="152"/>
      <point x="99" y="205" type="qcurve"/>
      <point x="99" y="260"/>
      <point x="125" y="384"/>
      <point x="173" y="384"/>
      <point x="199" y="258"/>
      <point x="199" y="205" type="qcurve"/>
      <point x="199" y="150"/>
    </contour>
  </outline>
</glyph>
<glyph name="six" format="2">
  <advance width="330"/>
  <unicode hex="0036"/>
  <outline>
    <contour>
      <point x="250" y="197" type="qcurve"/>
      <point x="250" y="266"/>
      <point x="200" y="352"/>
      <point x="151" y="352" type="qcurve"/>
      <point x="142" y="352"/>
      <point x="128" y="339"/>
      <point x="128" y="330" type="qcurve"/>
      <point x="128" y="315"/>
      <point x="179" y="294"/>
      <point x="182" y="291" type="qcurve"/>
      <point x="205" y="268"/>
      <point x="205" y="197" type="qcurve"/>
      <point x="205" y="140"/>
      <point x="179" y="12"/>
      <point x="153" y="12" type="qcurve"/>
      <point x="129" y="12"/>
      <point x="100" y="161"/>
      <point x="100" y="220" type="qcurve"/>
      <point x="100" y="295"/>
      <point x="160" y="457"/>
      <point x="257" y="645"/>
      <point x="274" y="690" type="qcurve"/>
      <point x="275" y="693"/>
      <point x="275" y="698" type="qcurve"/>
      <point x="275" y="707"/>
      <point x="262" y="720"/>
      <point x="253" y="720" type="qcurve"/>
      <point x="240" y="720"/>
      <point x="205" y="659"/>
      <point x="167" y="567"/>
      <point x="164" y="562" type="qcurve"/>
      <point x="130" y="495"/>
      <point x="91" y="410"/>
      <point x="55" y="279"/>
      <point x="55" y="220" type="qcurve"/>
      <point x="55" y="181"/>
      <point x="63" y="103"/>
      <point x="83" y="20"/>
      <point x="124" y="-32"/>
      <point x="182" y="-32"/>
      <point x="222" y="13"/>
      <point x="242" y="88"/>
      <point x="250" y="159"/>
    </contour>
    <contour>
      <point x="153" y="17" type="qcurve"/>
      <point x="176" y="18"/>
      <point x="200" y="143"/>
      <point x="200" y="197" type="qcurve"/>
      <point x="200" y="255"/>
      <point x="178" y="294"/>
      <point x="144" y="303" type="qcurve"/>
      <point x="123" y="309"/>
      <point x="123" y="330" type="qcurve"/>
      <point x="123" y="341"/>
      <point x="140" y="357"/>
      <point x="151" y="357" type="qcurve"/>
      <point x="202" y="357"/>
      <point x="255" y="267"/>
      <point x="255" y="197" type="qcurve"/>
      <point x="255" y="158"/>
      <point x="246" y="85"/>
      <point x="226" y="9"/>
      <point x="183" y="-37"/>
      <point x="153" y="-37" type="qcurve"/>
      <point x="122" y="-37"/>
      <point x="79" y="15"/>
      <point x="58" y="100"/>
      <point x="50" y="179"/>
      <point x="50" y="220" type="qcurve"/>
      <point x="50" y="304"/>
      <point x="110" y="472"/>
      <point x="210" y="662"/>
      <point x="227" y="708" type="qcurve"/>
      <point x="234" y="725"/>
      <point x="253" y="725" type="qcurve"/>
      <point x="264" y="725"/>
      <point x="280" y="709"/>
      <point x="280" y="698" type="qcurve"/>
      <point x="280" y="676"/>
      <point x="257" y="623"/>
      <point x="215" y="552"/>
      <point x="211" y="543" type="qcurve"/>
      <point x="177" y="476"/>
      <point x="139" y="394"/>
      <point x="105" y="273"/>
      <point x="105" y="220" type="qcurve"/>
      <point x="105" y="158"/>
      <point x="129" y="28"/>
    </contour>
  </outline>
</glyph>
<glyph name="seven" format="2">
  <advance width="338"/>
  <unicode hex="0037"/>
  <outline>
    <contour>
      <point x="55" y="420"/>
      <point x="55" y="402"/>
      <point x="68" y="389"/>
      <point x="77" y="389" type="qcurve"/>
      <point x="227" y="389" type="line"/>
      <point x="230" y="389"/>
      <point x="230" y="386" type="qcurve"/>
      <point x="230" y="385" type="line"/>
      <point x="55" y="-191" type="line"/>
      <point x="55" y="-198" type="line"/>
      <point x="55" y="-207"/>
      <point x="68" y="-220"/>
      <point x="77" y="-220" type="qcurve"/>
      <point x="94" y="-220"/>
      <point x="99" y="-205" type="qcurve"/>
      <point x="283" y="404" type="line"/>
      <point x="283" y="411" type="line"/>
      <point x="283" y="420"/>
      <point x="270" y="433"/>
      <point x="261" y="433" type="qcurve"/>
      <point x="77" y="433" type="line"/>
      <point x="68" y="433"/>
    </contour>
    <contour>
      <point x="77" y="-225" type="qcurve"/>
      <point x="66" y="-225"/>
      <point x="50" y="-209"/>
      <point x="50" y="-198" type="qcurve"/>
      <point x="50" y="-193"/>
      <point x="51" y="-190" type="qcurve"/>
      <point x="224" y="384" type="line"/>
      <point x="77" y="384" type="line"/>
      <point x="66" y="384"/>
      <point x="50" y="400"/>
      <point x="50" y="422"/>
      <point x="66" y="438"/>
      <point x="77" y="438" type="qcurve"/>
      <point x="261" y="438" type="line"/>
      <point x="272" y="438"/>
      <point x="288" y="422"/>
      <point x="288" y="411" type="qcurve"/>
      <point x="288" y="406"/>
      <point x="287" y="403" type="qcurve"/>
      <point x="103" y="-206" type="line"/>
      <point x="98" y="-225"/>
    </contour>
  </outline>
</glyph>
<glyph name="nine" format="2">
  <advance width="312"/>
  <unicode hex="0039"/>
  <outline>
    <contour>
      <point x="198" y="82" type="qcurve"/>
      <point x="173" y="85"/>
      <point x="159" y="87"/>
      <point x="119" y="94"/>
      <point x="106" y="100"/>
      <point x="78" y="113"/>
      <point x="69" y="128"/>
      <point x="54" y="150"/>
      <point x="50" y="180"/>
      <point x="50" y="198" type="qcurve"/>
      <point x="50" y="237"/>
      <point x="59" y="310"/>
      <point x="79" y="386"/>
      <point x="122" y="432"/>
      <point x="152" y="432" type="qcurve"/>
      <point x="183" y="432"/>
      <point x="229" y="376"/>
      <point x="252" y="288"/>
      <point x="262" y="203"/>
      <point x="262" y="162" type="qcurve"/>
      <point x="262" y="91"/>
      <point x="216" y="-35"/>
      <point x="139" y="-171"/>
      <point x="125" y="-210" type="qcurve"/>
      <point x="118" y="-227"/>
      <point x="99" y="-227" type="qcurve"/>
      <point x="88" y="-227"/>
      <point x="72" y="-211"/>
      <point x="72" y="-200" type="qcurve"/>
      <point x="72" y="-181"/>
      <point x="91" y="-136"/>
      <point x="128" y="-77"/>
      <point x="130" y="-72" type="qcurve"/>
      <point x="184" y="26"/>
    </contour>
    <contour>
      <point x="152" y="427" type="qcurve"/>
      <point x="123" y="427"/>
      <point x="83" y="382"/>
      <point x="63" y="307"/>
      <point x="55" y="236"/>
      <point x="55" y="198" type="qcurve"/>
      <point x="55" y="173"/>
      <point x="67" y="138"/>
      <point x="79" y="118"/>
      <point x="114" y="103"/>
      <point x="134" y="98"/>
      <point x="189" y="89"/>
      <point x="201" y="87" type="qcurve"/>
      <point x="203" y="87"/>
      <point x="203" y="84" type="qcurve"/>
      <point x="203" y="43"/>
      <point x="156" y="-55"/>
      <point x="89" y="-161"/>
      <point x="78" y="-192" type="qcurve"/>
      <point x="77" y="-195"/>
      <point x="77" y="-200" type="qcurve"/>
      <point x="77" y="-209"/>
      <point x="90" y="-222"/>
      <point x="99" y="-222" type="qcurve"/>
      <point x="112" y="-222"/>
      <point x="141" y="-174"/>
      <point x="174" y="-97"/>
      <point x="175" y="-95" type="qcurve"/>
      <point x="201" y="-47"/>
      <point x="229" y="12"/>
      <point x="257" y="113"/>
      <point x="257" y="162" type="qcurve"/>
      <point x="257" y="202"/>
      <point x="247" y="285"/>
      <point x="225" y="372"/>
      <point x="182" y="427"/>
    </contour>
    <contour>
      <point x="86" y="239" type="qcurve"/>
      <point x="86" y="273"/>
      <point x="121" y="380"/>
      <point x="143" y="380" type="qcurve"/>
      <point x="162" y="380"/>
      <point x="224" y="301"/>
      <point x="224" y="263" type="qcurve"/>
      <point x="224" y="223"/>
      <point x="179" y="140"/>
      <point x="161" y="140" type="qcurve"/>
      <point x="141" y="140"/>
      <point x="86" y="201"/>
    </contour>
    <contour>
      <point x="143" y="374" type="qcurve"/>
      <point x="124" y="374"/>
      <point x="92" y="270"/>
      <point x="92" y="239" type="qcurve"/>
      <point x="92" y="203"/>
      <point x="144" y="146"/>
      <point x="161" y="146" type="qcurve"/>
      <point x="175" y="146"/>
      <point x="218" y="225"/>
      <point x="218" y="263" type="qcurve"/>
      <point x="218" y="300"/>
      <point x="160" y="374"/>
    </contour>
  </outline>
</glyph>
<glyph name="less" format="2">
  <advance width="388"/>
  <unicode hex="003C"/>
  <outline>
    <contour>
      <point x="333" y="635" type="qcurve"/>
      <point x="333" y="644"/>
      <point x="320" y="657"/>
      <point x="311" y="657" type="qcurve"/>
      <point x="301" y="657"/>
      <point x="295" y="651" type="qcurve"/>
      <point x="61" y="427" type="line"/>
      <point x="55" y="422"/>
      <point x="55" y="411" type="qcurve"/>
      <point x="55" y="402"/>
      <point x="61" y="396" type="qcurve"/>
      <point x="283" y="161" type="line"/>
      <point x="289" y="154"/>
      <point x="299" y="154" type="qcurve"/>
      <point x="308" y="154"/>
      <point x="321" y="167"/>
      <point x="321" y="185"/>
      <point x="315" y="191" type="qcurve"/>
      <point x="110" y="408" type="line"/>
      <point x="110" y="410" type="line"/>
      <point x="110" y="410"/>
      <point x="110" y="412" type="qcurve"/>
      <point x="327" y="619" type="line"/>
      <point x="333" y="624"/>
    </contour>
    <contour>
      <point x="326" y="176" type="qcurve"/>
      <point x="326" y="165"/>
      <point x="310" y="149"/>
      <point x="299" y="149" type="qcurve"/>
      <point x="286" y="149"/>
      <point x="279" y="157" type="qcurve"/>
      <point x="57" y="392" type="line"/>
      <point x="50" y="399"/>
      <point x="50" y="411" type="qcurve"/>
      <point x="50" y="424"/>
      <point x="58" y="431" type="qcurve"/>
      <point x="292" y="655" type="line"/>
      <point x="299" y="662"/>
      <point x="311" y="662" type="qcurve"/>
      <point x="322" y="662"/>
      <point x="338" y="646"/>
      <point x="338" y="635" type="qcurve"/>
      <point x="338" y="622"/>
      <point x="330" y="615" type="qcurve"/>
      <point x="116" y="410" type="line"/>
      <point x="319" y="195" type="line"/>
      <point x="326" y="188"/>
    </contour>
  </outline>
</glyph>
<glyph name="equal" format="2">
  <advance width="502"/>
  <unicode hex="003D"/>
  <outline>
    <contour>
      <point x="55" y="381"/>
      <point x="55" y="363"/>
      <point x="68" y="350"/>
      <point x="77" y="350" type="qcurve"/>
      <point x="425" y="350" type="line"/>
      <point x="434" y="350"/>
      <point x="447" y="363"/>
      <point x="447" y="381"/>
      <point x="434" y="394"/>
      <point x="425" y="394" type="qcurve"/>
      <point x="77" y="394" type="line"/>
      <point x="68" y="394"/>
    </contour>
    <contour>
      <point x="452" y="383"/>
      <point x="452" y="361"/>
      <point x="436" y="345"/>
      <point x="425" y="345" type="qcurve"/>
      <point x="77" y="345" type="line"/>
      <point x="66" y="345"/>
      <point x="50" y="361"/>
      <point x="50" y="383"/>
      <point x="66" y="399"/>
      <point x="77" y="399" type="qcurve"/>
      <point x="425" y="399" type="line"/>
      <point x="436" y="399"/>
    </contour>
    <contour>
      <point x="55" y="481"/>
      <point x="55" y="463"/>
      <point x="68" y="450"/>
      <point x="77" y="450" type="qcurve"/>
      <point x="425" y="450" type="line"/>
      <point x="434" y="450"/>
      <point x="447" y="463"/>
      <point x="447" y="481"/>
      <point x="434" y="494"/>
      <point x="425" y="494" type="qcurve"/>
      <point x="77" y="494" type="line"/>
      <point x="68" y="494"/>
    </contour>
    <contour>
      <point x="452" y="483"/>
      <point x="452" y="461"/>
      <point x="436" y="445"/>
      <point x="425" y="445" type="qcurve"/>
      <point x="77" y="445" type="line"/>
      <point x="66" y="445"/>
      <point x="50" y="461"/>
      <point x="50" y="483"/>
      <point x="66" y="499"/>
      <point x="77" y="499" type="qcurve"/>
      <point x="425" y="499" type="line"/>
      <point x="436" y="499"/>
    </contour>
  </outline>
</glyph>
<glyph name="M" format="2">
  <advance width="794"/>
  <unicode hex="004D"/>
  <outline>
    <contour>
      <point x="55" y="74" type="qcurve"/>
      <point x="55" y="46"/>
      <point x="83" y="-20"/>
      <point x="105" y="-20" type="qcurve"/>
      <point x="115" y="-20"/>
      <point x="121" y="-13" type="qcurve"/>
      <point x="151" y="19"/>
      <point x="197" y="91"/>
      <point x="228" y="154"/>
      <point x="250" y="245"/>
      <point x="261" y="303"/>
      <point x="268" y="412"/>
      <point x="270" y="464"/>
      <point x="271" y="589"/>
      <point x="272" y="613" type="qcurve"/>
      <point x="272" y="615"/>
      <point x="274" y="615" type="qcurve"/>
      <point x="283" y="615"/>
      <point x="338" y="482"/>
      <point x="399" y="350"/>
      <point x="415" y="350" type="qcurve"/>
      <point x="424" y="350"/>
      <point x="437" y="363"/>
      <point x="437" y="372" type="qcurve"/>
      <point x="437" y="376" type="line"/>
      <point x="437" y="423"/>
      <point x="533" y="739"/>
      <point x="558" y="739" type="qcurve"/>
      <point x="560" y="739"/>
      <point x="560" y="736" type="qcurve"/>
      <point x="560" y="695"/>
      <point x="557" y="529"/>
      <point x="557" y="488" type="qcurve"/>
      <point x="557" y="324"/>
      <point x="600" y="98"/>
      <point x="662" y="25" type="qcurve"/>
      <point x="700" y="-19" type="line"/>
      <point x="706" y="-26"/>
      <point x="717" y="-26" type="qcurve"/>
      <point x="726" y="-26"/>
      <point x="739" y="-13"/>
      <point x="739" y="-4" type="qcurve"/>
      <point x="739" y="6"/>
      <point x="734" y="11" type="qcurve"/>
      <point x="697" y="54" type="line"/>
      <point x="640" y="120"/>
      <point x="602" y="335"/>
      <point x="602" y="489" type="qcurve"/>
      <point x="602" y="531"/>
      <point x="605" y="705"/>
      <point x="605" y="748" type="qcurve"/>
      <point x="605" y="813"/>
      <point x="571" y="813" type="qcurve"/>
      <point x="535" y="813"/>
      <point x="461" y="630"/>
      <point x="410" y="448"/>
      <point x="402" y="448" type="qcurve"/>
      <point x="400" y="448"/>
      <point x="400" y="450" type="qcurve"/>
      <point x="346" y="554"/>
      <point x="287" y="720"/>
      <point x="287" y="806" type="qcurve"/>
      <point x="287" y="812" type="line"/>
      <point x="287" y="821"/>
      <point x="274" y="834"/>
      <point x="265" y="834" type="qcurve"/>
      <point x="251" y="834"/>
      <point x="234" y="786"/>
      <point x="228" y="702"/>
      <point x="225" y="633"/>
      <point x="226" y="547"/>
      <point x="226" y="542" type="qcurve"/>
      <point x="225" y="452"/>
      <point x="219" y="349"/>
      <point x="199" y="205"/>
      <point x="150" y="91"/>
      <point x="111" y="43" type="qcurve"/>
      <point x="111" y="42"/>
      <point x="109" y="42" type="qcurve"/>
      <point x="104" y="42"/>
      <point x="94" y="96"/>
      <point x="77" y="96" type="qcurve"/>
      <point x="68" y="96"/>
      <point x="55" y="83"/>
    </contour>
    <contour>
      <point x="571" y="818" type="qcurve"/>
      <point x="610" y="818"/>
      <point x="610" y="748" type="qcurve"/>
      <point x="610" y="705"/>
      <point x="607" y="531"/>
      <point x="607" y="489" type="qcurve"/>
      <point x="607" y="339"/>
      <point x="646" y="129"/>
      <point x="700" y="57" type="qcurve"/>
      <point x="738" y="14" type="line"/>
      <point x="744" y="7"/>
      <point x="744" y="-15"/>
      <point x="728" y="-31"/>
      <point x="717" y="-31" type="qcurve"/>
      <point x="704" y="-31"/>
      <point x="696" y="-22" type="qcurve"/>
      <point x="658" y="22" type="line"/>
      <point x="595" y="95"/>
      <point x="552" y="324"/>
      <point x="552" y="488" type="qcurve"/>
      <point x="552" y="528"/>
      <point x="555" y="686"/>
      <point x="555" y="726" type="qcurve"/>
      <point x="512" y="644"/>
      <point x="442" y="448"/>
      <point x="442" y="376" type="qcurve"/>
      <point x="442" y="372" type="line"/>
      <point x="442" y="361"/>
      <point x="426" y="345"/>
      <point x="415" y="345" type="qcurve"/>
      <point x="367" y="345"/>
      <point x="277" y="599" type="qcurve"/>
      <point x="277" y="583"/>
      <point x="275" y="466"/>
      <point x="274" y="427"/>
      <point x="269" y="325"/>
      <point x="261" y="279"/>
      <point x="246" y="192"/>
      <point x="224" y="139"/>
      <point x="194" y="69"/>
      <point x="151" y="11"/>
      <point x="125" y="-17" type="qcurve"/>
      <point x="118" y="-25"/>
      <point x="105" y="-25" type="qcurve"/>
      <point x="80" y="-25"/>
      <point x="50" y="43"/>
      <point x="50" y="74" type="qcurve"/>
      <point x="50" y="85"/>
      <point x="66" y="101"/>
      <point x="77" y="101" type="qcurve"/>
      <point x="87" y="101"/>
      <point x="100" y="91"/>
      <point x="104" y="80"/>
      <point x="109" y="55"/>
      <point x="110" y="50" type="qcurve"/>
      <point x="165" y="119"/>
      <point x="215" y="314"/>
      <point x="217" y="486"/>
      <point x="224" y="731"/>
      <point x="238" y="817" type="qcurve"/>
      <point x="241" y="839"/>
      <point x="265" y="839" type="qcurve"/>
      <point x="276" y="839"/>
      <point x="292" y="823"/>
      <point x="292" y="812" type="qcurve"/>
      <point x="292" y="806" type="line"/>
      <point x="292" y="722"/>
      <point x="349" y="560"/>
      <point x="401" y="458" type="qcurve"/>
      <point x="453" y="660"/>
      <point x="492" y="739" type="qcurve"/>
      <point x="532" y="818"/>
    </contour>
  </outline>
</glyph>
<glyph name="V" format="2">
  <advance width="833"/>
  <unicode hex="0056"/>
  <outline>
    <contour>
      <point x="178" y="817" type="qcurve"/>
      <point x="129" y="817"/>
      <point x="55" y="730"/>
      <point x="55" y="683" type="qcurve"/>
      <point x="55" y="674"/>
      <point x="68" y="661"/>
      <point x="77" y="661" type="qcurve"/>
      <point x="89" y="661"/>
      <point x="109" y="695"/>
      <point x="121" y="737"/>
      <point x="151" y="771"/>
      <point x="172" y="771" type="qcurve"/>
      <point x="199" y="771"/>
      <point x="252" y="536"/>
      <point x="291" y="253"/>
      <point x="354" y="18"/>
      <point x="389" y="18" type="qcurve"/>
      <point x="420" y="18"/>
      <point x="455" y="223"/>
      <point x="473" y="490"/>
      <point x="479" y="517" type="qcurve"/>
      <point x="490" y="565"/>
      <point x="520" y="639"/>
      <point x="567" y="711"/>
      <point x="640" y="750"/>
      <point x="686" y="750" type="qcurve"/>
      <point x="698" y="750"/>
      <point x="733" y="679"/>
      <point x="733" y="663" type="qcurve"/>
      <point x="733" y="659"/>
      <point x="734" y="634"/>
      <point x="733" y="623"/>
      <point x="732" y="603"/>
      <point x="727" y="593"/>
      <point x="720" y="581"/>
      <point x="707" y="576"/>
      <point x="698" y="576" type="qcurve"/>
      <point x="676" y="576"/>
      <point x="657" y="600"/>
      <point x="657" y="630"/>
      <point x="642" y="654"/>
      <point x="623" y="654" type="qcurve"/>
      <point x="614" y="654"/>
      <point x="601" y="641"/>
      <point x="601" y="632" type="qcurve"/>
      <point x="601" y="593"/>
      <point x="655" y="532"/>
      <point x="698" y="532" type="qcurve"/>
      <point x="748" y="532"/>
      <point x="778" y="598"/>
      <point x="778" y="663" type="qcurve"/>
      <point x="778" y="697"/>
      <point x="724" y="795"/>
      <point x="698" y="795" type="qcurve"/>
      <point x="632" y="795"/>
      <point x="534" y="747"/>
      <point x="475" y="657"/>
      <point x="437" y="551"/>
      <point x="418" y="411"/>
      <point x="408" y="289"/>
      <point x="396" y="140"/>
      <point x="388" y="91" type="qcurve"/>
      <point x="388" y="89"/>
      <point x="385" y="89" type="qcurve"/>
      <point x="367" y="89"/>
      <point x="305" y="380"/>
      <point x="284" y="526" type="qcurve"/>
      <point x="262" y="671" type="line"/>
      <point x="256" y="715"/>
      <point x="211" y="817"/>
    </contour>
    <contour>
      <point x="171" y="766" type="qcurve"/>
      <point x="152" y="763"/>
      <point x="124" y="727"/>
      <point x="112" y="688"/>
      <point x="91" y="656"/>
      <point x="77" y="656" type="qcurve"/>
      <point x="66" y="656"/>
      <point x="50" y="672"/>
      <point x="50" y="683" type="qcurve"/>
      <point x="50" y="732"/>
      <point x="127" y="822"/>
      <point x="178" y="822" type="qcurve"/>
      <point x="203" y="822"/>
      <point x="245" y="760"/>
      <point x="264" y="697"/>
      <point x="267" y="672" type="qcurve"/>
      <point x="285" y="553"/>
      <point x="356" y="180"/>
      <point x="384" y="101" type="qcurve"/>
      <point x="390" y="144"/>
      <point x="401" y="274"/>
      <point x="408" y="379"/>
      <point x="425" y="505"/>
      <point x="448" y="602"/>
      <point x="491" y="699"/>
      <point x="550" y="761"/>
      <point x="640" y="800"/>
      <point x="698" y="800" type="qcurve"/>
      <point x="726" y="800"/>
      <point x="783" y="699"/>
      <point x="783" y="663" type="qcurve"/>
      <point x="783" y="631"/>
      <point x="778" y="589"/>
      <point x="761" y="548"/>
      <point x="726" y="527"/>
      <point x="698" y="527" type="qcurve"/>
      <point x="653" y="527"/>
      <point x="596" y="591"/>
      <point x="596" y="632" type="qcurve"/>
      <point x="596" y="643"/>
      <point x="612" y="659"/>
      <point x="623" y="659" type="qcurve"/>
      <point x="642" y="659"/>
      <point x="659" y="635"/>
      <point x="661" y="605"/>
      <point x="679" y="581"/>
      <point x="698" y="581" type="qcurve"/>
      <point x="706" y="581"/>
      <point x="717" y="586"/>
      <point x="723" y="597"/>
      <point x="727" y="608"/>
      <point x="728" y="626"/>
      <point x="729" y="638"/>
      <point x="728" y="658"/>
      <point x="728" y="663" type="qcurve"/>
      <point x="728" y="671"/>
      <point x="723" y="687"/>
      <point x="718" y="699"/>
      <point x="707" y="717"/>
      <point x="701" y="725"/>
      <point x="687" y="743"/>
      <point x="685" y="745" type="qcurve"/>
      <point x="621" y="741"/>
      <point x="532" y="669"/>
      <point x="490" y="563"/>
      <point x="464" y="413"/>
      <point x="458" y="277"/>
      <point x="445" y="118"/>
      <point x="434" y="68" type="qcurve"/>
      <point x="423" y="13"/>
      <point x="389" y="13" type="qcurve"/>
      <point x="295" y="13"/>
      <point x="212" y="664" type="qcurve"/>
      <point x="203" y="726"/>
    </contour>
  </outline>
</glyph>
<glyph name="Y" format="2">
  <advance width="744"/>
  <unicode hex="0059"/>
  <outline>
    <contour>
      <point x="647" y="769" type="qcurve"/>
      <point x="667" y="769"/>
      <point x="693" y="744"/>
      <point x="693" y="725" type="qcurve"/>
      <point x="693" y="715"/>
      <point x="694" y="675"/>
      <point x="694" y="666" type="qcurve"/>
      <point x="694" y="477"/>
      <point x="620" y="362" type="qcurve"/>
      <point x="649" y="191"/>
      <point x="651" y="163" type="qcurve"/>
      <point x="657" y="82" type="line"/>
      <point x="657" y="80" type="line"/>
      <point x="657" y="47" type="line"/>
      <point x="657" y="10"/>
      <point x="582" y="-24"/>
      <point x="484" y="-17"/>
      <point x="393" y="10"/>
      <point x="377" y="26" type="qcurve"/>
      <point x="335" y="68"/>
      <point x="335" y="137" type="qcurve"/>
      <point x="335" y="165"/>
      <point x="371" y="212"/>
      <point x="425" y="212"/>
      <point x="462" y="155"/>
      <point x="462" y="125" type="qcurve"/>
      <point x="462" y="103"/>
      <point x="436" y="71"/>
      <point x="416" y="71" type="qcurve"/>
      <point x="411" y="71" type="line"/>
      <point x="440" y="35"/>
      <point x="498" y="35" type="qcurve"/>
      <point x="584" y="35"/>
      <point x="602" y="55" type="qcurve"/>
      <point x="602" y="79" type="line"/>
      <point x="596" y="158" type="line"/>
      <point x="592" y="181"/>
      <point x="577" y="283"/>
      <point x="573" y="310" type="qcurve"/>
      <point x="518" y="266"/>
      <point x="451" y="266" type="qcurve"/>
      <point x="397" y="266"/>
      <point x="317" y="319"/>
      <point x="275" y="406"/>
      <point x="255" y="501"/>
      <point x="255" y="551" type="qcurve"/>
      <point x="255" y="573"/>
      <point x="257" y="617" type="qcurve"/>
      <point x="257" y="620"/>
      <point x="256" y="632"/>
      <point x="256" y="634" type="qcurve"/>
      <point x="256" y="649"/>
      <point x="258" y="703"/>
      <point x="258" y="717" type="qcurve"/>
      <point x="257" y="716"/>
      <point x="239" y="696"/>
      <point x="221" y="678"/>
      <point x="197" y="662"/>
      <point x="188" y="662" type="qcurve"/>
      <point x="130" y="662"/>
      <point x="50" y="717"/>
      <point x="50" y="773" type="qcurve"/>
      <point x="50" y="779" type="line"/>
      <point x="50" y="790"/>
      <point x="66" y="806"/>
      <point x="88" y="806"/>
      <point x="105" y="790"/>
      <point x="105" y="779" type="qcurve"/>
      <point x="105" y="773" type="line"/>
      <point x="105" y="743"/>
      <point x="141" y="719"/>
      <point x="177" y="717" type="qcurve"/>
      <point x="184" y="724"/>
      <point x="215" y="757"/>
      <point x="231" y="771"/>
      <point x="259" y="785"/>
      <point x="273" y="785" type="qcurve"/>
      <point x="313" y="785"/>
      <point x="313" y="717" type="qcurve"/>
      <point x="313" y="702"/>
      <point x="311" y="648"/>
      <point x="311" y="634" type="qcurve"/>
      <point x="311" y="631"/>
      <point x="312" y="620"/>
      <point x="312" y="617" type="qcurve"/>
      <point x="312" y="606"/>
      <point x="310" y="564"/>
      <point x="310" y="554" type="qcurve"/>
      <point x="310" y="520"/>
      <point x="321" y="447"/>
      <point x="344" y="372"/>
      <point x="391" y="323"/>
      <point x="422" y="323" type="qcurve"/>
      <point x="427" y="323"/>
      <point x="446" y="321"/>
      <point x="451" y="321" type="qcurve"/>
      <point x="516" y="321"/>
      <point x="562" y="376" type="qcurve"/>
      <point x="540" y="469" type="line"/>
      <point x="522" y="503"/>
      <point x="522" y="598" type="qcurve"/>
      <point x="522" y="636"/>
      <point x="532" y="665" type="qcurve"/>
      <point x="532" y="675" type="line"/>
      <point x="532" y="714"/>
      <point x="571" y="769"/>
      <point x="607" y="769" type="qcurve"/>
      <point x="617" y="769"/>
      <point x="623" y="768" type="qcurve"/>
      <point x="627" y="768"/>
      <point x="643" y="769"/>
    </contour>
    <contour>
      <point x="188" y="667" type="qcurve"/>
      <point x="202" y="667"/>
      <point x="231" y="696"/>
      <point x="253" y="724"/>
      <point x="260" y="724" type="qcurve"/>
      <point x="263" y="724"/>
      <point x="263" y="717" type="qcurve"/>
      <point x="263" y="703"/>
      <point x="261" y="649"/>
      <point x="261" y="634" type="qcurve"/>
      <point x="261" y="632"/>
      <point x="262" y="620"/>
      <point x="262" y="617" type="qcurve"/>
      <point x="262" y="606"/>
      <point x="260" y="562"/>
      <point x="260" y="551" type="qcurve"/>
      <point x="260" y="501"/>
      <point x="279" y="409"/>
      <point x="320" y="323"/>
      <point x="398" y="271"/>
      <point x="451" y="271" type="qcurve"/>
      <point x="517" y="271"/>
      <point x="573" y="317" type="qcurve"/>
      <point x="575" y="317" type="line"/>
      <point x="580" y="317"/>
      <point x="600" y="179"/>
      <point x="601" y="158" type="qcurve"/>
      <point x="607" y="79" type="line"/>
      <point x="607" y="54" type="line"/>
      <point x="607" y="30"/>
      <point x="498" y="30" type="qcurve"/>
      <point x="469" y="30"/>
      <point x="401" y="56"/>
      <point x="401" y="76" type="qcurve"/>
      <point x="401" y="79"/>
      <point x="404" y="79" type="qcurve"/>
      <point x="416" y="76" type="line"/>
      <point x="423" y="76"/>
      <point x="426" y="78" type="qcurve"/>
      <point x="438" y="84" type="line"/>
      <point x="457" y="94"/>
      <point x="457" y="125" type="qcurve"/>
      <point x="457" y="153"/>
      <point x="423" y="207"/>
      <point x="398" y="207" type="qcurve"/>
      <point x="374" y="207"/>
      <point x="340" y="163"/>
      <point x="340" y="137" type="qcurve"/>
      <point x="340" y="68"/>
      <point x="429" y="-15"/>
      <point x="498" y="-15" type="qcurve"/>
      <point x="652" y="-15"/>
      <point x="652" y="47" type="qcurve"/>
      <point x="652" y="80" type="line"/>
      <point x="652" y="82" type="line"/>
      <point x="646" y="163" type="line"/>
      <point x="644" y="192"/>
      <point x="615" y="328"/>
      <point x="615" y="363" type="qcurve"/>
      <point x="615" y="370"/>
      <point x="634" y="400" type="qcurve"/>
      <point x="689" y="492"/>
      <point x="689" y="666" type="qcurve"/>
      <point x="689" y="675"/>
      <point x="688" y="715"/>
      <point x="688" y="725" type="qcurve"/>
      <point x="688" y="742"/>
      <point x="664" y="764"/>
      <point x="647" y="764" type="qcurve"/>
      <point x="643" y="764"/>
      <point x="627" y="763"/>
      <point x="623" y="763" type="qcurve"/>
      <point x="620" y="763"/>
      <point x="610" y="764"/>
      <point x="607" y="764" type="qcurve"/>
      <point x="574" y="764"/>
      <point x="537" y="712"/>
      <point x="537" y="675" type="qcurve"/>
      <point x="537" y="665" type="line"/>
      <point x="537" y="653"/>
      <point x="527" y="609"/>
      <point x="527" y="598" type="qcurve"/>
      <point x="527" y="549"/>
      <point x="545" y="470" type="qcurve"/>
      <point x="567" y="376" type="line"/>
      <point x="567" y="375" type="line"/>
      <point x="567" y="352"/>
      <point x="478" y="316"/>
      <point x="451" y="316" type="qcurve"/>
      <point x="446" y="316"/>
      <point x="427" y="318"/>
      <point x="422" y="318" type="qcurve"/>
      <point x="390" y="318"/>
      <point x="341" y="368"/>
      <point x="316" y="445"/>
      <point x="305" y="520"/>
      <point x="305" y="554" type="qcurve"/>
      <point x="305" y="564"/>
      <point x="307" y="606"/>
      <point x="307" y="617" type="qcurve"/>
      <point x="307" y="620"/>
      <point x="306" y="631"/>
      <point x="306" y="634" type="qcurve"/>
      <point x="306" y="648"/>
      <point x="308" y="702"/>
      <point x="308" y="717" type="qcurve"/>
      <point x="308" y="780"/>
      <point x="273" y="780" type="qcurve"/>
      <point x="259" y="780"/>
      <point x="233" y="766"/>
      <point x="217" y="751"/>
      <point x="188" y="719"/>
      <point x="180" y="712" type="qcurve"/>
      <point x="178" y="712" type="line"/>
      <point x="100" y="712"/>
      <point x="100" y="773" type="qcurve"/>
      <point x="100" y="779" type="line"/>
      <point x="100" y="788"/>
      <point x="86" y="801"/>
      <point x="68" y="801"/>
      <point x="55" y="788"/>
      <point x="55" y="779" type="qcurve"/>
      <point x="55" y="773" type="line"/>
      <point x="55" y="719"/>
      <point x="132" y="667"/>
    </contour>
    <contour>
      <point x="576" y="623" type="qcurve"/>
      <point x="576" y="666"/>
      <point x="598" y="728"/>
      <point x="632" y="728"/>
      <point x="654" y="666"/>
      <point x="654" y="623" type="qcurve"/>
      <point x="654" y="569"/>
      <point x="635" y="494" type="qcurve"/>
      <point x="627" y="464"/>
      <point x="620" y="448" type="qcurve"/>
      <point x="612" y="432"/>
      <point x="598" y="432"/>
      <point x="587" y="463"/>
      <point x="583" y="495" type="qcurve"/>
      <point x="576" y="553"/>
    </contour>
    <contour>
      <point x="582" y="623" type="qcurve"/>
      <point x="582" y="553"/>
      <point x="588" y="495" type="qcurve"/>
      <point x="592" y="465"/>
      <point x="597" y="450" type="qcurve"/>
      <point x="601" y="438"/>
      <point x="605" y="438" type="qcurve"/>
      <point x="609" y="438"/>
      <point x="615" y="450" type="qcurve"/>
      <point x="622" y="465"/>
      <point x="630" y="496" type="qcurve"/>
      <point x="648" y="570"/>
      <point x="648" y="623" type="qcurve"/>
      <point x="648" y="664"/>
      <point x="628" y="722"/>
      <point x="602" y="722"/>
      <point x="582" y="664"/>
    </contour>
  </outline>
</glyph>
<glyph name="bracketleft" format="2">
  <advance width="256"/>
  <unicode hex="005B"/>
  <outline>
    <contour>
      <point x="201" y="-211"/>
      <point x="201" y="-193"/>
      <point x="188" y="-180"/>
      <point x="179" y="-180" type="qcurve"/>
      <point x="102" y="-180" type="line"/>
      <point x="99" y="-180"/>
      <point x="99" y="-177" type="qcurve"/>
      <point x="99" y="793" type="line"/>
      <point x="99" y="796"/>
      <point x="102" y="796" type="qcurve"/>
      <point x="179" y="796" type="line"/>
      <point x="188" y="796"/>
      <point x="201" y="809"/>
      <point x="201" y="827"/>
      <point x="188" y="840"/>
      <point x="179" y="840" type="qcurve"/>
      <point x="77" y="840" type="line"/>
      <point x="68" y="840"/>
      <point x="55" y="827"/>
      <point x="55" y="818" type="qcurve"/>
      <point x="55" y="-202" type="line"/>
      <point x="55" y="-211"/>
      <point x="68" y="-224"/>
      <point x="77" y="-224" type="qcurve"/>
      <point x="179" y="-224" type="line"/>
      <point x="188" y="-224"/>
    </contour>
    <contour>
      <point x="206" y="829"/>
      <point x="206" y="807"/>
      <point x="190" y="791"/>
      <point x="179" y="791" type="qcurve"/>
      <point x="104" y="791" type="line"/>
      <point x="104" y="-175" type="line"/>
      <point x="179" y="-175" type="line"/>
      <point x="190" y="-175"/>
      <point x="206" y="-191"/>
      <point x="206" y="-213"/>
      <point x="190" y="-229"/>
      <point x="179" y="-229" type="qcurve"/>
      <point x="77" y="-229" type="line"/>
      <point x="66" y="-229"/>
      <point x="50" y="-213"/>
      <point x="50" y="-202" type="qcurve"/>
      <point x="50" y="818" type="line"/>
      <point x="50" y="829"/>
      <point x="66" y="845"/>
      <point x="77" y="845" type="qcurve"/>
      <point x="179" y="845" type="line"/>
      <point x="190" y="845"/>
    </contour>
  </outline>
</glyph>
<glyph name="i" format="2">
  <advance width="340"/>
  <unicode hex="0069"/>
  <outline>
    <contour>
      <point x="206" y="542" type="qcurve"/>
      <point x="206" y="552"/>
      <point x="188" y="570"/>
      <point x="177" y="570" type="qcurve"/>
      <point x="176" y="570" type="line"/>
      <point x="175" y="570" type="line"/>
      <point x="162" y="570"/>
      <point x="147" y="546"/>
      <point x="147" y="532" type="qcurve"/>
      <point x="147" y="508"/>
      <point x="179" y="508" type="qcurve"/>
      <point x="206" y="508"/>
    </contour>
    <contour>
      <point x="259" y="-20" type="qcurve"/>
      <point x="285" y="-20"/>
      <point x="336" y="63"/>
      <point x="336" y="92" type="qcurve"/>
      <point x="336" y="101"/>
      <point x="322" y="114"/>
      <point x="313" y="114" type="qcurve"/>
      <point x="300" y="114"/>
      <point x="283" y="86"/>
      <point x="277" y="53"/>
      <point x="264" y="25"/>
      <point x="254" y="25" type="qcurve"/>
      <point x="226" y="25"/>
      <point x="173" y="84"/>
      <point x="168" y="109" type="qcurve"/>
      <point x="157" y="161" type="line"/>
      <point x="157" y="162" type="line"/>
      <point x="157" y="171"/>
      <point x="177" y="215"/>
      <point x="178" y="220" type="qcurve"/>
      <point x="201" y="302"/>
      <point x="201" y="382" type="qcurve"/>
      <point x="201" y="438"/>
      <point x="163" y="438" type="qcurve"/>
      <point x="147" y="438"/>
      <point x="119" y="414"/>
      <point x="117" y="399" type="qcurve"/>
      <point x="109" y="345" type="line"/>
      <point x="109" y="343" type="line"/>
      <point x="105" y="249" type="line"/>
      <point x="105" y="248" type="line"/>
      <point x="105" y="247" type="line"/>
      <point x="109" y="170" type="line"/>
      <point x="109" y="152"/>
      <point x="54" y="121"/>
      <point x="31" y="119" type="qcurve"/>
      <point x="31" y="118" type="line"/>
      <point x="27" y="118" type="line"/>
      <point x="18" y="118"/>
      <point x="5" y="105"/>
      <point x="5" y="87"/>
      <point x="18" y="74"/>
      <point x="27" y="74" type="qcurve"/>
      <point x="31" y="74" type="line"/>
      <point x="51" y="74"/>
      <point x="109" y="110"/>
      <point x="119" y="110" type="qcurve"/>
      <point x="132" y="85"/>
      <point x="141" y="67"/>
      <point x="172" y="20"/>
      <point x="197" y="0"/>
      <point x="237" y="-20"/>
    </contour>
    <contour>
      <point x="142" y="532" type="qcurve"/>
      <point x="142" y="548"/>
      <point x="160" y="575"/>
      <point x="175" y="575" type="qcurve"/>
      <point x="176" y="575" type="line"/>
      <point x="177" y="575" type="line"/>
      <point x="189" y="575"/>
      <point x="211" y="554"/>
      <point x="211" y="542" type="qcurve"/>
      <point x="211" y="526"/>
      <point x="195" y="503"/>
      <point x="163" y="503"/>
      <point x="142" y="518"/>
    </contour>
    <contour>
      <point x="118" y="103" type="qcurve"/>
      <point x="76" y="69"/>
      <point x="31" y="69" type="qcurve"/>
      <point x="27" y="69" type="line"/>
      <point x="16" y="69"/>
      <point x="0" y="85"/>
      <point x="0" y="107"/>
      <point x="16" y="123"/>
      <point x="27" y="123" type="qcurve"/>
      <point x="30" y="123" type="line"/>
      <point x="76" y="127"/>
      <point x="104" y="171" type="qcurve"/>
      <point x="100" y="247" type="line"/>
      <point x="100" y="248" type="line"/>
      <point x="100" y="249" type="line"/>
      <point x="104" y="343" type="line"/>
      <point x="104" y="346" type="line"/>
      <point x="112" y="400" type="line"/>
      <point x="115" y="418"/>
      <point x="144" y="443"/>
      <point x="163" y="443" type="qcurve"/>
      <point x="206" y="443"/>
      <point x="206" y="382" type="qcurve"/>
      <point x="206" y="327"/>
      <point x="182" y="201"/>
      <point x="162" y="161" type="qcurve"/>
      <point x="172" y="110" type="line"/>
      <point x="177" y="85"/>
      <point x="226" y="38"/>
      <point x="254" y="31" type="qcurve"/>
      <point x="260" y="38"/>
      <point x="277" y="85"/>
      <point x="298" y="119"/>
      <point x="313" y="119" type="qcurve"/>
      <point x="324" y="119"/>
      <point x="341" y="103"/>
      <point x="341" y="92" type="qcurve"/>
      <point x="341" y="60"/>
      <point x="287" y="-25"/>
      <point x="259" y="-25" type="qcurve"/>
      <point x="208" y="-25"/>
      <point x="128" y="54"/>
    </contour>
  </outline>
</glyph>
<glyph name="w" format="2">
  <advance width="683"/>
  <unicode hex="0077"/>
  <outline>
    <contour>
      <point x="421" y="322" type="qcurve"/>
      <point x="421" y="309"/>
      <point x="504" y="216"/>
      <point x="518" y="216" type="qcurve"/>
      <point x="522" y="216"/>
      <point x="522" y="222" type="qcurve"/>
      <point x="522" y="230"/>
      <point x="506" y="285"/>
      <point x="506" y="294" type="qcurve"/>
      <point x="506" y="309"/>
      <point x="467" y="352"/>
      <point x="455" y="352" type="qcurve"/>
      <point x="444" y="352"/>
      <point x="421" y="332"/>
    </contour>
    <contour>
      <point x="518" y="210" type="qcurve"/>
      <point x="501" y="210"/>
      <point x="416" y="306"/>
      <point x="416" y="322" type="qcurve"/>
      <point x="416" y="335"/>
      <point x="442" y="356"/>
      <point x="455" y="356" type="qcurve"/>
      <point x="470" y="356"/>
      <point x="512" y="312"/>
      <point x="512" y="294" type="qcurve"/>
      <point x="512" y="286"/>
      <point x="527" y="231"/>
      <point x="527" y="222" type="qcurve"/>
      <point x="527" y="210"/>
    </contour>
    <contour>
      <point x="439" y="423" type="qcurve"/>
      <point x="385" y="423"/>
      <point x="385" y="337" type="qcurve"/>
      <point x="385" y="326" type="line"/>
      <point x="385" y="317" type="line"/>
      <point x="385" y="229"/>
      <point x="514" y="153" type="qcurve"/>
      <point x="515" y="153"/>
      <point x="515" y="151" type="qcurve"/>
      <point x="515" y="98"/>
      <point x="466" y="11"/>
      <point x="423" y="11" type="qcurve"/>
      <point x="406" y="11"/>
      <point x="337" y="38"/>
      <point x="337" y="64"/>
      <point x="354" y="132"/>
      <point x="354" y="149" type="qcurve"/>
      <point x="354" y="177"/>
      <point x="323" y="211"/>
      <point x="295" y="211" type="qcurve"/>
      <point x="245" y="211"/>
      <point x="245" y="131" type="qcurve"/>
      <point x="245" y="129" type="line"/>
      <point x="245" y="113"/>
      <point x="278" y="57"/>
      <point x="278" y="45" type="qcurve"/>
      <point x="278" y="38"/>
      <point x="245" y="27"/>
      <point x="231" y="27" type="qcurve"/>
      <point x="150" y="27"/>
      <point x="150" y="214" type="qcurve"/>
      <point x="150" y="234"/>
      <point x="178" y="323"/>
      <point x="178" y="347" type="qcurve"/>
      <point x="178" y="365"/>
      <point x="177" y="382"/>
      <point x="172" y="410"/>
      <point x="158" y="422"/>
      <point x="147" y="422" type="qcurve"/>
      <point x="98" y="422"/>
      <point x="98" y="260" type="qcurve"/>
      <point x="98" y="252"/>
      <point x="102" y="226"/>
      <point x="102" y="220" type="qcurve"/>
      <point x="102" y="203"/>
      <point x="72" y="168"/>
      <point x="35" y="143"/>
      <point x="5" y="112"/>
      <point x="5" y="97" type="qcurve"/>
      <point x="5" y="88"/>
      <point x="18" y="75"/>
      <point x="27" y="75" type="qcurve"/>
      <point x="47" y="75"/>
      <point x="98" y="144"/>
      <point x="109" y="144" type="qcurve"/>
      <point x="111" y="137"/>
      <point x="125" y="86"/>
      <point x="133" y="62"/>
      <point x="154" y="21"/>
      <point x="175" y="0"/>
      <point x="210" y="-17"/>
      <point x="231" y="-17" type="qcurve"/>
      <point x="249" y="-17"/>
      <point x="303" y="12"/>
      <point x="311" y="12" type="qcurve"/>
      <point x="323" y="12"/>
      <point x="398" y="-33"/>
      <point x="423" y="-33" type="qcurve"/>
      <point x="483" y="-33"/>
      <point x="547" y="58"/>
      <point x="557" y="125" type="qcurve"/>
      <point x="557" y="127"/>
      <point x="560" y="127" type="qcurve"/>
      <point x="567" y="127"/>
      <point x="600" y="108"/>
      <point x="607" y="102" type="qcurve"/>
      <point x="643" y="74" type="line"/>
      <point x="648" y="70"/>
      <point x="656" y="70" type="qcurve"/>
      <point x="665" y="70"/>
      <point x="679" y="83"/>
      <point x="679" y="92" type="qcurve"/>
      <point x="679" y="103"/>
      <point x="670" y="110" type="qcurve"/>
      <point x="633" y="139" type="line"/>
      <point x="628" y="143"/>
      <point x="590" y="160"/>
      <point x="562" y="179"/>
      <point x="562" y="189" type="qcurve"/>
      <point x="562" y="227"/>
      <point x="535" y="332"/>
      <point x="475" y="423"/>
    </contour>
    <contour>
      <point x="27" y="70" type="qcurve"/>
      <point x="16" y="70"/>
      <point x="0" y="86"/>
      <point x="0" y="97" type="qcurve"/>
      <point x="0" y="111"/>
      <point x="11" y="119" type="qcurve"/>
      <point x="66" y="159"/>
      <point x="97" y="221" type="qcurve"/>
      <point x="93" y="237"/>
      <point x="93" y="260" type="qcurve"/>
      <point x="93" y="427"/>
      <point x="147" y="427" type="qcurve"/>
      <point x="164" y="427"/>
      <point x="181" y="399"/>
      <point x="183" y="372"/>
      <point x="183" y="347" type="qcurve"/>
      <point x="183" y="278"/>
      <point x="155" y="213" type="qcurve"/>
      <point x="157" y="198"/>
      <point x="162" y="138"/>
      <point x="167" y="98"/>
      <point x="180" y="55"/>
      <point x="209" y="32"/>
      <point x="231" y="32" type="qcurve"/>
      <point x="257" y="32"/>
      <point x="272" y="45" type="qcurve"/>
      <point x="240" y="85"/>
      <point x="240" y="129" type="qcurve"/>
      <point x="240" y="131" type="line"/>
      <point x="240" y="216"/>
      <point x="295" y="216" type="qcurve"/>
      <point x="326" y="216"/>
      <point x="359" y="179"/>
      <point x="359" y="149" type="qcurve"/>
      <point x="359" y="91"/>
      <point x="343" y="52" type="qcurve"/>
      <point x="388" y="16"/>
      <point x="423" y="16" type="qcurve"/>
      <point x="496" y="16"/>
      <point x="510" y="150" type="qcurve"/>
      <point x="475" y="171"/>
      <point x="426" y="209"/>
      <point x="380" y="279"/>
      <point x="380" y="317" type="qcurve"/>
      <point x="380" y="326" type="line"/>
      <point x="380" y="337" type="line"/>
      <point x="380" y="428"/>
      <point x="439" y="428" type="qcurve"/>
      <point x="468" y="428"/>
      <point x="519" y="374"/>
      <point x="550" y="296"/>
      <point x="567" y="218"/>
      <point x="567" y="189" type="qcurve"/>
      <point x="567" y="181" type="line"/>
      <point x="574" y="177"/>
      <point x="604" y="163"/>
      <point x="628" y="150"/>
      <point x="636" y="143" type="qcurve"/>
      <point x="673" y="114" type="line"/>
      <point x="684" y="105"/>
      <point x="684" y="92" type="qcurve"/>
      <point x="684" y="81"/>
      <point x="667" y="65"/>
      <point x="656" y="65" type="qcurve"/>
      <point x="646" y="65"/>
      <point x="640" y="70" type="qcurve"/>
      <point x="604" y="98" type="line"/>
      <point x="580" y="112"/>
      <point x="562" y="121" type="qcurve"/>
      <point x="551" y="54"/>
      <point x="485" y="-38"/>
      <point x="423" y="-38" type="qcurve"/>
      <point x="367" y="-38"/>
      <point x="311" y="6" type="qcurve"/>
      <point x="280" y="-22"/>
      <point x="231" y="-22" type="qcurve"/>
      <point x="123" y="-22"/>
      <point x="107" y="135" type="qcurve"/>
      <point x="56" y="70"/>
    </contour>
    <contour>
      <point x="297" y="60" type="qcurve"/>
      <point x="290" y="60"/>
      <point x="270" y="111"/>
      <point x="270" y="123" type="qcurve"/>
      <point x="270" y="147"/>
      <point x="288" y="194"/>
      <point x="299" y="194" type="qcurve"/>
      <point x="300" y="194"/>
      <point x="302" y="195"/>
      <point x="306" y="195"/>
      <point x="313" y="170"/>
      <point x="319" y="136"/>
      <point x="319" y="125" type="qcurve"/>
      <point x="319" y="107"/>
      <point x="307" y="60"/>
    </contour>
    <contour>
      <point x="275" y="123" type="qcurve"/>
      <point x="275" y="114"/>
      <point x="294" y="65"/>
      <point x="297" y="65" type="qcurve"/>
      <point x="304" y="65"/>
      <point x="314" y="112"/>
      <point x="314" y="125" type="qcurve"/>
      <point x="314" y="141"/>
      <point x="302" y="189" type="qcurve"/>
      <point x="301" y="188" type="line"/>
      <point x="300" y="188"/>
      <point x="299" y="188" type="qcurve"/>
      <point x="292" y="188"/>
      <point x="275" y="145"/>
    </contour>
  </outline>
</glyph>
<glyph name="bar" format="2">
  <advance width="226"/>
  <unicode hex="007C"/>
  <outline>
    <contour>
      <point x="104" y="-22"/>
      <point x="122" y="-22"/>
      <point x="135" y="-9"/>
      <point x="135" y="0" type="qcurve"/>
      <point x="135" y="781" type="line"/>
      <point x="135" y="790"/>
      <point x="122" y="803"/>
      <point x="104" y="803"/>
      <point x="91" y="790"/>
      <point x="91" y="781" type="qcurve"/>
      <point x="91" y="0" type="line"/>
      <point x="91" y="-9"/>
    </contour>
    <contour>
      <point x="102" y="808"/>
      <point x="124" y="808"/>
      <point x="140" y="792"/>
      <point x="140" y="781" type="qcurve"/>
      <point x="140" y="0" type="line"/>
      <point x="140" y="-11"/>
      <point x="124" y="-27"/>
      <point x="102" y="-27"/>
      <point x="86" y="-11"/>
      <point x="86" y="0" type="qcurve"/>
      <point x="86" y="781" type="line"/>
      <point x="86" y="792"/>
    </contour>
  </outline>
</glyph>
<glyph name="asciitilde" format="2">
  <advance width="505"/>
  <unicode hex="007E"/>
  <outline>
    <contour>
      <point x="145" y="419" type="qcurve"/>
      <point x="120" y="419"/>
      <point x="62" y="440"/>
      <point x="62" y="457" type="qcurve"/>
      <point x="62" y="459" type="line"/>
      <point x="62" y="468"/>
      <point x="49" y="481"/>
      <point x="31" y="481"/>
      <point x="18" y="468"/>
      <point x="18" y="459" type="qcurve"/>
      <point x="18" y="456" type="line"/>
      <point x="18" y="417"/>
      <point x="96" y="374"/>
      <point x="144" y="374" type="qcurve"/>
      <point x="189" y="374"/>
      <point x="334" y="448"/>
      <point x="373" y="448" type="qcurve"/>
      <point x="378" y="448"/>
      <point x="382" y="446" type="qcurve"/>
      <point x="441" y="413" type="line"/>
      <point x="443" y="412"/>
      <point x="453" y="404"/>
      <point x="461" y="400"/>
      <point x="466" y="400" type="qcurve"/>
      <point x="475" y="400"/>
      <point x="488" y="413"/>
      <point x="488" y="422" type="qcurve"/>
      <point x="488" y="439"/>
      <point x="465" y="452" type="qcurve"/>
      <point x="401" y="488" type="line"/>
      <point x="394" y="492"/>
      <point x="373" y="492" type="qcurve"/>
      <point x="328" y="492"/>
      <point x="184" y="419"/>
    </contour>
    <contour>
      <point x="144" y="369" type="qcurve"/>
      <point x="94" y="369"/>
      <point x="13" y="414"/>
      <point x="13" y="456" type="qcurve"/>
      <point x="13" y="459" type="line"/>
      <point x="13" y="470"/>
      <point x="29" y="486"/>
      <point x="51" y="486"/>
      <point x="67" y="470"/>
      <point x="67" y="459" type="qcurve"/>
      <point x="67" y="457" type="line"/>
      <point x="74" y="441"/>
      <point x="120" y="424"/>
      <point x="145" y="424" type="qcurve"/>
      <point x="183" y="424"/>
      <point x="327" y="497"/>
      <point x="373" y="497" type="qcurve"/>
      <point x="393" y="497"/>
      <point x="403" y="492" type="qcurve"/>
      <point x="467" y="456" type="line"/>
      <point x="493" y="442"/>
      <point x="493" y="422" type="qcurve"/>
      <point x="493" y="411"/>
      <point x="477" y="395"/>
      <point x="466" y="395" type="qcurve"/>
      <point x="460" y="395"/>
      <point x="451" y="399"/>
      <point x="440" y="408"/>
      <point x="438" y="409" type="qcurve"/>
      <point x="380" y="442" type="line"/>
      <point x="378" y="442"/>
      <point x="374" y="443"/>
      <point x="373" y="443" type="qcurve"/>
      <point x="335" y="443"/>
      <point x="189" y="369"/>
    </contour>
  </outline>
</glyph>
<glyph name="C.0" format="2">
  <advance width="490"/>
  <outline>
    <contour>
      <point x="444" y="682" type="qcurve"/>
      <point x="444" y="686" type="line"/>
      <point x="440" y="723"/>
      <point x="420" y="743" type="qcurve"/>
      <point x="385" y="778" type="line"/>
      <point x="377" y="786"/>
      <point x="366" y="789" type="qcurve"/>
      <point x="360" y="791"/>
      <point x="341" y="801" type="qcurve"/>
      <point x="317" y="815"/>
      <point x="304" y="815" type="qcurve"/>
      <point x="244" y="815"/>
      <point x="209" y="780" type="qcurve"/>
      <point x="174" y="744" type="line"/>
      <point x="144" y="714"/>
      <point x="114" y="624" type="qcurve"/>
      <point x="91" y="550"/>
      <point x="69" y="522" type="qcurve"/>
      <point x="55" y="388" type="line"/>
      <point x="59" y="246" type="line"/>
      <point x="67" y="190" type="line"/>
      <point x="72" y="159"/>
      <point x="83" y="140" type="qcurve"/>
      <point x="85" y="137"/>
      <point x="96" y="110" type="qcurve"/>
      <point x="121" y="48"/>
      <point x="138" y="31" type="qcurve"/>
      <point x="174" y="-4" type="line"/>
      <point x="187" y="-17"/>
      <point x="200" y="-17" type="qcurve"/>
      <point x="214" y="-17" type="line"/>
      <point x="260" y="-37"/>
      <point x="310" y="-37" type="qcurve"/>
      <point x="339" y="-37"/>
      <point x="357" y="-29" type="qcurve"/>
      <point x="374" y="-21"/>
      <point x="395" y="-2" type="qcurve"/>
      <point x="397" y="-1"/>
      <point x="399" y="1" type="qcurve"/>
      <point x="400" y="3"/>
      <point x="403" y="6" type="qcurve"/>
      <point x="405" y="8"/>
      <point x="406" y="9" type="qcurve"/>
      <point x="442" y="44" type="line"/>
      <point x="460" y="92" type="line"/>
      <point x="462" y="152" type="line"/>
      <point x="462" y="153" type="line"/>
      <point x="462" y="168"/>
      <point x="452" y="178" type="qcurve"/>
      <point x="441" y="188"/>
      <point x="426" y="188" type="qcurve"/>
      <point x="412" y="188"/>
      <point x="402" y="178" type="qcurve"/>
      <point x="392" y="168"/>
      <point x="391" y="154" type="qcurve"/>
      <point x="389" y="92" type="line"/>
      <point x="374" y="52" type="line"/>
      <point x="349" y="33"/>
      <point x="310" y="33" type="qcurve"/>
      <point x="260" y="33"/>
      <point x="214" y="53" type="qcurve"/>
      <point x="200" y="53" type="line"/>
      <point x="198" y="53"/>
      <point x="192" y="55" type="qcurve"/>
      <point x="181" y="73"/>
      <point x="167" y="110" type="qcurve"/>
      <point x="156" y="137"/>
      <point x="154" y="140" type="qcurve"/>
      <point x="147" y="153"/>
      <point x="138" y="190" type="qcurve"/>
      <point x="130" y="246" type="line"/>
      <point x="126" y="388" type="line"/>
      <point x="140" y="522" type="line"/>
      <point x="162" y="550"/>
      <point x="185" y="624" type="qcurve"/>
      <point x="210" y="699"/>
      <point x="228" y="724" type="qcurve"/>
      <point x="259" y="745"/>
      <point x="304" y="745" type="qcurve"/>
      <point x="317" y="745"/>
      <point x="341" y="731" type="qcurve"/>
      <point x="353" y="724"/>
      <point x="365" y="719" type="qcurve"/>
      <point x="370" y="708"/>
      <point x="374" y="678" type="qcurve"/>
      <point x="376" y="665"/>
      <point x="386" y="656" type="qcurve"/>
      <point x="396" y="647"/>
      <point x="409" y="647" type="qcurve"/>
      <point x="423" y="647"/>
      <point x="434" y="658" type="qcurve"/>
      <point x="444" y="668"/>
    </contour>
  </outline>
</glyph>
<glyph name="C.1" format="2">
  <advance width="490"/>
  <outline>
    <contour>
      <point x="398" y="686" type="qcurve"/>
      <point x="398" y="687"/>
      <point x="398" y="687" type="qcurve"/>
      <point x="391" y="748"/>
      <point x="352" y="759" type="qcurve"/>
      <point x="347" y="761"/>
      <point x="325" y="773" type="qcurve"/>
      <point x="302" y="785"/>
      <point x="289" y="785" type="qcurve"/>
      <point x="267" y="785"/>
      <point x="248" y="780" type="qcurve"/>
      <point x="228" y="774"/>
      <point x="215" y="767" type="qcurve"/>
      <point x="201" y="760"/>
      <point x="189" y="746" type="qcurve"/>
      <point x="176" y="732"/>
      <point x="169" y="721" type="qcurve"/>
      <point x="162" y="710"/>
      <point x="154" y="690" type="qcurve"/>
      <point x="145" y="670"/>
      <point x="141" y="659" type="qcurve"/>
      <point x="137" y="648"/>
      <point x="130" y="626" type="qcurve"/>
      <point x="105" y="552"/>
      <point x="85" y="525" type="qcurve"/>
      <point x="84" y="524"/>
      <point x="84" y="523" type="qcurve"/>
      <point x="70" y="389" type="line"/>
      <point x="70" y="388" type="line"/>
      <point x="74" y="246" type="line"/>
      <point x="74" y="246"/>
      <point x="74" y="245" type="qcurve"/>
      <point x="82" y="189" type="line"/>
      <point x="90" y="153"/>
      <point x="99" y="138" type="qcurve"/>
      <point x="102" y="131"/>
      <point x="111" y="108" type="qcurve"/>
      <point x="130" y="60"/>
      <point x="144" y="41" type="qcurve"/>
      <point x="163" y="13"/>
      <point x="185" y="13" type="qcurve"/>
      <point x="198" y="13" type="line"/>
      <point x="246" y="-7"/>
      <point x="295" y="-7" type="qcurve"/>
      <point x="298" y="-7"/>
      <point x="301" y="-7" type="qcurve"/>
      <point x="312" y="-7"/>
      <point x="323" y="-4" type="qcurve"/>
      <point x="333" y="-2"/>
      <point x="340" y="1" type="qcurve"/>
      <point x="346" y="3"/>
      <point x="355" y="9" type="qcurve"/>
      <point x="364" y="15"/>
      <point x="368" y="18" type="qcurve"/>
      <point x="372" y="21"/>
      <point x="382" y="30" type="qcurve"/>
      <point x="391" y="38"/>
      <point x="394" y="40" type="qcurve"/>
      <point x="395" y="41"/>
      <point x="396" y="42" type="qcurve"/>
      <point x="414" y="90" type="line"/>
      <point x="414" y="91"/>
      <point x="414" y="92" type="qcurve"/>
      <point x="416" y="152" type="line"/>
      <point x="416" y="157"/>
      <point x="411" y="157" type="qcurve"/>
      <point x="406" y="157"/>
      <point x="406" y="152" type="qcurve"/>
      <point x="404" y="93" type="line"/>
      <point x="387" y="47" type="line"/>
      <point x="383" y="44"/>
      <point x="376" y="38" type="qcurve"/>
      <point x="354" y="18"/>
      <point x="339" y="11" type="qcurve"/>
      <point x="323" y="3"/>
      <point x="295" y="3" type="qcurve"/>
      <point x="247" y="3"/>
      <point x="201" y="23" type="qcurve"/>
      <point x="200" y="23"/>
      <point x="199" y="23" type="qcurve"/>
      <point x="185" y="23" type="line"/>
      <point x="168" y="23"/>
      <point x="152" y="47" type="qcurve"/>
      <point x="139" y="65"/>
      <point x="121" y="112" type="qcurve"/>
      <point x="111" y="135"/>
      <point x="107" y="142" type="qcurve"/>
      <point x="100" y="156"/>
      <point x="92" y="191" type="qcurve"/>
      <point x="84" y="246" type="line"/>
      <point x="80" y="388" type="line"/>
      <point x="94" y="520" type="line"/>
      <point x="115" y="548"/>
      <point x="139" y="622" type="qcurve"/>
      <point x="149" y="653"/>
      <point x="155" y="669" type="qcurve"/>
      <point x="161" y="685"/>
      <point x="174" y="709" type="qcurve"/>
      <point x="187" y="733"/>
      <point x="201" y="745" type="qcurve"/>
      <point x="214" y="756"/>
      <point x="237" y="766" type="qcurve"/>
      <point x="260" y="775"/>
      <point x="289" y="775" type="qcurve"/>
      <point x="299" y="775"/>
      <point x="323" y="762" type="qcurve"/>
      <point x="341" y="752"/>
      <point x="350" y="749" type="qcurve"/>
      <point x="381" y="740"/>
      <point x="388" y="685" type="qcurve"/>
      <point x="389" y="681"/>
      <point x="393" y="681" type="qcurve"/>
      <point x="398" y="681"/>
    </contour>
  </outline>
</glyph>
<glyph name="D.0" format="2">
  <advance width="507"/>
  <outline>
    <contour>
      <point x="147" y="122" type="qcurve"/>
      <point x="147" y="112" type="line"/>
      <point x="127" y="109"/>
      <point x="115" y="97" type="qcurve"/>
      <point x="79" y="62" type="line"/>
      <point x="67" y="50"/>
      <point x="66" y="30" type="qcurve"/>
      <point x="66" y="28" type="line"/>
      <point x="66" y="21"/>
      <point x="71" y="16" type="qcurve"/>
      <point x="106" y="-20" type="line"/>
      <point x="110" y="-24"/>
      <point x="119" y="-27" type="qcurve"/>
      <point x="127" y="-30"/>
      <point x="138" y="-32" type="qcurve"/>
      <point x="149" y="-35"/>
      <point x="155" y="-37" type="qcurve"/>
      <point x="190" y="-2" type="line"/>
      <point x="202" y="19"/>
      <point x="208" y="43" type="qcurve"/>
      <point x="214" y="43"/>
      <point x="237" y="41" type="qcurve"/>
      <point x="260" y="39"/>
      <point x="271" y="39" type="qcurve"/>
      <point x="313" y="39"/>
      <point x="344" y="70" type="qcurve"/>
      <point x="379" y="105" type="line"/>
      <point x="398" y="124"/>
      <point x="413" y="152" type="qcurve"/>
      <point x="427" y="180"/>
      <point x="445" y="227" type="qcurve"/>
      <point x="462" y="273"/>
      <point x="467" y="286" type="qcurve"/>
      <point x="480" y="426" type="line"/>
      <point x="398" y="667" type="line"/>
      <point x="388" y="696"/>
      <point x="367" y="716" type="qcurve"/>
      <point x="332" y="751" type="line"/>
      <point x="286" y="797"/>
      <point x="205" y="797" type="qcurve"/>
      <point x="148" y="797"/>
      <point x="118" y="767" type="qcurve"/>
      <point x="83" y="732" type="line"/>
      <point x="62" y="711"/>
      <point x="56" y="678" type="qcurve"/>
      <point x="56" y="677"/>
      <point x="56" y="675" type="qcurve"/>
      <point x="55" y="672"/>
      <point x="55" y="671" type="qcurve"/>
      <point x="55" y="657"/>
      <point x="66" y="647" type="qcurve"/>
      <point x="76" y="636"/>
      <point x="90" y="636" type="qcurve"/>
      <point x="114" y="636"/>
      <point x="122" y="658" type="qcurve"/>
      <point x="122" y="408" type="line"/>
      <point x="122" y="403" type="line"/>
      <point x="122" y="359"/>
      <point x="135" y="263" type="qcurve"/>
      <point x="147" y="167"/>
    </contour>
    <contour>
      <point x="271" y="109" type="qcurve"/>
      <point x="261" y="109"/>
      <point x="242" y="111" type="qcurve"/>
      <point x="223" y="113"/>
      <point x="217" y="113" type="qcurve"/>
      <point x="217" y="122" type="line"/>
      <point x="217" y="167"/>
      <point x="205" y="263" type="qcurve"/>
      <point x="192" y="359"/>
      <point x="192" y="403" type="qcurve"/>
      <point x="192" y="408" type="line"/>
      <point x="192" y="676" type="line"/>
      <point x="192" y="691"/>
      <point x="182" y="701" type="qcurve"/>
      <point x="172" y="711"/>
      <point x="157" y="711" type="qcurve"/>
      <point x="144" y="711"/>
      <point x="134" y="703" type="qcurve"/>
      <point x="135" y="706"/>
      <point x="139" y="712" type="qcurve"/>
      <point x="164" y="727"/>
      <point x="205" y="727" type="qcurve"/>
      <point x="267" y="727"/>
      <point x="312" y="697" type="qcurve"/>
      <point x="321" y="684"/>
      <point x="327" y="667" type="qcurve"/>
      <point x="409" y="426" type="line"/>
      <point x="396" y="286" type="line"/>
      <point x="388" y="268"/>
      <point x="376" y="234" type="qcurve"/>
      <point x="364" y="199"/>
      <point x="352" y="172" type="qcurve"/>
      <point x="340" y="145"/>
      <point x="326" y="125" type="qcurve"/>
      <point x="302" y="109"/>
    </contour>
  </outline>
</glyph>
<glyph name="D.1" format="2">
  <advance width="507"/>
  <outline>
    <contour>
      <point x="169" y="84" type="qcurve"/>
      <point x="171" y="102"/>
      <point x="171" y="122" type="qcurve"/>
      <point x="171" y="167"/>
      <point x="159" y="263" type="qcurve"/>
      <point x="146" y="359"/>
      <point x="146" y="403" type="qcurve"/>
      <point x="146" y="405"/>
      <point x="146" y="408" type="qcurve"/>
      <point x="146" y="676" type="line"/>
      <point x="146" y="681"/>
      <point x="141" y="681" type="qcurve"/>
      <point x="136" y="681"/>
      <point x="136" y="676" type="qcurve"/>
      <point x="136" y="408" type="line"/>
      <point x="136" y="405"/>
      <point x="136" y="403" type="qcurve"/>
      <point x="136" y="358"/>
      <point x="149" y="263" type="qcurve"/>
      <point x="161" y="167"/>
      <point x="161" y="122" type="qcurve"/>
      <point x="161" y="102"/>
      <point x="159" y="84" type="qcurve"/>
      <point x="85" y="84"/>
      <point x="80" y="30" type="qcurve"/>
      <point x="80" y="30"/>
      <point x="80" y="28" type="qcurve"/>
      <point x="80" y="19"/>
      <point x="87" y="13" type="qcurve"/>
      <point x="93" y="6"/>
      <point x="101" y="4" type="qcurve"/>
      <point x="108" y="1"/>
      <point x="121" y="-2" type="qcurve"/>
      <point x="133" y="-5"/>
      <point x="137" y="-7" type="qcurve"/>
      <point x="138" y="-7"/>
      <point x="139" y="-7" type="qcurve"/>
      <point x="142" y="-7"/>
      <point x="143" y="-4" type="qcurve"/>
      <point x="162" y="28"/>
      <point x="168" y="74" type="qcurve"/>
      <point x="180" y="74"/>
      <point x="210" y="72" type="qcurve"/>
      <point x="240" y="69"/>
      <point x="255" y="69" type="qcurve"/>
      <point x="273" y="69"/>
      <point x="289" y="75" type="qcurve"/>
      <point x="305" y="80"/>
      <point x="317" y="88" type="qcurve"/>
      <point x="328" y="96"/>
      <point x="340" y="111" type="qcurve"/>
      <point x="352" y="126"/>
      <point x="359" y="137" type="qcurve"/>
      <point x="366" y="148"/>
      <point x="375" y="169" type="qcurve"/>
      <point x="384" y="190"/>
      <point x="388" y="201" type="qcurve"/>
      <point x="392" y="211"/>
      <point x="401" y="234" type="qcurve"/>
      <point x="414" y="268"/>
      <point x="420" y="284" type="qcurve"/>
      <point x="420" y="284"/>
      <point x="421" y="285" type="qcurve"/>
      <point x="433" y="426" type="line"/>
      <point x="433" y="427"/>
      <point x="433" y="428" type="qcurve"/>
      <point x="351" y="669" type="line"/>
      <point x="334" y="717"/>
      <point x="290" y="742" type="qcurve"/>
      <point x="245" y="767"/>
      <point x="189" y="767" type="qcurve"/>
      <point x="139" y="767"/>
      <point x="109" y="744" type="qcurve"/>
      <point x="79" y="721"/>
      <point x="70" y="679" type="qcurve"/>
      <point x="70" y="679"/>
      <point x="70" y="678" type="qcurve"/>
      <point x="70" y="673"/>
      <point x="75" y="673" type="qcurve"/>
      <point x="79" y="673"/>
      <point x="80" y="677" type="qcurve"/>
      <point x="96" y="757"/>
      <point x="189" y="757" type="qcurve"/>
      <point x="242" y="757"/>
      <point x="284" y="734" type="qcurve"/>
      <point x="326" y="710"/>
      <point x="341" y="665" type="qcurve"/>
      <point x="423" y="426" type="line"/>
      <point x="411" y="287" type="line"/>
      <point x="404" y="271"/>
      <point x="391" y="237" type="qcurve"/>
      <point x="380" y="207"/>
      <point x="374" y="191" type="qcurve"/>
      <point x="367" y="174"/>
      <point x="354" y="149" type="qcurve"/>
      <point x="341" y="124"/>
      <point x="328" y="112" type="qcurve"/>
      <point x="315" y="99"/>
      <point x="296" y="89" type="qcurve"/>
      <point x="277" y="79"/>
      <point x="255" y="79" type="qcurve"/>
      <point x="240" y="79"/>
      <point x="211" y="82" type="qcurve"/>
      <point x="181" y="84"/>
    </contour>
    <contour>
      <point x="90" y="28" type="qcurve"/>
      <point x="90" y="29"/>
      <point x="90" y="30" type="qcurve"/>
      <point x="92" y="55"/>
      <point x="110" y="65" type="qcurve"/>
      <point x="127" y="74"/>
      <point x="158" y="74" type="qcurve"/>
      <point x="153" y="34"/>
      <point x="137" y="4" type="qcurve"/>
      <point x="133" y="5"/>
      <point x="124" y="7" type="qcurve"/>
      <point x="106" y="12"/>
      <point x="98" y="16" type="qcurve"/>
      <point x="90" y="20"/>
    </contour>
  </outline>
</glyph>
<glyph name="E.0" format="2">
  <advance width="477"/>
  <outline>
    <contour>
      <point x="59" y="578" type="qcurve"/>
      <point x="59" y="568"/>
      <point x="58" y="549" type="qcurve"/>
      <point x="56" y="530"/>
      <point x="56" y="520" type="qcurve"/>
      <point x="56" y="480"/>
      <point x="76" y="460" type="qcurve"/>
      <point x="111" y="425" type="line"/>
      <point x="113" y="423"/>
      <point x="121" y="417" type="qcurve"/>
      <point x="133" y="405" type="line"/>
      <point x="141" y="397"/>
      <point x="147" y="397" type="qcurve"/>
      <point x="151" y="397" type="line"/>
      <point x="155" y="397"/>
      <point x="163" y="395" type="qcurve"/>
      <point x="156" y="388"/>
      <point x="144" y="375" type="qcurve"/>
      <point x="131" y="362"/>
      <point x="125" y="356" type="qcurve"/>
      <point x="115" y="346"/>
      <point x="111" y="341" type="qcurve"/>
      <point x="91" y="321" type="line"/>
      <point x="55" y="285"/>
      <point x="55" y="229" type="qcurve"/>
      <point x="55" y="227"/>
      <point x="56" y="221" type="qcurve"/>
      <point x="56" y="215"/>
      <point x="56" y="212" type="qcurve"/>
      <point x="56" y="207"/>
      <point x="56" y="198" type="qcurve"/>
      <point x="55" y="188"/>
      <point x="55" y="183" type="qcurve"/>
      <point x="55" y="141"/>
      <point x="70" y="116" type="qcurve"/>
      <point x="81" y="82"/>
      <point x="105" y="58" type="qcurve"/>
      <point x="140" y="23" type="line"/>
      <point x="190" y="-27"/>
      <point x="269" y="-29" type="qcurve"/>
      <point x="281" y="-33"/>
      <point x="296" y="-33" type="qcurve"/>
      <point x="338" y="-33"/>
      <point x="373" y="2" type="qcurve"/>
      <point x="408" y="37" type="line"/>
      <point x="419" y="48"/>
      <point x="423" y="54" type="qcurve"/>
      <point x="443" y="80" type="line"/>
      <point x="452" y="96"/>
      <point x="452" y="106" type="qcurve"/>
      <point x="452" y="119"/>
      <point x="443" y="129" type="qcurve"/>
      <point x="433" y="138"/>
      <point x="420" y="138" type="qcurve"/>
      <point x="401" y="138"/>
      <point x="392" y="120" type="qcurve"/>
      <point x="389" y="114"/>
      <point x="383" y="101" type="qcurve"/>
      <point x="376" y="87"/>
      <point x="372" y="80" type="qcurve"/>
      <point x="354" y="57" type="line"/>
      <point x="326" y="37"/>
      <point x="296" y="37" type="qcurve"/>
      <point x="281" y="37"/>
      <point x="269" y="41" type="qcurve"/>
      <point x="206" y="43"/>
      <point x="160" y="77" type="qcurve"/>
      <point x="146" y="98"/>
      <point x="141" y="116" type="qcurve"/>
      <point x="126" y="141"/>
      <point x="126" y="183" type="qcurve"/>
      <point x="126" y="188"/>
      <point x="127" y="198" type="qcurve"/>
      <point x="127" y="207"/>
      <point x="127" y="212" type="qcurve"/>
      <point x="127" y="215"/>
      <point x="127" y="221" type="qcurve"/>
      <point x="126" y="227"/>
      <point x="126" y="229" type="qcurve"/>
      <point x="126" y="276"/>
      <point x="150" y="308" type="qcurve"/>
      <point x="177" y="334" type="line"/>
      <point x="178" y="334"/>
      <point x="178" y="336" type="qcurve"/>
      <point x="178" y="337"/>
      <point x="179" y="338" type="qcurve"/>
      <point x="215" y="367"/>
      <point x="253" y="377" type="qcurve"/>
      <point x="253" y="447" type="line"/>
      <point x="225" y="447" type="line"/>
      <point x="215" y="447"/>
      <point x="201" y="454" type="qcurve"/>
      <point x="186" y="460"/>
      <point x="179" y="461" type="qcurve"/>
      <point x="175" y="461"/>
      <point x="166" y="465" type="qcurve"/>
      <point x="156" y="468"/>
      <point x="151" y="468" type="qcurve"/>
      <point x="150" y="468"/>
      <point x="149" y="468" type="qcurve"/>
      <point x="148" y="467"/>
      <point x="147" y="467" type="qcurve"/>
      <point x="144" y="467"/>
      <point x="138" y="471" type="qcurve"/>
      <point x="127" y="488"/>
      <point x="127" y="520" type="qcurve"/>
      <point x="127" y="530"/>
      <point x="128" y="549" type="qcurve"/>
      <point x="129" y="568"/>
      <point x="129" y="578" type="qcurve"/>
      <point x="129" y="595" type="line"/>
      <point x="129" y="656"/>
      <point x="173" y="714" type="qcurve"/>
      <point x="174" y="714"/>
      <point x="174" y="716" type="qcurve"/>
      <point x="174" y="718"/>
      <point x="175" y="718" type="qcurve"/>
      <point x="197" y="732"/>
      <point x="223" y="735" type="qcurve"/>
      <point x="238" y="735"/>
      <point x="269" y="732" type="qcurve"/>
      <point x="300" y="729"/>
      <point x="315" y="729" type="qcurve"/>
      <point x="325" y="729"/>
      <point x="349" y="716" type="qcurve"/>
      <point x="369" y="705"/>
      <point x="380" y="705" type="qcurve"/>
      <point x="394" y="705"/>
      <point x="405" y="716" type="qcurve"/>
      <point x="416" y="726"/>
      <point x="416" y="740" type="qcurve"/>
      <point x="416" y="753"/>
      <point x="407" y="763" type="qcurve"/>
      <point x="398" y="773"/>
      <point x="384" y="775" type="qcurve"/>
      <point x="377" y="775" type="line"/>
      <point x="368" y="776"/>
      <point x="348" y="788" type="qcurve"/>
      <point x="327" y="799"/>
      <point x="315" y="799" type="qcurve"/>
      <point x="300" y="799"/>
      <point x="269" y="802" type="qcurve"/>
      <point x="238" y="805"/>
      <point x="223" y="805" type="qcurve"/>
      <point x="182" y="800"/>
      <point x="154" y="772" type="qcurve"/>
      <point x="119" y="737" type="line"/>
      <point x="110" y="728"/>
      <point x="102" y="714" type="qcurve"/>
      <point x="58" y="656"/>
      <point x="58" y="595" type="qcurve"/>
      <point x="58" y="593"/>
      <point x="59" y="587" type="qcurve"/>
      <point x="59" y="581"/>
    </contour>
  </outline>
</glyph>
<glyph name="H.0" format="2">
  <advance width="826"/>
  <outline>
    <contour>
      <point x="588" y="515" type="qcurve"/>
      <point x="568" y="488"/>
      <point x="540" y="461" type="qcurve"/>
      <point x="506" y="426"/>
      <point x="411" y="350" type="qcurve"/>
      <point x="404" y="473"/>
      <point x="404" y="532" type="qcurve"/>
      <point x="404" y="569"/>
      <point x="406" y="603" type="qcurve"/>
      <point x="406" y="603"/>
      <point x="406" y="604" type="qcurve"/>
      <point x="406" y="605"/>
      <point x="406" y="607" type="qcurve"/>
      <point x="404" y="622"/>
      <point x="404" y="643" type="qcurve"/>
      <point x="404" y="686"/>
      <point x="411" y="718" type="qcurve"/>
      <point x="438" y="737"/>
      <point x="438" y="772" type="qcurve"/>
      <point x="438" y="782"/>
      <point x="431" y="790" type="qcurve"/>
      <point x="423" y="797"/>
      <point x="413" y="797" type="qcurve"/>
      <point x="408" y="797"/>
      <point x="404" y="795" type="qcurve"/>
      <point x="382" y="787"/>
      <point x="370" y="755" type="qcurve"/>
      <point x="368" y="755"/>
      <point x="367" y="755" type="qcurve"/>
      <point x="334" y="755"/>
      <point x="277" y="783" type="qcurve"/>
      <point x="255" y="794"/>
      <point x="243" y="800" type="qcurve"/>
      <point x="230" y="805"/>
      <point x="208" y="811" type="qcurve"/>
      <point x="185" y="817"/>
      <point x="163" y="817" type="qcurve"/>
      <point x="154" y="817"/>
      <point x="146" y="815" type="qcurve"/>
      <point x="138" y="813"/>
      <point x="130" y="810" type="qcurve"/>
      <point x="122" y="807"/>
      <point x="118" y="806" type="qcurve"/>
      <point x="111" y="804"/>
      <point x="106" y="797" type="qcurve"/>
      <point x="100" y="790"/>
      <point x="100" y="782" type="qcurve"/>
      <point x="100" y="716" type="line"/>
      <point x="100" y="714"/>
      <point x="100" y="711" type="qcurve"/>
      <point x="110" y="661" type="line"/>
      <point x="112" y="653"/>
      <point x="119" y="647" type="qcurve"/>
      <point x="126" y="641"/>
      <point x="135" y="641" type="qcurve"/>
      <point x="145" y="641"/>
      <point x="153" y="649" type="qcurve"/>
      <point x="160" y="656"/>
      <point x="160" y="666" type="qcurve"/>
      <point x="160" y="668"/>
      <point x="160" y="671" type="qcurve"/>
      <point x="150" y="718" type="line"/>
      <point x="150" y="764" type="line"/>
      <point x="158" y="767"/>
      <point x="163" y="767" type="qcurve"/>
      <point x="197" y="767"/>
      <point x="254" y="739" type="qcurve"/>
      <point x="317" y="707"/>
      <point x="358" y="705" type="qcurve"/>
      <point x="354" y="676"/>
      <point x="354" y="644" type="qcurve"/>
      <point x="354" y="621"/>
      <point x="356" y="603" type="qcurve"/>
      <point x="354" y="569"/>
      <point x="354" y="531" type="qcurve"/>
      <point x="354" y="480"/>
      <point x="363" y="311" type="qcurve"/>
      <point x="302" y="259"/>
      <point x="261" y="208" type="qcurve"/>
      <point x="219" y="156"/>
      <point x="203" y="92" type="qcurve"/>
      <point x="201" y="84"/>
      <point x="201" y="75" type="qcurve"/>
      <point x="201" y="42"/>
      <point x="227" y="15" type="qcurve"/>
      <point x="263" y="-21"/>
      <point x="311" y="-21" type="qcurve"/>
      <point x="347" y="-21"/>
      <point x="372" y="4" type="qcurve"/>
      <point x="402" y="34"/>
      <point x="412" y="99" type="qcurve"/>
      <point x="417" y="132"/>
      <point x="417" y="177" type="qcurve"/>
      <point x="417" y="217"/>
      <point x="414" y="288" type="qcurve"/>
      <point x="427" y="299"/>
      <point x="460" y="326" type="qcurve"/>
      <point x="493" y="352"/>
      <point x="511" y="367" type="qcurve"/>
      <point x="529" y="382"/>
      <point x="555" y="406" type="qcurve"/>
      <point x="580" y="429"/>
      <point x="599" y="450" type="qcurve"/>
      <point x="604" y="413"/>
      <point x="606" y="330" type="qcurve"/>
      <point x="607" y="220"/>
      <point x="617" y="170" type="qcurve"/>
      <point x="631" y="100"/>
      <point x="669" y="63" type="qcurve"/>
      <point x="690" y="42"/>
      <point x="718" y="31" type="qcurve"/>
      <point x="725" y="27"/>
      <point x="741" y="19" type="qcurve"/>
      <point x="757" y="11"/>
      <point x="769" y="5" type="qcurve"/>
      <point x="781" y="-1"/>
      <point x="783" y="-2" type="qcurve"/>
      <point x="793" y="-5"/>
      <point x="797" y="-5" type="qcurve"/>
      <point x="807" y="-5"/>
      <point x="815" y="3" type="qcurve"/>
      <point x="822" y="10"/>
      <point x="822" y="20" type="qcurve"/>
      <point x="822" y="30"/>
      <point x="815" y="38" type="qcurve"/>
      <point x="810" y="42"/>
      <point x="801" y="45" type="qcurve"/>
      <point x="748" y="72"/>
      <point x="736" y="77" type="qcurve"/>
      <point x="718" y="85"/>
      <point x="704" y="98" type="qcurve"/>
      <point x="683" y="119"/>
      <point x="672" y="161" type="qcurve"/>
      <point x="661" y="203"/>
      <point x="659" y="237" type="qcurve"/>
      <point x="656" y="270"/>
      <point x="655" y="331" type="qcurve"/>
      <point x="654" y="452"/>
      <point x="640" y="499" type="qcurve"/>
      <point x="640" y="500"/>
      <point x="639" y="502" type="qcurve"/>
      <point x="654" y="524"/>
      <point x="665" y="547" type="qcurve"/>
      <point x="696" y="612"/>
      <point x="696" y="686" type="qcurve"/>
      <point x="696" y="719"/>
      <point x="690" y="753" type="qcurve"/>
      <point x="689" y="781"/>
      <point x="687" y="789" type="qcurve"/>
      <point x="684" y="796"/>
      <point x="679" y="801" type="qcurve"/>
      <point x="671" y="809"/>
      <point x="659" y="809" type="qcurve"/>
      <point x="642" y="809"/>
      <point x="629" y="796" type="qcurve"/>
      <point x="618" y="785"/>
      <point x="609" y="764" type="qcurve"/>
      <point x="601" y="744"/>
      <point x="595" y="716" type="qcurve"/>
      <point x="582" y="662"/>
      <point x="582" y="629" type="qcurve"/>
      <point x="581" y="617"/>
      <point x="581" y="605" type="qcurve"/>
      <point x="581" y="577"/>
    </contour>
    <contour>
      <point x="631" y="605" type="qcurve"/>
      <point x="631" y="609"/>
      <point x="632" y="617" type="qcurve"/>
      <point x="632" y="624"/>
      <point x="632" y="628" type="qcurve"/>
      <point x="632" y="655"/>
      <point x="643" y="705" type="qcurve"/>
      <point x="644" y="708"/>
      <point x="645" y="711" type="qcurve"/>
      <point x="646" y="698"/>
      <point x="646" y="685" type="qcurve"/>
      <point x="646" y="639"/>
      <point x="631" y="597" type="qcurve"/>
      <point x="631" y="601"/>
    </contour>
    <contour>
      <point x="365" y="247" type="qcurve"/>
      <point x="367" y="200"/>
      <point x="367" y="177" type="qcurve"/>
      <point x="367" y="136"/>
      <point x="362" y="106" type="qcurve"/>
      <point x="355" y="58"/>
      <point x="337" y="39" type="qcurve"/>
      <point x="327" y="29"/>
      <point x="311" y="29" type="qcurve"/>
      <point x="292" y="30"/>
      <point x="272" y="43" type="qcurve"/>
      <point x="251" y="56"/>
      <point x="251" y="74" type="qcurve"/>
      <point x="251" y="77"/>
      <point x="251" y="80" type="qcurve"/>
      <point x="270" y="153"/>
      <point x="342" y="224" type="qcurve"/>
      <point x="353" y="235"/>
    </contour>
  </outline>
</glyph>
<glyph name="H.1" format="2">
  <advance width="826"/>
  <outline>
    <contour>
      <point x="348" y="746" type="qcurve"/>
      <point x="352" y="755"/>
      <point x="357" y="761" type="qcurve"/>
      <point x="354" y="752"/>
    </contour>
    <contour>
      <point x="343" y="310" type="qcurve"/>
      <point x="334" y="482"/>
      <point x="334" y="532" type="qcurve"/>
      <point x="334" y="570"/>
      <point x="336" y="604" type="qcurve"/>
      <point x="336" y="604"/>
      <point x="336" y="605" type="qcurve"/>
      <point x="334" y="621"/>
      <point x="334" y="643" type="qcurve"/>
      <point x="334" y="695"/>
      <point x="343" y="731" type="qcurve"/>
      <point x="368" y="743"/>
      <point x="368" y="772" type="qcurve"/>
      <point x="368" y="777"/>
      <point x="363" y="777" type="qcurve"/>
      <point x="362" y="777"/>
      <point x="361" y="777" type="qcurve"/>
      <point x="344" y="770"/>
      <point x="335" y="738" type="qcurve"/>
      <point x="327" y="735"/>
      <point x="317" y="735" type="qcurve"/>
      <point x="279" y="735"/>
      <point x="218" y="765" type="qcurve"/>
      <point x="154" y="797"/>
      <point x="113" y="797" type="qcurve"/>
      <point x="106" y="797"/>
      <point x="99" y="796" type="qcurve"/>
      <point x="92" y="794"/>
      <point x="85" y="791" type="qcurve"/>
      <point x="78" y="788"/>
      <point x="74" y="787" type="qcurve"/>
      <point x="70" y="786"/>
      <point x="70" y="782" type="qcurve"/>
      <point x="70" y="716" type="line"/>
      <point x="70" y="716"/>
      <point x="70" y="715" type="qcurve"/>
      <point x="80" y="665" type="line"/>
      <point x="81" y="661"/>
      <point x="85" y="661" type="qcurve"/>
      <point x="90" y="661"/>
      <point x="90" y="666" type="qcurve"/>
      <point x="90" y="666"/>
      <point x="90" y="667" type="qcurve"/>
      <point x="80" y="716" type="line"/>
      <point x="80" y="778" type="line"/>
      <point x="107" y="787"/>
      <point x="113" y="787" type="qcurve"/>
      <point x="152" y="787"/>
      <point x="215" y="756" type="qcurve"/>
      <point x="277" y="725"/>
      <point x="317" y="725" type="qcurve"/>
      <point x="325" y="725"/>
      <point x="332" y="727" type="qcurve"/>
      <point x="324" y="691"/>
      <point x="324" y="643" type="qcurve"/>
      <point x="324" y="621"/>
      <point x="326" y="604" type="qcurve"/>
      <point x="324" y="570"/>
      <point x="324" y="532" type="qcurve"/>
      <point x="324" y="486"/>
      <point x="333" y="302" type="qcurve"/>
      <point x="269" y="248"/>
      <point x="229" y="198" type="qcurve"/>
      <point x="188" y="148"/>
      <point x="172" y="87" type="qcurve"/>
      <point x="171" y="82"/>
      <point x="171" y="74" type="qcurve"/>
      <point x="171" y="43"/>
      <point x="200" y="22" type="qcurve"/>
      <point x="229" y="0"/>
      <point x="261" y="-1" type="qcurve"/>
      <point x="347" y="-1"/>
      <point x="347" y="177" type="qcurve"/>
      <point x="347" y="220"/>
      <point x="343" y="297" type="qcurve"/>
      <point x="359" y="310"/>
      <point x="399" y="342" type="qcurve"/>
      <point x="439" y="374"/>
      <point x="460" y="392" type="qcurve"/>
      <point x="481" y="410"/>
      <point x="511" y="439" type="qcurve"/>
      <point x="540" y="468"/>
      <point x="560" y="495" type="qcurve"/>
      <point x="560" y="493"/>
      <point x="560" y="492" type="qcurve"/>
      <point x="574" y="449"/>
      <point x="576" y="330" type="qcurve"/>
      <point x="576" y="296"/>
      <point x="577" y="280" type="qcurve"/>
      <point x="577" y="264"/>
      <point x="579" y="232" type="qcurve"/>
      <point x="581" y="200"/>
      <point x="585" y="183" type="qcurve"/>
      <point x="588" y="166"/>
      <point x="596" y="141" type="qcurve"/>
      <point x="603" y="116"/>
      <point x="613" y="101" type="qcurve"/>
      <point x="623" y="86"/>
      <point x="639" y="72" type="qcurve"/>
      <point x="655" y="58"/>
      <point x="675" y="49" type="qcurve"/>
      <point x="679" y="48"/>
      <point x="695" y="40" type="qcurve"/>
      <point x="711" y="32"/>
      <point x="725" y="25" type="qcurve"/>
      <point x="739" y="17"/>
      <point x="739" y="17" type="qcurve"/>
      <point x="746" y="15"/>
      <point x="747" y="15" type="qcurve"/>
      <point x="752" y="15"/>
      <point x="752" y="20" type="qcurve"/>
      <point x="752" y="24"/>
      <point x="743" y="27" type="qcurve"/>
      <point x="688" y="55"/>
      <point x="679" y="59" type="qcurve"/>
      <point x="657" y="67"/>
      <point x="641" y="82" type="qcurve"/>
      <point x="625" y="97"/>
      <point x="615" y="120" type="qcurve"/>
      <point x="605" y="143"/>
      <point x="599" y="164" type="qcurve"/>
      <point x="593" y="184"/>
      <point x="591" y="217" type="qcurve"/>
      <point x="588" y="250"/>
      <point x="587" y="271" type="qcurve"/>
      <point x="586" y="292"/>
      <point x="586" y="330" type="qcurve"/>
      <point x="584" y="450"/>
      <point x="570" y="495" type="qcurve"/>
      <point x="569" y="501"/>
      <point x="569" y="507" type="qcurve"/>
      <point x="626" y="590"/>
      <point x="626" y="686" type="qcurve"/>
      <point x="626" y="717"/>
      <point x="620" y="751" type="qcurve"/>
      <point x="620" y="752"/>
      <point x="620" y="758" type="qcurve"/>
      <point x="620" y="771"/>
      <point x="619" y="777" type="qcurve"/>
      <point x="617" y="789"/>
      <point x="609" y="789" type="qcurve"/>
      <point x="596" y="789"/>
      <point x="586" y="773" type="qcurve"/>
      <point x="576" y="757"/>
      <point x="568" y="727" type="qcurve"/>
      <point x="552" y="668"/>
      <point x="552" y="628" type="qcurve"/>
      <point x="551" y="617"/>
      <point x="551" y="605" type="qcurve"/>
      <point x="551" y="579"/>
      <point x="558" y="510" type="qcurve"/>
      <point x="539" y="483"/>
      <point x="510" y="453" type="qcurve"/>
      <point x="480" y="422"/>
      <point x="462" y="407" type="qcurve"/>
      <point x="444" y="391"/>
      <point x="398" y="354" type="qcurve"/>
      <point x="351" y="317"/>
    </contour>
    <contour>
      <point x="608" y="779" type="qcurve"/>
      <point x="610" y="774"/>
      <point x="610" y="757" type="qcurve"/>
      <point x="610" y="756" type="line"/>
      <point x="610" y="751"/>
      <point x="610" y="749" type="qcurve"/>
      <point x="616" y="716"/>
      <point x="616" y="686" type="qcurve"/>
      <point x="616" y="598"/>
      <point x="567" y="523" type="qcurve"/>
      <point x="561" y="578"/>
      <point x="561" y="605" type="qcurve"/>
      <point x="561" y="609"/>
      <point x="562" y="617" type="qcurve"/>
      <point x="562" y="624"/>
      <point x="562" y="628" type="qcurve"/>
      <point x="562" y="666"/>
      <point x="578" y="724" type="qcurve"/>
      <point x="585" y="753"/>
      <point x="595" y="767" type="qcurve"/>
      <point x="601" y="778"/>
    </contour>
    <contour>
      <point x="334" y="289" type="qcurve"/>
      <point x="337" y="217"/>
      <point x="337" y="177" type="qcurve"/>
      <point x="337" y="9"/>
      <point x="261" y="9" type="qcurve"/>
      <point x="233" y="10"/>
      <point x="207" y="30" type="qcurve"/>
      <point x="181" y="49"/>
      <point x="181" y="74" type="qcurve"/>
      <point x="181" y="80"/>
      <point x="182" y="85" type="qcurve"/>
      <point x="197" y="142"/>
      <point x="235" y="190" type="qcurve"/>
      <point x="273" y="238"/>
    </contour>
  </outline>
</glyph>
<glyph name="I.0" format="2">
  <advance width="330"/>
  <outline>
    <contour>
      <point x="277" y="144" type="qcurve"/>
      <point x="277" y="86"/>
      <point x="245" y="39" type="qcurve"/>
      <point x="231" y="31"/>
      <point x="217" y="31" type="qcurve"/>
      <point x="209" y="31"/>
      <point x="200" y="34" type="qcurve"/>
      <point x="194" y="46" type="line"/>
      <point x="178" y="112" type="line"/>
      <point x="171" y="138"/>
      <point x="144" y="138" type="qcurve"/>
      <point x="130" y="138"/>
      <point x="120" y="128" type="qcurve"/>
      <point x="110" y="118"/>
      <point x="110" y="104" type="qcurve"/>
      <point x="110" y="99"/>
      <point x="111" y="96" type="qcurve"/>
      <point x="123" y="46" type="line"/>
      <point x="133" y="25"/>
      <point x="146" y="12" type="qcurve"/>
      <point x="181" y="-24" type="line"/>
      <point x="197" y="-40"/>
      <point x="217" y="-40" type="qcurve"/>
      <point x="240" y="-40"/>
      <point x="263" y="-17" type="qcurve"/>
      <point x="299" y="18" type="line"/>
      <point x="320" y="39"/>
      <point x="334" y="74" type="qcurve"/>
      <point x="348" y="109"/>
      <point x="348" y="144" type="qcurve"/>
      <point x="348" y="262"/>
      <point x="300" y="488" type="qcurve"/>
      <point x="254" y="710"/>
      <point x="254" y="822" type="qcurve"/>
      <point x="254" y="824" type="line"/>
      <point x="218" y="859" type="line"/>
      <point x="178" y="854"/>
      <point x="140" y="816" type="qcurve"/>
      <point x="105" y="780" type="line"/>
      <point x="55" y="730"/>
      <point x="55" y="677" type="qcurve"/>
      <point x="55" y="642"/>
      <point x="80" y="617" type="qcurve"/>
      <point x="115" y="581" type="line"/>
      <point x="116" y="580"/>
      <point x="118" y="579" type="qcurve"/>
      <point x="119" y="578"/>
      <point x="120" y="577" type="qcurve"/>
      <point x="211" y="577" type="line"/>
      <point x="216" y="554"/>
      <point x="232" y="477" type="qcurve"/>
      <point x="248" y="399"/>
      <point x="255" y="361" type="qcurve"/>
      <point x="262" y="322"/>
      <point x="270" y="259" type="qcurve"/>
      <point x="277" y="196"/>
    </contour>
    <contour>
      <point x="126" y="677" type="qcurve"/>
      <point x="126" y="718"/>
      <point x="159" y="761" type="qcurve"/>
      <point x="175" y="773"/>
      <point x="184" y="777" type="qcurve"/>
      <point x="186" y="724"/>
      <point x="199" y="647" type="qcurve"/>
      <point x="131" y="647" type="line"/>
      <point x="126" y="662"/>
    </contour>
  </outline>
</glyph>
<glyph name="J.0" format="2">
  <advance width="420"/>
  <outline>
    <contour>
      <point x="318" y="299" type="qcurve"/>
      <point x="381" y="379"/>
      <point x="387" y="388" type="qcurve"/>
      <point x="390" y="391"/>
      <point x="391" y="394" type="qcurve"/>
      <point x="415" y="466" type="line"/>
      <point x="416" y="470"/>
      <point x="416" y="474" type="qcurve"/>
      <point x="416" y="484"/>
      <point x="409" y="492" type="qcurve"/>
      <point x="401" y="499"/>
      <point x="391" y="499" type="qcurve"/>
      <point x="373" y="499"/>
      <point x="367" y="482" type="qcurve"/>
      <point x="344" y="414" type="line"/>
      <point x="338" y="404"/>
      <point x="318" y="379" type="qcurve"/>
      <point x="318" y="380"/>
      <point x="318" y="381" type="qcurve"/>
      <point x="318" y="382"/>
      <point x="318" y="382" type="qcurve"/>
      <point x="318" y="443"/>
      <point x="291" y="555" type="qcurve"/>
      <point x="266" y="662"/>
      <point x="266" y="717" type="qcurve"/>
      <point x="266" y="720"/>
      <point x="266" y="727" type="qcurve"/>
      <point x="266" y="733"/>
      <point x="266" y="736" type="qcurve"/>
      <point x="266" y="739"/>
      <point x="265" y="742" type="qcurve"/>
      <point x="265" y="745"/>
      <point x="264" y="754" type="qcurve"/>
      <point x="262" y="763"/>
      <point x="261" y="775" type="qcurve"/>
      <point x="260" y="786"/>
      <point x="259" y="790" type="qcurve"/>
      <point x="255" y="817"/>
      <point x="233" y="817" type="qcurve"/>
      <point x="223" y="817"/>
      <point x="215" y="810" type="qcurve"/>
      <point x="208" y="802"/>
      <point x="208" y="786" type="qcurve"/>
      <point x="208" y="781"/>
      <point x="208" y="772" type="qcurve"/>
      <point x="208" y="771"/>
      <point x="207" y="768" type="qcurve"/>
      <point x="204" y="757"/>
      <point x="204" y="748" type="qcurve"/>
      <point x="204" y="734"/>
      <point x="182" y="712" type="qcurve"/>
      <point x="176" y="705"/>
      <point x="161" y="692" type="qcurve"/>
      <point x="146" y="679"/>
      <point x="139" y="672" type="qcurve"/>
      <point x="100" y="633"/>
      <point x="100" y="594" type="qcurve"/>
      <point x="100" y="565"/>
      <point x="114" y="532" type="qcurve"/>
      <point x="127" y="502"/>
      <point x="146" y="483" type="qcurve"/>
      <point x="170" y="458"/>
      <point x="200" y="457" type="qcurve"/>
      <point x="204" y="456"/>
      <point x="209" y="456" type="qcurve"/>
      <point x="229" y="456"/>
      <point x="251" y="478" type="qcurve"/>
      <point x="254" y="481"/>
      <point x="256" y="483" type="qcurve"/>
      <point x="268" y="425"/>
      <point x="268" y="382" type="qcurve"/>
      <point x="268" y="352"/>
      <point x="268" y="316" type="qcurve"/>
      <point x="207" y="237"/>
      <point x="173" y="189" type="qcurve"/>
      <point x="145" y="149"/>
      <point x="131" y="123" type="qcurve"/>
      <point x="123" y="110"/>
      <point x="120" y="100" type="qcurve"/>
      <point x="116" y="89"/>
      <point x="116" y="80" type="qcurve"/>
      <point x="116" y="64"/>
      <point x="126" y="46" type="qcurve"/>
      <point x="136" y="26"/>
      <point x="154" y="9" type="qcurve"/>
      <point x="169" y="-6"/>
      <point x="184" y="-14" type="qcurve"/>
      <point x="200" y="-23"/>
      <point x="215" y="-23" type="qcurve"/>
      <point x="254" y="-23"/>
      <point x="288" y="11" type="qcurve"/>
      <point x="314" y="38"/>
      <point x="318" y="67" type="qcurve"/>
      <point x="318" y="69"/>
      <point x="319" y="72" type="qcurve"/>
      <point x="319" y="75"/>
      <point x="320" y="78" type="qcurve"/>
      <point x="320" y="80"/>
      <point x="320" y="84" type="qcurve"/>
      <point x="320" y="103"/>
    </contour>
    <contour>
      <point x="270" y="85" type="qcurve"/>
      <point x="268" y="75"/>
      <point x="268" y="72" type="qcurve"/>
      <point x="266" y="60"/>
      <point x="253" y="47" type="qcurve"/>
      <point x="233" y="27"/>
      <point x="215" y="27" type="qcurve"/>
      <point x="212" y="27"/>
      <point x="206" y="31" type="qcurve"/>
      <point x="184" y="44"/>
      <point x="170" y="69" type="qcurve"/>
      <point x="167" y="76"/>
      <point x="166" y="80" type="qcurve"/>
      <point x="168" y="86" type="line"/>
      <point x="179" y="112"/>
      <point x="227" y="178" type="qcurve"/>
      <point x="242" y="199"/>
      <point x="269" y="235" type="qcurve"/>
      <point x="270" y="135"/>
    </contour>
    <contour>
      <point x="217" y="676" type="qcurve"/>
      <point x="221" y="632"/>
      <point x="245" y="533" type="qcurve"/>
      <point x="232" y="530"/>
      <point x="216" y="514" type="qcurve"/>
      <point x="211" y="509"/>
      <point x="208" y="507" type="qcurve"/>
      <point x="205" y="507"/>
      <point x="203" y="507" type="qcurve"/>
      <point x="192" y="507"/>
      <point x="181" y="518" type="qcurve"/>
      <point x="169" y="530"/>
      <point x="160" y="551" type="qcurve"/>
      <point x="150" y="576"/>
      <point x="150" y="594" type="qcurve"/>
      <point x="150" y="612"/>
      <point x="174" y="636" type="qcurve"/>
      <point x="181" y="643"/>
      <point x="196" y="656" type="qcurve"/>
      <point x="211" y="669"/>
    </contour>
  </outline>
</glyph>
<glyph name="K.0" format="2">
  <advance width="896"/>
  <outline>
    <contour>
      <point x="90" y="707" type="qcurve"/>
      <point x="138" y="707" type="line"/>
      <point x="186" y="707"/>
      <point x="234" y="727" type="qcurve"/>
      <point x="243" y="636"/>
      <point x="243" y="523" type="qcurve"/>
      <point x="243" y="296"/>
      <point x="210" y="148" type="qcurve"/>
      <point x="162" y="46"/>
      <point x="137" y="-4" type="qcurve"/>
      <point x="172" y="-39" type="line"/>
      <point x="180" y="-33"/>
      <point x="184" y="-29" type="qcurve"/>
      <point x="220" y="6" type="line"/>
      <point x="255" y="41"/>
      <point x="280" y="148" type="qcurve"/>
      <point x="329" y="251"/>
      <point x="375" y="326" type="qcurve"/>
      <point x="397" y="244"/>
      <point x="481" y="160" type="qcurve"/>
      <point x="516" y="124" type="line"/>
      <point x="574" y="66"/>
      <point x="644" y="31" type="qcurve"/>
      <point x="713" y="-5"/>
      <point x="782" y="-5" type="qcurve"/>
      <point x="796" y="-5"/>
      <point x="804" y="3" type="qcurve"/>
      <point x="840" y="39" type="line"/>
      <point x="846" y="45"/>
      <point x="853" y="62" type="qcurve"/>
      <point x="859" y="78"/>
      <point x="863" y="83" type="qcurve"/>
      <point x="868" y="87" type="line"/>
      <point x="875" y="94"/>
      <point x="875" y="105" type="qcurve"/>
      <point x="875" y="116"/>
      <point x="868" y="124" type="qcurve"/>
      <point x="860" y="131"/>
      <point x="850" y="131" type="qcurve"/>
      <point x="842" y="131"/>
      <point x="832" y="123" type="qcurve"/>
      <point x="797" y="88" type="line"/>
      <point x="792" y="83"/>
      <point x="784" y="65" type="qcurve"/>
      <point x="782" y="65" type="line"/>
      <point x="717" y="65"/>
      <point x="651" y="96" type="qcurve"/>
      <point x="585" y="127"/>
      <point x="534" y="178" type="qcurve"/>
      <point x="490" y="222"/>
      <point x="465" y="273" type="qcurve"/>
      <point x="440" y="324"/>
      <point x="440" y="366" type="qcurve"/>
      <point x="440" y="371" type="line"/>
      <point x="448" y="371" type="line"/>
      <point x="510" y="371"/>
      <point x="571" y="394" type="qcurve"/>
      <point x="631" y="416"/>
      <point x="671" y="456" type="qcurve"/>
      <point x="707" y="491" type="line"/>
      <point x="761" y="545"/>
      <point x="761" y="618" type="qcurve"/>
      <point x="761" y="664"/>
      <point x="742" y="706" type="qcurve"/>
      <point x="706" y="741" type="line"/>
      <point x="690" y="741"/>
      <point x="640" y="691" type="qcurve"/>
      <point x="605" y="656" type="line"/>
      <point x="577" y="628"/>
      <point x="527" y="574" type="qcurve"/>
      <point x="524" y="571" type="line"/>
      <point x="488" y="545"/>
      <point x="455" y="512" type="qcurve"/>
      <point x="420" y="476" type="line"/>
      <point x="359" y="415"/>
      <point x="306" y="330" type="qcurve"/>
      <point x="314" y="431"/>
      <point x="314" y="523" type="qcurve"/>
      <point x="314" y="666"/>
      <point x="300" y="776" type="qcurve"/>
      <point x="264" y="811" type="line"/>
      <point x="246" y="802" type="line"/>
      <point x="229" y="794"/>
      <point x="198" y="786" type="qcurve"/>
      <point x="166" y="777"/>
      <point x="138" y="777" type="qcurve"/>
      <point x="90" y="777" type="line"/>
      <point x="75" y="777"/>
      <point x="65" y="767" type="qcurve"/>
      <point x="55" y="757"/>
      <point x="55" y="742" type="qcurve"/>
      <point x="55" y="727"/>
      <point x="65" y="717" type="qcurve"/>
      <point x="75" y="707"/>
    </contour>
    <contour>
      <point x="691" y="618" type="qcurve"/>
      <point x="691" y="559"/>
      <point x="652" y="510" type="qcurve"/>
      <point x="572" y="445"/>
      <point x="458" y="442" type="qcurve"/>
      <point x="463" y="448"/>
      <point x="473" y="458" type="qcurve"/>
      <point x="502" y="485"/>
      <point x="524" y="501" type="qcurve"/>
      <point x="532" y="507"/>
      <point x="541" y="516" type="qcurve"/>
      <point x="576" y="551" type="line"/>
      <point x="589" y="564"/>
      <point x="620" y="596" type="qcurve"/>
      <point x="650" y="628"/>
      <point x="657" y="636" type="qcurve"/>
      <point x="677" y="655"/>
      <point x="686" y="661" type="qcurve"/>
      <point x="691" y="636"/>
    </contour>
  </outline>
</glyph>
<glyph name="K.1" format="2">
  <advance width="896"/>
  <outline>
    <contour>
      <point x="228" y="739" type="qcurve"/>
      <point x="238" y="641"/>
      <point x="238" y="523" type="qcurve"/>
      <point x="238" y="302"/>
      <point x="206" y="156" type="qcurve"/>
      <point x="141" y="20"/>
      <point x="135" y="7" type="qcurve"/>
      <point x="132" y="2"/>
      <point x="132" y="-4" type="qcurve"/>
      <point x="132" y="-14"/>
      <point x="140" y="-21" type="qcurve"/>
      <point x="147" y="-29"/>
      <point x="157" y="-29" type="qcurve"/>
      <point x="164" y="-29"/>
      <point x="171" y="-25" type="qcurve"/>
      <point x="179" y="-20"/>
      <point x="187" y="-12" type="qcurve"/>
      <point x="228" y="29"/>
      <point x="253" y="139" type="qcurve"/>
      <point x="316" y="270"/>
      <point x="365" y="345" type="qcurve"/>
      <point x="368" y="324"/>
      <point x="377" y="300" type="qcurve"/>
      <point x="406" y="220"/>
      <point x="483" y="142" type="qcurve"/>
      <point x="544" y="81"/>
      <point x="618" y="43" type="qcurve"/>
      <point x="692" y="5"/>
      <point x="767" y="5" type="qcurve"/>
      <point x="791" y="5"/>
      <point x="807" y="21" type="qcurve"/>
      <point x="817" y="31"/>
      <point x="827" y="55" type="qcurve"/>
      <point x="832" y="68"/>
      <point x="834" y="70" type="qcurve"/>
      <point x="842" y="77"/>
      <point x="842" y="88" type="qcurve"/>
      <point x="842" y="98"/>
      <point x="835" y="106" type="qcurve"/>
      <point x="827" y="113"/>
      <point x="817" y="113" type="qcurve"/>
      <point x="797" y="113"/>
      <point x="781" y="74" type="qcurve"/>
      <point x="775" y="60"/>
      <point x="771" y="56" type="qcurve"/>
      <point x="770" y="55"/>
      <point x="767" y="55" type="qcurve"/>
      <point x="705" y="55"/>
      <point x="639" y="89" type="qcurve"/>
      <point x="573" y="123"/>
      <point x="519" y="177" type="qcurve"/>
      <point x="449" y="247"/>
      <point x="424" y="317" type="qcurve"/>
      <point x="414" y="344"/>
      <point x="414" y="366" type="qcurve"/>
      <point x="414" y="374"/>
      <point x="416" y="382" type="qcurve"/>
      <point x="424" y="381"/>
      <point x="433" y="381" type="qcurve"/>
      <point x="500" y="381"/>
      <point x="565" y="405" type="qcurve"/>
      <point x="629" y="429"/>
      <point x="674" y="473" type="qcurve"/>
      <point x="714" y="514"/>
      <point x="729" y="566" type="qcurve"/>
      <point x="736" y="591"/>
      <point x="736" y="618" type="qcurve"/>
      <point x="736" y="666"/>
      <point x="714" y="716" type="qcurve"/>
      <point x="707" y="731"/>
      <point x="691" y="731" type="qcurve"/>
      <point x="682" y="731"/>
      <point x="672" y="726" type="qcurve"/>
      <point x="663" y="722"/>
      <point x="653" y="714" type="qcurve"/>
      <point x="635" y="701"/>
      <point x="607" y="674" type="qcurve"/>
      <point x="588" y="654"/>
      <point x="548" y="612" type="qcurve"/>
      <point x="519" y="580"/>
      <point x="508" y="569" type="qcurve"/>
      <point x="498" y="559"/>
      <point x="494" y="556" type="qcurve"/>
      <point x="456" y="528"/>
      <point x="422" y="494" type="qcurve"/>
      <point x="345" y="417"/>
      <point x="278" y="297" type="qcurve"/>
      <point x="288" y="404"/>
      <point x="288" y="523" type="qcurve"/>
      <point x="288" y="667"/>
      <point x="274" y="779" type="qcurve"/>
      <point x="273" y="788"/>
      <point x="266" y="795" type="qcurve"/>
      <point x="258" y="801"/>
      <point x="249" y="801" type="qcurve"/>
      <point x="243" y="801"/>
      <point x="237" y="798" type="qcurve"/>
      <point x="221" y="790" type="line"/>
      <point x="204" y="783"/>
      <point x="176" y="775" type="qcurve"/>
      <point x="147" y="767"/>
      <point x="123" y="767" type="qcurve"/>
      <point x="75" y="767" type="line"/>
      <point x="65" y="767"/>
      <point x="58" y="760" type="qcurve"/>
      <point x="50" y="752"/>
      <point x="50" y="742" type="qcurve"/>
      <point x="50" y="732"/>
      <point x="58" y="725" type="qcurve"/>
      <point x="65" y="717"/>
      <point x="75" y="717" type="qcurve"/>
      <point x="123" y="717" type="line"/>
      <point x="171" y="717"/>
    </contour>
    <contour>
      <point x="686" y="618" type="qcurve"/>
      <point x="686" y="598"/>
      <point x="680" y="579" type="qcurve"/>
      <point x="662" y="512"/>
      <point x="589" y="472" type="qcurve"/>
      <point x="515" y="431"/>
      <point x="432" y="431" type="qcurve"/>
      <point x="475" y="480"/>
      <point x="524" y="516" type="qcurve"/>
      <point x="531" y="521"/>
      <point x="543" y="533" type="qcurve"/>
      <point x="558" y="548"/>
      <point x="593" y="585" type="qcurve"/>
      <point x="627" y="622"/>
      <point x="643" y="638" type="qcurve"/>
      <point x="664" y="659"/>
      <point x="678" y="670" type="qcurve"/>
      <point x="686" y="643"/>
    </contour>
  </outline>
</glyph>
<glyph name="M.0" format="2">
  <advance width="794"/>
  <outline>
    <contour>
      <point x="632" y="748" type="qcurve"/>
      <point x="632" y="781"/>
      <point x="624" y="789" type="qcurve"/>
      <point x="589" y="824" type="line"/>
      <point x="587" y="826"/>
      <point x="584" y="826" type="qcurve"/>
      <point x="580" y="826"/>
      <point x="574" y="820" type="qcurve"/>
      <point x="538" y="785" type="line"/>
      <point x="514" y="761"/>
      <point x="475" y="663" type="qcurve"/>
      <point x="436" y="565"/>
      <point x="411" y="473" type="qcurve"/>
      <point x="314" y="667"/>
      <point x="314" y="806" type="qcurve"/>
      <point x="314" y="812" type="line"/>
      <point x="243" y="812" type="line"/>
      <point x="228" y="725"/>
      <point x="226" y="541" type="qcurve"/>
      <point x="225" y="455"/>
      <point x="223" y="408" type="qcurve"/>
      <point x="220" y="361"/>
      <point x="212" y="290" type="qcurve"/>
      <point x="203" y="219"/>
      <point x="183" y="163" type="qcurve"/>
      <point x="162" y="107"/>
      <point x="128" y="58" type="qcurve"/>
      <point x="127" y="61"/>
      <point x="125" y="80" type="qcurve"/>
      <point x="123" y="94"/>
      <point x="113" y="103" type="qcurve"/>
      <point x="103" y="112"/>
      <point x="90" y="112" type="qcurve"/>
      <point x="76" y="112"/>
      <point x="66" y="102" type="qcurve"/>
      <point x="55" y="91"/>
      <point x="55" y="77" type="qcurve"/>
      <point x="55" y="74" type="line"/>
      <point x="60" y="24"/>
      <point x="80" y="4" type="qcurve"/>
      <point x="116" y="-31" type="line"/>
      <point x="118" y="-33" type="line"/>
      <point x="154" y="2" type="line"/>
      <point x="194" y="44"/>
      <point x="222" y="97" type="qcurve"/>
      <point x="249" y="150"/>
      <point x="264" y="196" type="qcurve"/>
      <point x="278" y="241"/>
      <point x="286" y="310" type="qcurve"/>
      <point x="293" y="378"/>
      <point x="295" y="421" type="qcurve"/>
      <point x="296" y="463"/>
      <point x="297" y="541" type="qcurve"/>
      <point x="297" y="565" type="line"/>
      <point x="316" y="520"/>
      <point x="393" y="372" type="qcurve"/>
      <point x="464" y="372" type="line"/>
      <point x="464" y="377" type="line"/>
      <point x="464" y="416"/>
      <point x="495" y="517" type="qcurve"/>
      <point x="526" y="617"/>
      <point x="561" y="698" type="qcurve"/>
      <point x="558" y="491"/>
      <point x="558" y="489" type="qcurve"/>
      <point x="558" y="337"/>
      <point x="579" y="228" type="qcurve"/>
      <point x="599" y="118"/>
      <point x="657" y="40" type="qcurve"/>
      <point x="725" y="-39" type="line"/>
      <point x="732" y="-48"/>
      <point x="746" y="-48" type="qcurve"/>
      <point x="757" y="-48"/>
      <point x="765" y="-40" type="qcurve"/>
      <point x="772" y="-32"/>
      <point x="772" y="-21" type="qcurve"/>
      <point x="772" y="-12"/>
      <point x="766" y="-4" type="qcurve"/>
      <point x="728" y="40" type="line"/>
      <point x="670" y="118"/>
      <point x="650" y="228" type="qcurve"/>
      <point x="629" y="337"/>
      <point x="629" y="489" type="qcurve"/>
      <point x="629" y="532"/>
      <point x="631" y="619" type="qcurve"/>
      <point x="632" y="705"/>
    </contour>
  </outline>
</glyph>
<glyph name="N.1" format="2">
  <advance width="660"/>
  <outline>
    <contour>
      <point x="186" y="172" type="qcurve"/>
      <point x="185" y="196"/>
      <point x="181" y="252" type="qcurve"/>
      <point x="177" y="308"/>
      <point x="175" y="351" type="qcurve"/>
      <point x="172" y="393"/>
      <point x="172" y="429" type="qcurve"/>
      <point x="172" y="532"/>
      <point x="194" y="611" type="qcurve"/>
      <point x="216" y="689"/>
      <point x="273" y="751" type="qcurve"/>
      <point x="285" y="764"/>
      <point x="290" y="764" type="qcurve"/>
      <point x="294" y="764"/>
      <point x="294" y="748" type="qcurve"/>
      <point x="294" y="737"/>
      <point x="291" y="709" type="qcurve"/>
      <point x="287" y="681"/>
      <point x="287" y="670" type="qcurve"/>
      <point x="287" y="663"/>
      <point x="288" y="659" type="qcurve"/>
      <point x="300" y="608"/>
      <point x="300" y="538" type="qcurve"/>
      <point x="300" y="502"/>
      <point x="296" y="429" type="qcurve"/>
      <point x="291" y="355"/>
      <point x="291" y="319" type="qcurve"/>
      <point x="291" y="230"/>
      <point x="312" y="171" type="qcurve"/>
      <point x="315" y="160"/>
      <point x="343" y="94" type="qcurve"/>
      <point x="370" y="28"/>
      <point x="370" y="18" type="qcurve"/>
      <point x="370" y="13"/>
      <point x="375" y="13" type="qcurve"/>
      <point x="380" y="13"/>
      <point x="380" y="18" type="qcurve"/>
      <point x="386" y="83"/>
      <point x="399" y="153" type="qcurve"/>
      <point x="411" y="222"/>
      <point x="423" y="274" type="qcurve"/>
      <point x="434" y="326"/>
      <point x="456" y="400" type="qcurve"/>
      <point x="478" y="473"/>
      <point x="491" y="513" type="qcurve"/>
      <point x="503" y="553"/>
      <point x="530" y="634" type="qcurve"/>
      <point x="557" y="714"/>
      <point x="567" y="746" type="qcurve"/>
      <point x="585" y="769" type="line"/>
      <point x="586" y="770"/>
      <point x="586" y="772" type="qcurve"/>
      <point x="586" y="777"/>
      <point x="581" y="777" type="qcurve"/>
      <point x="579" y="777"/>
      <point x="577" y="775" type="qcurve"/>
      <point x="559" y="751" type="line"/>
      <point x="559" y="750"/>
      <point x="558" y="750" type="qcurve"/>
      <point x="550" y="725"/>
      <point x="516" y="622" type="qcurve"/>
      <point x="481" y="518"/>
      <point x="468" y="475" type="qcurve"/>
      <point x="455" y="432"/>
      <point x="432" y="348" type="qcurve"/>
      <point x="408" y="264"/>
      <point x="395" y="193" type="qcurve"/>
      <point x="381" y="121"/>
      <point x="373" y="46" type="qcurve"/>
      <point x="368" y="60"/>
      <point x="347" y="110" type="qcurve"/>
      <point x="325" y="162"/>
      <point x="322" y="173" type="qcurve"/>
      <point x="322" y="173"/>
      <point x="322" y="174" type="qcurve"/>
      <point x="301" y="232"/>
      <point x="301" y="319" type="qcurve"/>
      <point x="301" y="355"/>
      <point x="306" y="429" type="qcurve"/>
      <point x="310" y="502"/>
      <point x="310" y="538" type="qcurve"/>
      <point x="310" y="609"/>
      <point x="298" y="661" type="qcurve"/>
      <point x="297" y="665"/>
      <point x="297" y="670" type="qcurve"/>
      <point x="297" y="681"/>
      <point x="301" y="709" type="qcurve"/>
      <point x="304" y="737"/>
      <point x="304" y="748" type="qcurve"/>
      <point x="304" y="774"/>
      <point x="290" y="774" type="qcurve"/>
      <point x="281" y="774"/>
      <point x="265" y="757" type="qcurve"/>
      <point x="207" y="694"/>
      <point x="185" y="614" type="qcurve"/>
      <point x="162" y="533"/>
      <point x="162" y="429" type="qcurve"/>
      <point x="162" y="392"/>
      <point x="165" y="350" type="qcurve"/>
      <point x="167" y="308"/>
      <point x="171" y="252" type="qcurve"/>
      <point x="175" y="195"/>
      <point x="176" y="172" type="qcurve"/>
      <point x="176" y="164"/>
      <point x="177" y="148" type="qcurve"/>
      <point x="177" y="132"/>
      <point x="177" y="123" type="qcurve"/>
      <point x="177" y="97"/>
      <point x="175" y="78" type="qcurve"/>
      <point x="172" y="58"/>
      <point x="166" y="39" type="qcurve"/>
      <point x="159" y="19"/>
      <point x="145" y="8" type="qcurve"/>
      <point x="131" y="-3"/>
      <point x="109" y="-3" type="qcurve"/>
      <point x="99" y="-1"/>
      <point x="94" y="10" type="qcurve"/>
      <point x="89" y="20"/>
      <point x="86" y="38" type="qcurve"/>
      <point x="82" y="55"/>
      <point x="80" y="62" type="qcurve"/>
      <point x="78" y="65"/>
      <point x="75" y="65" type="qcurve"/>
      <point x="70" y="65"/>
      <point x="70" y="60" type="qcurve"/>
      <point x="70" y="59"/>
      <point x="70" y="58" type="qcurve"/>
      <point x="73" y="52"/>
      <point x="76" y="37" type="qcurve"/>
      <point x="79" y="22"/>
      <point x="81" y="15" type="qcurve"/>
      <point x="83" y="8"/>
      <point x="90" y="-1" type="qcurve"/>
      <point x="97" y="-11"/>
      <point x="108" y="-13" type="qcurve"/>
      <point x="109" y="-13"/>
      <point x="109" y="-13" type="qcurve"/>
      <point x="134" y="-13"/>
      <point x="151" y="0" type="qcurve"/>
      <point x="167" y="12"/>
      <point x="175" y="35" type="qcurve"/>
      <point x="182" y="57"/>
      <point x="185" y="77" type="qcurve"/>
      <point x="187" y="97"/>
      <point x="187" y="123" type="qcurve"/>
      <point x="187" y="132"/>
      <point x="187" y="148" type="qcurve"/>
      <point x="186" y="164"/>
    </contour>
  </outline>
</glyph>
<glyph name="P.0" format="2">
  <advance width="686"/>
  <outline>
    <contour>
      <point x="249" y="570" type="qcurve"/>
      <point x="249" y="494"/>
      <point x="294" y="449" type="qcurve"/>
      <point x="329" y="414" type="line"/>
      <point x="356" y="387"/>
      <point x="393" y="387" type="qcurve"/>
      <point x="438" y="387"/>
      <point x="487" y="408" type="qcurve"/>
      <point x="535" y="428"/>
      <point x="570" y="463" type="qcurve"/>
      <point x="605" y="499" type="line"/>
      <point x="658" y="552"/>
      <point x="658" y="614" type="qcurve"/>
      <point x="658" y="720"/>
      <point x="595" y="783" type="qcurve"/>
      <point x="560" y="818" type="line"/>
      <point x="487" y="891"/>
      <point x="349" y="891" type="qcurve"/>
      <point x="272" y="891"/>
      <point x="229" y="884" type="qcurve"/>
      <point x="186" y="876"/>
      <point x="161" y="851" type="qcurve"/>
      <point x="126" y="816" type="line"/>
      <point x="92" y="782"/>
      <point x="89" y="710" type="qcurve"/>
      <point x="89" y="691" type="line"/>
      <point x="89" y="614"/>
      <point x="117" y="548" type="qcurve"/>
      <point x="129" y="522" type="line"/>
      <point x="138" y="503"/>
      <point x="158" y="503" type="qcurve"/>
      <point x="172" y="503"/>
      <point x="182" y="513" type="qcurve"/>
      <point x="191" y="522"/>
      <point x="191" y="535" type="qcurve"/>
      <point x="191" y="542"/>
      <point x="188" y="548" type="qcurve"/>
      <point x="159" y="617"/>
      <point x="159" y="691" type="qcurve"/>
      <point x="159" y="694"/>
      <point x="160" y="701" type="qcurve"/>
      <point x="160" y="707"/>
      <point x="160" y="710" type="qcurve"/>
      <point x="163" y="764"/>
      <point x="181" y="796" type="qcurve"/>
      <point x="224" y="821"/>
      <point x="349" y="821" type="qcurve"/>
      <point x="468" y="821"/>
      <point x="541" y="764" type="qcurve"/>
      <point x="587" y="704"/>
      <point x="587" y="614" type="qcurve"/>
      <point x="587" y="563"/>
      <point x="551" y="517" type="qcurve"/>
      <point x="476" y="457"/>
      <point x="393" y="457" type="qcurve"/>
      <point x="368" y="457"/>
      <point x="348" y="469" type="qcurve"/>
      <point x="320" y="513"/>
      <point x="320" y="570" type="qcurve"/>
      <point x="320" y="571" type="line"/>
      <point x="332" y="581"/>
      <point x="332" y="598" type="qcurve"/>
      <point x="332" y="613"/>
      <point x="322" y="623" type="qcurve"/>
      <point x="312" y="633"/>
      <point x="297" y="633" type="qcurve"/>
      <point x="292" y="633"/>
      <point x="290" y="631" type="qcurve"/>
      <point x="254" y="595" type="line"/>
      <point x="249" y="590"/>
      <point x="249" y="574" type="qcurve"/>
      <point x="249" y="570"/>
    </contour>
    <contour>
      <point x="215" y="172" type="line"/>
      <point x="215" y="78"/>
      <point x="194" y="36" type="qcurve"/>
      <point x="182" y="32"/>
      <point x="175" y="32" type="qcurve"/>
      <point x="165" y="32"/>
      <point x="157" y="35" type="qcurve"/>
      <point x="142" y="61"/>
      <point x="134" y="69" type="qcurve"/>
      <point x="125" y="151" type="line"/>
      <point x="124" y="164"/>
      <point x="114" y="173" type="qcurve"/>
      <point x="104" y="182"/>
      <point x="90" y="182" type="qcurve"/>
      <point x="76" y="182"/>
      <point x="66" y="172" type="qcurve"/>
      <point x="55" y="161"/>
      <point x="55" y="147" type="qcurve"/>
      <point x="55" y="143" type="line"/>
      <point x="63" y="69" type="line"/>
      <point x="71" y="61"/>
      <point x="84" y="41" type="qcurve"/>
      <point x="96" y="20"/>
      <point x="104" y="12" type="qcurve"/>
      <point x="139" y="-23" type="line"/>
      <point x="154" y="-38"/>
      <point x="175" y="-38" type="qcurve"/>
      <point x="198" y="-38"/>
      <point x="214" y="-22" type="qcurve"/>
      <point x="250" y="13" type="line"/>
      <point x="286" y="49"/>
      <point x="286" y="172" type="qcurve"/>
      <point x="286" y="185" type="line"/>
      <point x="286" y="211"/>
      <point x="278" y="395" type="qcurve"/>
      <point x="276" y="672" type="line"/>
      <point x="276" y="686"/>
      <point x="266" y="697" type="qcurve"/>
      <point x="255" y="707"/>
      <point x="241" y="707" type="qcurve"/>
      <point x="226" y="707"/>
      <point x="216" y="697" type="qcurve"/>
      <point x="205" y="686"/>
      <point x="205" y="671" type="qcurve"/>
      <point x="207" y="395" type="line"/>
      <point x="207" y="364"/>
      <point x="211" y="294" type="qcurve"/>
      <point x="215" y="223"/>
      <point x="215" y="185" type="qcurve"/>
    </contour>
  </outline>
</glyph>
<glyph name="Q.1" format="2">
  <advance width="527"/>
  <outline>
    <contour>
      <point x="229" y="724" type="qcurve"/>
      <point x="232" y="724"/>
      <point x="238" y="724" type="qcurve"/>
      <point x="243" y="723"/>
      <point x="245" y="723" type="qcurve"/>
      <point x="247" y="723"/>
      <point x="249" y="723" type="qcurve"/>
      <point x="262" y="725"/>
      <point x="274" y="725" type="qcurve"/>
      <point x="324" y="725"/>
      <point x="358" y="691" type="qcurve"/>
      <point x="392" y="658"/>
      <point x="408" y="596" type="qcurve"/>
      <point x="422" y="546"/>
      <point x="422" y="487" type="qcurve"/>
      <point x="422" y="467"/>
      <point x="420" y="448" type="qcurve"/>
      <point x="420" y="447"/>
      <point x="420" y="446" type="qcurve"/>
      <point x="420" y="445"/>
      <point x="420" y="444" type="qcurve"/>
      <point x="422" y="420"/>
      <point x="422" y="395" type="qcurve"/>
      <point x="422" y="302"/>
      <point x="401" y="224" type="qcurve"/>
      <point x="370" y="106"/>
      <point x="299" y="55" type="qcurve"/>
      <point x="288" y="48"/>
      <point x="288" y="35" type="qcurve"/>
      <point x="288" y="32"/>
      <point x="289" y="28" type="qcurve"/>
      <point x="237" y="32"/>
      <point x="198" y="71" type="qcurve"/>
      <point x="151" y="119"/>
      <point x="124" y="213" type="qcurve"/>
      <point x="100" y="300"/>
      <point x="100" y="397" type="qcurve"/>
      <point x="100" y="405"/>
      <point x="101" y="419" type="qcurve"/>
      <point x="101" y="432"/>
      <point x="101" y="436" type="qcurve"/>
      <point x="102" y="545"/>
      <point x="112" y="598" type="qcurve"/>
      <point x="126" y="665"/>
      <point x="157" y="696" type="qcurve"/>
      <point x="184" y="724"/>
    </contour>
    <contour>
      <point x="386" y="-59" type="qcurve"/>
      <point x="386" y="-60"/>
      <point x="386" y="-60" type="qcurve"/>
      <point x="386" y="-61"/>
      <point x="386" y="-61" type="qcurve"/>
      <point x="386" y="-75"/>
      <point x="365" y="-99" type="qcurve"/>
      <point x="355" y="-110"/>
      <point x="350" y="-116" type="qcurve"/>
      <point x="291" y="-116" type="line"/>
      <point x="281" y="-116"/>
      <point x="274" y="-123" type="qcurve"/>
      <point x="266" y="-131"/>
      <point x="266" y="-141" type="qcurve"/>
      <point x="266" y="-151"/>
      <point x="274" y="-158" type="qcurve"/>
      <point x="281" y="-166"/>
      <point x="291" y="-166" type="qcurve"/>
      <point x="363" y="-166" type="line"/>
      <point x="378" y="-166"/>
      <point x="385" y="-154" type="qcurve"/>
      <point x="389" y="-147"/>
      <point x="402" y="-133" type="qcurve"/>
      <point x="412" y="-121"/>
      <point x="418" y="-114" type="qcurve"/>
      <point x="423" y="-107"/>
      <point x="430" y="-91" type="qcurve"/>
      <point x="436" y="-76"/>
      <point x="436" y="-59" type="qcurve"/>
      <point x="436" y="-44"/>
      <point x="429" y="-28" type="qcurve"/>
      <point x="421" y="-12"/>
      <point x="415" y="-5" type="qcurve"/>
      <point x="409" y="1"/>
      <point x="396" y="15" type="qcurve"/>
      <point x="385" y="26"/>
      <point x="381" y="32" type="qcurve"/>
      <point x="381" y="35"/>
      <point x="381" y="39" type="qcurve"/>
      <point x="381" y="50"/>
      <point x="377" y="60" type="qcurve"/>
      <point x="423" y="117"/>
      <point x="448" y="206" type="qcurve"/>
      <point x="472" y="294"/>
      <point x="472" y="395" type="qcurve"/>
      <point x="472" y="420"/>
      <point x="470" y="446" type="qcurve"/>
      <point x="472" y="466"/>
      <point x="472" y="488" type="qcurve"/>
      <point x="472" y="552"/>
      <point x="457" y="609" type="qcurve"/>
      <point x="436" y="684"/>
      <point x="394" y="726" type="qcurve"/>
      <point x="345" y="775"/>
      <point x="273" y="775" type="qcurve"/>
      <point x="259" y="775"/>
      <point x="245" y="773" type="qcurve"/>
      <point x="237" y="774"/>
      <point x="230" y="774" type="qcurve"/>
      <point x="164" y="774"/>
      <point x="121" y="731" type="qcurve"/>
      <point x="80" y="690"/>
      <point x="63" y="608" type="qcurve"/>
      <point x="60" y="592"/>
      <point x="58" y="574" type="qcurve"/>
      <point x="56" y="556"/>
      <point x="55" y="544" type="qcurve"/>
      <point x="53" y="531"/>
      <point x="53" y="510" type="qcurve"/>
      <point x="52" y="489"/>
      <point x="52" y="481" type="qcurve"/>
      <point x="51" y="472"/>
      <point x="51" y="448" type="qcurve"/>
      <point x="50" y="424"/>
      <point x="50" y="419" type="qcurve"/>
      <point x="50" y="408"/>
      <point x="50" y="396" type="qcurve"/>
      <point x="50" y="293"/>
      <point x="76" y="200" type="qcurve"/>
      <point x="106" y="93"/>
      <point x="163" y="36" type="qcurve"/>
      <point x="221" y="-22"/>
      <point x="300" y="-22" type="qcurve"/>
      <point x="327" y="-22"/>
      <point x="350" y="-9" type="qcurve"/>
      <point x="377" y="-39"/>
      <point x="379" y="-41" type="qcurve"/>
      <point x="386" y="-52"/>
    </contour>
  </outline>
</glyph>
<glyph name="R.0" format="2">
  <advance width="678"/>
  <outline>
    <contour>
      <point x="620" y="147" type="qcurve"/>
      <point x="598" y="147"/>
      <point x="590" y="128" type="qcurve"/>
      <point x="586" y="119"/>
      <point x="579" y="102" type="qcurve"/>
      <point x="572" y="84"/>
      <point x="568" y="75" type="qcurve"/>
      <point x="542" y="49" type="line"/>
      <point x="525" y="37"/>
      <point x="510" y="37" type="qcurve"/>
      <point x="493" y="37"/>
      <point x="476" y="47" type="qcurve"/>
      <point x="446" y="91"/>
      <point x="432" y="166" type="qcurve"/>
      <point x="425" y="200"/>
      <point x="422" y="266" type="qcurve"/>
      <point x="418" y="332"/>
      <point x="414" y="359" type="qcurve"/>
      <point x="456" y="377"/>
      <point x="490" y="411" type="qcurve"/>
      <point x="526" y="446" type="line"/>
      <point x="576" y="496"/>
      <point x="576" y="548" type="qcurve"/>
      <point x="576" y="659"/>
      <point x="514" y="721" type="qcurve"/>
      <point x="478" y="757" type="line"/>
      <point x="416" y="819"/>
      <point x="298" y="819" type="qcurve"/>
      <point x="278" y="821"/>
      <point x="271" y="821" type="qcurve"/>
      <point x="219" y="821"/>
      <point x="186" y="788" type="qcurve"/>
      <point x="151" y="753" type="line"/>
      <point x="128" y="730"/>
      <point x="114" y="690" type="qcurve"/>
      <point x="100" y="649"/>
      <point x="96" y="618" type="qcurve"/>
      <point x="92" y="586"/>
      <point x="89" y="538" type="qcurve"/>
      <point x="89" y="536" type="line"/>
      <point x="89" y="522"/>
      <point x="100" y="511" type="qcurve"/>
      <point x="110" y="500"/>
      <point x="124" y="500" type="qcurve"/>
      <point x="138" y="500"/>
      <point x="148" y="510" type="qcurve"/>
      <point x="158" y="520"/>
      <point x="159" y="534" type="qcurve"/>
      <point x="168" y="676"/>
      <point x="205" y="733" type="qcurve"/>
      <point x="234" y="751"/>
      <point x="271" y="751" type="qcurve"/>
      <point x="278" y="751"/>
      <point x="298" y="749" type="qcurve"/>
      <point x="397" y="749"/>
      <point x="459" y="702" type="qcurve"/>
      <point x="505" y="641"/>
      <point x="505" y="548" type="qcurve"/>
      <point x="505" y="508"/>
      <point x="472" y="465" type="qcurve"/>
      <point x="437" y="436"/>
      <point x="399" y="424" type="qcurve"/>
      <point x="396" y="435"/>
      <point x="392" y="444" type="qcurve"/>
      <point x="390" y="454"/>
      <point x="377" y="474" type="qcurve"/>
      <point x="364" y="494"/>
      <point x="351" y="507" type="qcurve"/>
      <point x="316" y="542" type="line"/>
      <point x="305" y="553"/>
      <point x="298" y="553" type="qcurve"/>
      <point x="295" y="553"/>
      <point x="294" y="552" type="qcurve"/>
      <point x="258" y="516" type="line"/>
      <point x="255" y="513"/>
      <point x="255" y="499" type="qcurve"/>
      <point x="255" y="437"/>
      <point x="299" y="393" type="qcurve"/>
      <point x="334" y="358" type="line"/>
      <point x="336" y="356"/>
      <point x="339" y="353" type="qcurve"/>
      <point x="342" y="350"/>
      <point x="344" y="349" type="qcurve"/>
      <point x="346" y="329"/>
      <point x="351" y="265" type="qcurve"/>
      <point x="355" y="200"/>
      <point x="361" y="166" type="qcurve"/>
      <point x="378" y="71"/>
      <point x="423" y="26" type="qcurve"/>
      <point x="458" y="-9" type="line"/>
      <point x="482" y="-33"/>
      <point x="510" y="-33" type="qcurve"/>
      <point x="534" y="-33"/>
      <point x="558" y="-9" type="qcurve"/>
      <point x="593" y="27" type="line"/>
      <point x="600" y="34"/>
      <point x="612" y="48" type="qcurve"/>
      <point x="638" y="74" type="line"/>
      <point x="650" y="102" type="line"/>
      <point x="652" y="106"/>
      <point x="652" y="115" type="qcurve"/>
      <point x="652" y="128"/>
      <point x="643" y="138" type="qcurve"/>
      <point x="634" y="147"/>
    </contour>
    <contour>
      <point x="306" y="258" type="qcurve"/>
      <point x="306" y="316"/>
      <point x="297" y="381" type="qcurve"/>
      <point x="287" y="446"/>
      <point x="272" y="523" type="qcurve"/>
      <point x="256" y="600"/>
      <point x="250" y="640" type="qcurve"/>
      <point x="252" y="652"/>
      <point x="252" y="659" type="qcurve"/>
      <point x="252" y="673"/>
      <point x="242" y="684" type="qcurve"/>
      <point x="231" y="694"/>
      <point x="217" y="694" type="qcurve"/>
      <point x="204" y="694"/>
      <point x="194" y="686" type="qcurve"/>
      <point x="184" y="677"/>
      <point x="182" y="664" type="qcurve"/>
      <point x="179" y="640" type="line"/>
      <point x="185" y="600"/>
      <point x="201" y="523" type="qcurve"/>
      <point x="216" y="446"/>
      <point x="226" y="381" type="qcurve"/>
      <point x="235" y="316"/>
      <point x="235" y="258" type="qcurve"/>
      <point x="235" y="246"/>
      <point x="236" y="221" type="qcurve"/>
      <point x="236" y="196"/>
      <point x="236" y="181" type="qcurve"/>
      <point x="236" y="70"/>
      <point x="212" y="23" type="qcurve"/>
      <point x="204" y="19"/>
      <point x="190" y="19" type="qcurve"/>
      <point x="171" y="19"/>
      <point x="146" y="34" type="qcurve"/>
      <point x="140" y="46"/>
      <point x="140" y="58" type="qcurve"/>
      <point x="138" y="58" type="line"/>
      <point x="153" y="75"/>
      <point x="165" y="89" type="qcurve"/>
      <point x="130" y="124" type="line"/>
      <point x="129" y="124" type="line"/>
      <point x="94" y="88" type="line"/>
      <point x="91" y="85"/>
      <point x="73" y="65" type="qcurve"/>
      <point x="55" y="45"/>
      <point x="55" y="44" type="qcurve"/>
      <point x="90" y="9" type="line"/>
      <point x="94" y="12" type="line"/>
      <point x="126" y="-20" type="line"/>
      <point x="157" y="-51"/>
      <point x="190" y="-51" type="qcurve"/>
      <point x="214" y="-51"/>
      <point x="231" y="-34" type="qcurve"/>
      <point x="266" y="1" type="line"/>
      <point x="307" y="42"/>
      <point x="307" y="181" type="qcurve"/>
      <point x="307" y="196"/>
      <point x="307" y="221" type="qcurve"/>
      <point x="306" y="246"/>
    </contour>
    <contour>
      <point x="67" y="55" type="qcurve"/>
      <point x="88" y="18" type="line"/>
      <point x="64" y="22"/>
      <point x="64" y="44" type="qcurve"/>
      <point x="64" y="46"/>
    </contour>
  </outline>
</glyph>
<glyph name="S.0" format="2">
  <advance width="586"/>
  <outline>
    <contour>
      <point x="426" y="716" type="qcurve"/>
      <point x="426" y="746"/>
      <point x="409" y="763" type="qcurve"/>
      <point x="374" y="798" type="line"/>
      <point x="353" y="819"/>
      <point x="302" y="819" type="qcurve"/>
      <point x="252" y="819"/>
      <point x="228" y="816" type="qcurve"/>
      <point x="204" y="812"/>
      <point x="191" y="799" type="qcurve"/>
      <point x="155" y="764" type="line"/>
      <point x="135" y="744"/>
      <point x="135" y="678" type="qcurve"/>
      <point x="135" y="569"/>
      <point x="216" y="488" type="qcurve"/>
      <point x="258" y="446"/>
      <point x="267" y="438" type="qcurve"/>
      <point x="216" y="339"/>
      <point x="199" y="268" type="qcurve"/>
      <point x="198" y="265"/>
      <point x="190" y="232" type="qcurve"/>
      <point x="182" y="198"/>
      <point x="180" y="191" type="qcurve"/>
      <point x="178" y="183"/>
      <point x="170" y="157" type="qcurve"/>
      <point x="161" y="130"/>
      <point x="156" y="118" type="qcurve"/>
      <point x="150" y="105"/>
      <point x="140" y="87" type="qcurve"/>
      <point x="130" y="68"/>
      <point x="119" y="54" type="qcurve"/>
      <point x="101" y="40"/>
      <point x="90" y="35" type="qcurve"/>
      <point x="55" y="0" type="line"/>
      <point x="55" y="-6" type="line"/>
      <point x="55" y="-21"/>
      <point x="65" y="-31" type="qcurve"/>
      <point x="75" y="-41"/>
      <point x="90" y="-41" type="qcurve"/>
      <point x="103" y="-41"/>
      <point x="113" y="-33" type="qcurve"/>
      <point x="123" y="-25"/>
      <point x="125" y="-12" type="qcurve"/>
      <point x="127" y="-10"/>
      <point x="132" y="-6" type="qcurve"/>
      <point x="136" y="-3"/>
      <point x="138" y="-1" type="qcurve"/>
      <point x="173" y="35" type="line"/>
      <point x="209" y="71"/>
      <point x="229" y="124" type="qcurve"/>
      <point x="246" y="35"/>
      <point x="285" y="-4" type="qcurve"/>
      <point x="321" y="-40" type="line"/>
      <point x="340" y="-59"/>
      <point x="362" y="-59" type="qcurve"/>
      <point x="420" y="-59"/>
      <point x="465" y="-14" type="qcurve"/>
      <point x="501" y="22" type="line"/>
      <point x="558" y="79"/>
      <point x="558" y="154" type="qcurve"/>
      <point x="558" y="254"/>
      <point x="482" y="330" type="qcurve"/>
      <point x="446" y="365" type="line"/>
      <point x="415" y="396"/>
      <point x="343" y="448" type="qcurve"/>
      <point x="372" y="503"/>
      <point x="385" y="532" type="qcurve"/>
      <point x="398" y="561"/>
      <point x="412" y="613" type="qcurve"/>
      <point x="426" y="665"/>
    </contour>
    <contour>
      <point x="355" y="716" type="qcurve"/>
      <point x="355" y="613"/>
      <point x="292" y="487" type="qcurve"/>
      <point x="271" y="505" type="line"/>
      <point x="206" y="580"/>
      <point x="206" y="678" type="qcurve"/>
      <point x="206" y="720"/>
      <point x="213" y="741" type="qcurve"/>
      <point x="236" y="749"/>
      <point x="302" y="749" type="qcurve"/>
      <point x="331" y="749"/>
      <point x="351" y="742" type="qcurve"/>
      <point x="355" y="728"/>
    </contour>
    <contour>
      <point x="301" y="168" type="qcurve"/>
      <point x="296" y="168" type="line"/>
      <point x="296" y="181"/>
      <point x="299" y="190" type="qcurve"/>
      <point x="302" y="191"/>
      <point x="309" y="191" type="qcurve"/>
      <point x="330" y="191"/>
      <point x="353" y="178" type="qcurve"/>
      <point x="360" y="164"/>
      <point x="360" y="152" type="qcurve"/>
      <point x="360" y="147"/>
      <point x="359" y="144" type="qcurve"/>
      <point x="335" y="146"/>
      <point x="318" y="161" type="qcurve"/>
      <point x="309" y="168"/>
    </contour>
    <contour>
      <point x="431" y="152" type="qcurve"/>
      <point x="431" y="175"/>
      <point x="409" y="197" type="qcurve"/>
      <point x="374" y="232" type="line"/>
      <point x="344" y="262"/>
      <point x="309" y="262" type="qcurve"/>
      <point x="289" y="262"/>
      <point x="277" y="250" type="qcurve"/>
      <point x="261" y="234" type="line"/>
      <point x="262" y="239"/>
      <point x="265" y="251" type="qcurve"/>
      <point x="268" y="262"/>
      <point x="270" y="268" type="qcurve"/>
      <point x="287" y="335"/>
      <point x="317" y="397" type="qcurve"/>
      <point x="413" y="324"/>
      <point x="427" y="312" type="qcurve"/>
      <point x="487" y="244"/>
      <point x="487" y="154" type="qcurve"/>
      <point x="487" y="94"/>
      <point x="447" y="41" type="qcurve"/>
      <point x="407" y="11"/>
      <point x="362" y="11" type="qcurve"/>
      <point x="350" y="11"/>
      <point x="339" y="17" type="qcurve"/>
      <point x="317" y="52"/>
      <point x="304" y="104" type="qcurve"/>
      <point x="318" y="91" type="line"/>
      <point x="324" y="86" type="line"/>
      <point x="329" y="82"/>
      <point x="341" y="78" type="qcurve"/>
      <point x="352" y="73"/>
      <point x="364" y="73" type="qcurve"/>
      <point x="378" y="81"/>
      <point x="382" y="85" type="qcurve"/>
      <point x="417" y="121" type="line"/>
      <point x="431" y="135"/>
    </contour>
  </outline>
</glyph>
<glyph name="S.1" format="2">
  <advance width="586"/>
  <outline>
    <contour>
      <point x="180" y="678" type="qcurve"/>
      <point x="180" y="713"/>
      <point x="185" y="730" type="qcurve"/>
      <point x="188" y="741"/>
      <point x="193" y="746" type="qcurve"/>
      <point x="199" y="752"/>
      <point x="215" y="755" type="qcurve"/>
      <point x="234" y="759"/>
      <point x="287" y="759" type="qcurve"/>
      <point x="327" y="759"/>
      <point x="341" y="745" type="qcurve"/>
      <point x="350" y="736"/>
      <point x="350" y="716" type="qcurve"/>
      <point x="350" y="652"/>
      <point x="333" y="600" type="qcurve"/>
      <point x="316" y="548"/>
      <point x="281" y="481" type="qcurve"/>
      <point x="266" y="493"/>
      <point x="254" y="505" type="qcurve"/>
      <point x="180" y="579"/>
    </contour>
    <contour>
      <point x="303" y="151" type="qcurve"/>
      <point x="293" y="151"/>
      <point x="286" y="144" type="qcurve"/>
      <point x="278" y="136"/>
      <point x="278" y="126" type="qcurve"/>
      <point x="278" y="115"/>
      <point x="286" y="108" type="qcurve"/>
      <point x="295" y="100"/>
      <point x="308" y="93" type="qcurve"/>
      <point x="328" y="83"/>
      <point x="349" y="83" type="qcurve"/>
      <point x="356" y="83"/>
      <point x="361" y="86" type="qcurve"/>
      <point x="375" y="94"/>
      <point x="384" y="103" type="qcurve"/>
      <point x="405" y="124"/>
      <point x="405" y="153" type="qcurve"/>
      <point x="405" y="162"/>
      <point x="403" y="170" type="qcurve"/>
      <point x="397" y="194"/>
      <point x="376" y="215" type="qcurve"/>
      <point x="339" y="252"/>
      <point x="294" y="252" type="qcurve"/>
      <point x="264" y="252"/>
      <point x="244" y="232" type="qcurve"/>
      <point x="237" y="225"/>
      <point x="232" y="216" type="qcurve"/>
      <point x="233" y="218"/>
      <point x="237" y="236" type="qcurve"/>
      <point x="241" y="253"/>
      <point x="243" y="262" type="qcurve"/>
      <point x="259" y="325"/>
      <point x="298" y="404" type="qcurve"/>
      <point x="304" y="399"/>
      <point x="322" y="387" type="qcurve"/>
      <point x="339" y="374"/>
      <point x="348" y="368" type="qcurve"/>
      <point x="356" y="361"/>
      <point x="370" y="351" type="qcurve"/>
      <point x="383" y="340"/>
      <point x="394" y="331" type="qcurve"/>
      <point x="404" y="321"/>
      <point x="413" y="312" type="qcurve"/>
      <point x="482" y="243"/>
      <point x="482" y="154" type="qcurve"/>
      <point x="482" y="124"/>
      <point x="469" y="93" type="qcurve"/>
      <point x="455" y="62"/>
      <point x="432" y="39" type="qcurve"/>
      <point x="394" y="1"/>
      <point x="347" y="1" type="qcurve"/>
      <point x="335" y="1"/>
      <point x="323" y="13" type="qcurve"/>
      <point x="303" y="33"/>
      <point x="287" y="78" type="qcurve"/>
      <point x="270" y="127"/>
      <point x="270" y="162" type="qcurve"/>
      <point x="270" y="187"/>
      <point x="279" y="196" type="qcurve"/>
      <point x="284" y="202"/>
      <point x="294" y="202" type="qcurve"/>
      <point x="319" y="202"/>
      <point x="341" y="179" type="qcurve"/>
      <point x="349" y="171"/>
      <point x="353" y="163" type="qcurve"/>
      <point x="355" y="157"/>
      <point x="355" y="152" type="qcurve"/>
      <point x="355" y="145"/>
      <point x="349" y="139" type="qcurve"/>
      <point x="346" y="136"/>
      <point x="343" y="134" type="qcurve"/>
      <point x="329" y="136"/>
      <point x="320" y="144" type="qcurve"/>
      <point x="313" y="151"/>
    </contour>
    <contour>
      <point x="130" y="678" type="qcurve"/>
      <point x="130" y="598"/>
      <point x="165" y="541" type="qcurve"/>
      <point x="199" y="483"/>
      <point x="258" y="435" type="qcurve"/>
      <point x="212" y="345"/>
      <point x="195" y="274" type="qcurve"/>
      <point x="193" y="268"/>
      <point x="188" y="247" type="qcurve"/>
      <point x="183" y="225"/>
      <point x="181" y="218" type="qcurve"/>
      <point x="179" y="211"/>
      <point x="174" y="192" type="qcurve"/>
      <point x="169" y="172"/>
      <point x="166" y="164" type="qcurve"/>
      <point x="163" y="155"/>
      <point x="157" y="139" type="qcurve"/>
      <point x="151" y="123"/>
      <point x="147" y="114" type="qcurve"/>
      <point x="142" y="104"/>
      <point x="135" y="92" type="qcurve"/>
      <point x="128" y="80"/>
      <point x="121" y="71" type="qcurve"/>
      <point x="113" y="61"/>
      <point x="105" y="52" type="qcurve"/>
      <point x="87" y="34"/>
      <point x="64" y="22" type="qcurve"/>
      <point x="50" y="15"/>
      <point x="50" y="0" type="qcurve"/>
      <point x="50" y="-6" type="line"/>
      <point x="50" y="-16"/>
      <point x="58" y="-23" type="qcurve"/>
      <point x="65" y="-31"/>
      <point x="75" y="-31" type="qcurve"/>
      <point x="92" y="-31"/>
      <point x="98" y="-16" type="qcurve"/>
      <point x="121" y="-2"/>
      <point x="140" y="17" type="qcurve"/>
      <point x="192" y="68"/>
      <point x="220" y="170" type="qcurve"/>
      <point x="220" y="166"/>
      <point x="220" y="162" type="qcurve"/>
      <point x="220" y="119"/>
      <point x="240" y="61" type="qcurve"/>
      <point x="259" y="6"/>
      <point x="288" y="-22" type="qcurve"/>
      <point x="315" y="-49"/>
      <point x="347" y="-49" type="qcurve"/>
      <point x="415" y="-49"/>
      <point x="468" y="4" type="qcurve"/>
      <point x="498" y="34"/>
      <point x="515" y="74" type="qcurve"/>
      <point x="532" y="113"/>
      <point x="532" y="154" type="qcurve"/>
      <point x="532" y="184"/>
      <point x="526" y="211" type="qcurve"/>
      <point x="519" y="238"/>
      <point x="511" y="259" type="qcurve"/>
      <point x="503" y="280"/>
      <point x="486" y="303" type="qcurve"/>
      <point x="469" y="325"/>
      <point x="457" y="339" type="qcurve"/>
      <point x="445" y="352"/>
      <point x="422" y="372" type="qcurve"/>
      <point x="399" y="391"/>
      <point x="387" y="400" type="qcurve"/>
      <point x="375" y="409"/>
      <point x="349" y="428" type="qcurve"/>
      <point x="331" y="442"/>
      <point x="321" y="449" type="qcurve"/>
      <point x="347" y="499"/>
      <point x="361" y="530" type="qcurve"/>
      <point x="374" y="561"/>
      <point x="387" y="613" type="qcurve"/>
      <point x="400" y="664"/>
      <point x="400" y="716" type="qcurve"/>
      <point x="400" y="757"/>
      <point x="376" y="781" type="qcurve"/>
      <point x="348" y="809"/>
      <point x="287" y="809" type="qcurve"/>
      <point x="229" y="809"/>
      <point x="206" y="804" type="qcurve"/>
      <point x="175" y="799"/>
      <point x="158" y="781" type="qcurve"/>
      <point x="130" y="754"/>
    </contour>
  </outline>
</glyph>
<glyph name="T.1" format="2">
  <advance width="526"/>
  <outline>
    <contour>
      <point x="145" y="650" type="qcurve"/>
      <point x="145" y="662"/>
      <point x="136" y="669" type="qcurve"/>
      <point x="112" y="689"/>
      <point x="101" y="750" type="qcurve"/>
      <point x="100" y="755"/>
      <point x="100" y="757" type="qcurve"/>
      <point x="108" y="759"/>
      <point x="120" y="759" type="qcurve"/>
      <point x="135" y="759"/>
      <point x="159" y="750" type="qcurve"/>
      <point x="173" y="745"/>
      <point x="239" y="712" type="qcurve"/>
      <point x="305" y="678"/>
      <point x="342" y="671" type="qcurve"/>
      <point x="355" y="669"/>
      <point x="366" y="669" type="qcurve"/>
      <point x="371" y="669"/>
      <point x="375" y="670" type="qcurve"/>
      <point x="375" y="37" type="line"/>
      <point x="370" y="28"/>
      <point x="367" y="24" type="qcurve"/>
      <point x="366" y="25"/>
      <point x="366" y="25" type="qcurve"/>
      <point x="326" y="51"/>
      <point x="323" y="53" type="qcurve"/>
      <point x="323" y="74" type="line"/>
      <point x="323" y="84"/>
      <point x="316" y="92" type="qcurve"/>
      <point x="308" y="99"/>
      <point x="298" y="99" type="qcurve"/>
      <point x="288" y="99"/>
      <point x="281" y="92" type="qcurve"/>
      <point x="273" y="84"/>
      <point x="273" y="74" type="qcurve"/>
      <point x="273" y="40" type="line"/>
      <point x="273" y="27"/>
      <point x="284" y="19" type="qcurve"/>
      <point x="294" y="12"/>
      <point x="338" y="-17" type="qcurve"/>
      <point x="353" y="-27"/>
      <point x="368" y="-27" type="qcurve"/>
      <point x="381" y="-27"/>
      <point x="392" y="-19" type="qcurve"/>
      <point x="403" y="-11"/>
      <point x="408" y="-4" type="qcurve"/>
      <point x="413" y="2"/>
      <point x="420" y="14" type="qcurve"/>
      <point x="425" y="23"/>
      <point x="425" y="30" type="qcurve"/>
      <point x="425" y="684" type="line"/>
      <point x="426" y="687" type="line"/>
      <point x="454" y="708"/>
      <point x="470" y="751" type="qcurve"/>
      <point x="471" y="756"/>
      <point x="471" y="760" type="qcurve"/>
      <point x="471" y="764"/>
      <point x="470" y="767" type="qcurve"/>
      <point x="465" y="783"/>
      <point x="456" y="792" type="qcurve"/>
      <point x="444" y="804"/>
      <point x="429" y="804" type="qcurve"/>
      <point x="413" y="804"/>
      <point x="402" y="793" type="qcurve"/>
      <point x="391" y="782"/>
      <point x="387" y="762" type="qcurve"/>
      <point x="380" y="720" type="line"/>
      <point x="375" y="719"/>
      <point x="368" y="719" type="qcurve"/>
      <point x="360" y="719"/>
      <point x="351" y="721" type="qcurve"/>
      <point x="320" y="726"/>
      <point x="247" y="764" type="qcurve"/>
      <point x="199" y="788"/>
      <point x="177" y="797" type="qcurve"/>
      <point x="144" y="809"/>
      <point x="120" y="809" type="qcurve"/>
      <point x="80" y="809"/>
      <point x="63" y="793" type="qcurve"/>
      <point x="50" y="779"/>
      <point x="50" y="757" type="qcurve"/>
      <point x="50" y="750"/>
      <point x="51" y="742" type="qcurve"/>
      <point x="64" y="670"/>
      <point x="96" y="638" type="qcurve"/>
      <point x="109" y="625"/>
      <point x="120" y="625" type="qcurve"/>
      <point x="130" y="625"/>
      <point x="138" y="633" type="qcurve"/>
      <point x="145" y="640"/>
    </contour>
  </outline>
</glyph>
<glyph name="U.0" format="2">
  <advance width="827"/>
  <outline>
    <contour>
      <point x="289" y="385" type="qcurve"/>
      <point x="289" y="366"/>
      <point x="291" y="326" type="qcurve"/>
      <point x="308" y="76"/>
      <point x="366" y="18" type="qcurve"/>
      <point x="401" y="-17" type="line"/>
      <point x="420" y="-36"/>
      <point x="444" y="-36" type="qcurve"/>
      <point x="500" y="-36"/>
      <point x="542" y="6" type="qcurve"/>
      <point x="577" y="41" type="line"/>
      <point x="590" y="54"/>
      <point x="599" y="67" type="qcurve"/>
      <point x="604" y="57"/>
      <point x="616" y="37" type="qcurve"/>
      <point x="620" y="30"/>
      <point x="626" y="24" type="qcurve"/>
      <point x="662" y="-11" type="line"/>
      <point x="681" y="-30"/>
      <point x="712" y="-30" type="qcurve"/>
      <point x="728" y="-30"/>
      <point x="748" y="-24" type="qcurve"/>
      <point x="783" y="11" type="line"/>
      <point x="799" y="39" type="line"/>
      <point x="803" y="46"/>
      <point x="803" y="54" type="qcurve"/>
      <point x="803" y="67"/>
      <point x="794" y="76" type="qcurve"/>
      <point x="785" y="85"/>
      <point x="772" y="85" type="qcurve"/>
      <point x="755" y="85"/>
      <point x="746" y="69" type="qcurve"/>
      <point x="730" y="42" type="line"/>
      <point x="724" y="41"/>
      <point x="712" y="41" type="qcurve"/>
      <point x="692" y="41"/>
      <point x="681" y="46" type="qcurve"/>
      <point x="656" y="90"/>
      <point x="639" y="146" type="qcurve"/>
      <point x="681" y="262"/>
      <point x="681" y="445" type="qcurve"/>
      <point x="681" y="662"/>
      <point x="634" y="781" type="qcurve"/>
      <point x="563" y="781" type="line"/>
      <point x="533" y="592"/>
      <point x="533" y="431" type="qcurve"/>
      <point x="533" y="265"/>
      <point x="568" y="146" type="qcurve"/>
      <point x="548" y="92"/>
      <point x="524" y="61" type="qcurve"/>
      <point x="487" y="34"/>
      <point x="444" y="34" type="qcurve"/>
      <point x="430" y="34"/>
      <point x="420" y="40" type="qcurve"/>
      <point x="375" y="113"/>
      <point x="362" y="326" type="qcurve"/>
      <point x="362" y="333"/>
      <point x="361" y="345" type="qcurve"/>
      <point x="360" y="356"/>
      <point x="360" y="366" type="qcurve"/>
      <point x="359" y="376"/>
      <point x="359" y="385" type="qcurve"/>
      <point x="359" y="434"/>
      <point x="370" y="529" type="qcurve"/>
      <point x="381" y="624"/>
      <point x="381" y="673" type="qcurve"/>
      <point x="381" y="719"/>
      <point x="356" y="744" type="qcurve"/>
      <point x="320" y="779" type="line"/>
      <point x="305" y="794"/>
      <point x="290" y="794" type="qcurve"/>
      <point x="275" y="794"/>
      <point x="263" y="782" type="qcurve"/>
      <point x="228" y="746" type="line"/>
      <point x="218" y="736"/>
      <point x="213" y="723" type="qcurve"/>
      <point x="203" y="721"/>
      <point x="196" y="721" type="qcurve"/>
      <point x="167" y="721"/>
      <point x="137" y="740" type="qcurve"/>
      <point x="127" y="756"/>
      <point x="126" y="771" type="qcurve"/>
      <point x="125" y="779" type="line"/>
      <point x="123" y="792"/>
      <point x="113" y="801" type="qcurve"/>
      <point x="103" y="810"/>
      <point x="90" y="810" type="qcurve"/>
      <point x="76" y="810"/>
      <point x="66" y="800" type="qcurve"/>
      <point x="55" y="789"/>
      <point x="55" y="775" type="qcurve"/>
      <point x="55" y="771" type="line"/>
      <point x="58" y="745"/>
      <point x="82" y="721" type="qcurve"/>
      <point x="117" y="686" type="line"/>
      <point x="153" y="650"/>
      <point x="196" y="650" type="qcurve"/>
      <point x="221" y="650"/>
      <point x="235" y="664" type="qcurve"/>
      <point x="270" y="700" type="line"/>
      <point x="276" y="706"/>
      <point x="281" y="717" type="qcurve"/>
      <point x="282" y="718"/>
      <point x="282" y="720" type="qcurve"/>
      <point x="282" y="721"/>
      <point x="283" y="722" type="qcurve"/>
      <point x="284" y="722"/>
      <point x="287" y="723" type="qcurve"/>
      <point x="289" y="723"/>
      <point x="290" y="723" type="qcurve"/>
      <point x="294" y="723"/>
      <point x="300" y="721" type="qcurve"/>
      <point x="310" y="699"/>
      <point x="310" y="673" type="qcurve"/>
      <point x="310" y="624"/>
      <point x="300" y="529" type="qcurve"/>
      <point x="289" y="434"/>
    </contour>
    <contour>
      <point x="610" y="445" type="qcurve"/>
      <point x="610" y="378"/>
      <point x="607" y="345" type="qcurve"/>
      <point x="604" y="387"/>
      <point x="604" y="431" type="qcurve"/>
      <point x="604" y="485"/>
      <point x="607" y="537" type="qcurve"/>
      <point x="610" y="492"/>
    </contour>
  </outline>
</glyph>
<glyph name="V.0" format="2">
  <advance width="833"/>
  <outline>
    <contour>
      <point x="804" y="663" type="qcurve"/>
      <point x="804" y="672"/>
      <point x="803" y="681" type="qcurve"/>
      <point x="801" y="689"/>
      <point x="797" y="699" type="qcurve"/>
      <point x="792" y="708"/>
      <point x="790" y="714" type="qcurve"/>
      <point x="787" y="720"/>
      <point x="780" y="731" type="qcurve"/>
      <point x="772" y="741"/>
      <point x="769" y="745" type="qcurve"/>
      <point x="766" y="748"/>
      <point x="757" y="760" type="qcurve"/>
      <point x="748" y="771"/>
      <point x="747" y="773" type="qcurve"/>
      <point x="711" y="808" type="line"/>
      <point x="622" y="808"/>
      <point x="563" y="749" type="qcurve"/>
      <point x="528" y="714" type="line"/>
      <point x="491" y="677"/>
      <point x="466" y="621" type="qcurve"/>
      <point x="441" y="565"/>
      <point x="428" y="489" type="qcurve"/>
      <point x="415" y="412"/>
      <point x="410" y="362" type="qcurve"/>
      <point x="405" y="311"/>
      <point x="400" y="227" type="qcurve"/>
      <point x="395" y="145"/>
      <point x="394" y="134" type="qcurve"/>
      <point x="347" y="300"/>
      <point x="288" y="668" type="qcurve"/>
      <point x="277" y="747"/>
      <point x="231" y="793" type="qcurve"/>
      <point x="196" y="829" type="line"/>
      <point x="192" y="829" type="line"/>
      <point x="157" y="829"/>
      <point x="130" y="802" type="qcurve"/>
      <point x="95" y="767" type="line"/>
      <point x="59" y="731"/>
      <point x="55" y="683" type="qcurve"/>
      <point x="55" y="680" type="line"/>
      <point x="55" y="666"/>
      <point x="66" y="656" type="qcurve"/>
      <point x="76" y="645"/>
      <point x="90" y="645" type="qcurve"/>
      <point x="103" y="645"/>
      <point x="113" y="654" type="qcurve"/>
      <point x="123" y="663"/>
      <point x="125" y="677" type="qcurve"/>
      <point x="128" y="715"/>
      <point x="149" y="747" type="qcurve"/>
      <point x="165" y="757"/>
      <point x="187" y="759" type="qcurve"/>
      <point x="210" y="719"/>
      <point x="217" y="668" type="qcurve"/>
      <point x="226" y="610"/>
      <point x="239" y="536" type="qcurve"/>
      <point x="252" y="462"/>
      <point x="274" y="346" type="qcurve"/>
      <point x="296" y="230"/>
      <point x="320" y="146" type="qcurve"/>
      <point x="343" y="61"/>
      <point x="360" y="44" type="qcurve"/>
      <point x="395" y="9" type="line"/>
      <point x="399" y="5"/>
      <point x="403" y="5" type="qcurve"/>
      <point x="405" y="5"/>
      <point x="408" y="8" type="qcurve"/>
      <point x="444" y="43" type="line"/>
      <point x="450" y="49"/>
      <point x="456" y="74" type="qcurve"/>
      <point x="463" y="107"/>
      <point x="471" y="227" type="qcurve"/>
      <point x="476" y="308"/>
      <point x="481" y="354" type="qcurve"/>
      <point x="485" y="400"/>
      <point x="497" y="474" type="qcurve"/>
      <point x="508" y="547"/>
      <point x="530" y="602" type="qcurve"/>
      <point x="551" y="656"/>
      <point x="582" y="695" type="qcurve"/>
      <point x="633" y="737"/>
      <point x="704" y="738" type="qcurve"/>
      <point x="733" y="698"/>
      <point x="733" y="663" type="qcurve"/>
      <point x="733" y="656" type="line"/>
      <point x="733" y="651"/>
      <point x="732" y="627" type="qcurve"/>
      <point x="730" y="602"/>
      <point x="728" y="591" type="qcurve"/>
      <point x="718" y="589"/>
      <point x="711" y="589" type="qcurve"/>
      <point x="701" y="589"/>
      <point x="689" y="591" type="qcurve"/>
      <point x="683" y="620"/>
      <point x="672" y="632" type="qcurve"/>
      <point x="638" y="667" type="line"/>
      <point x="630" y="675"/>
      <point x="620" y="675" type="qcurve"/>
      <point x="609" y="675"/>
      <point x="602" y="668" type="qcurve"/>
      <point x="594" y="660"/>
      <point x="594" y="650" type="qcurve"/>
      <point x="594" y="641"/>
      <point x="601" y="632" type="qcurve"/>
      <point x="610" y="623"/>
      <point x="617" y="595" type="qcurve"/>
      <point x="621" y="575"/>
      <point x="629" y="567" type="qcurve"/>
      <point x="665" y="531" type="line"/>
      <point x="677" y="519"/>
      <point x="711" y="519" type="qcurve"/>
      <point x="740" y="519"/>
      <point x="752" y="531" type="qcurve"/>
      <point x="787" y="567" type="line"/>
      <point x="793" y="573"/>
      <point x="797" y="585" type="qcurve"/>
      <point x="800" y="596"/>
      <point x="801" y="606" type="qcurve"/>
      <point x="802" y="615"/>
      <point x="803" y="632" type="qcurve"/>
      <point x="803" y="648"/>
      <point x="804" y="656" type="qcurve"/>
      <point x="804" y="663"/>
    </contour>
  </outline>
</glyph>
<glyph name="W.1" format="2">
  <advance width="919"/>
  <outline>
    <contour>
      <point x="50" y="713" type="qcurve"/>
      <point x="50" y="703"/>
      <point x="58" y="696" type="qcurve"/>
      <point x="65" y="688"/>
      <point x="75" y="688" type="qcurve"/>
      <point x="85" y="688"/>
      <point x="93" y="695" type="qcurve"/>
      <point x="98" y="700"/>
      <point x="106" y="711" type="qcurve"/>
      <point x="113" y="722"/>
      <point x="118" y="727" type="qcurve"/>
      <point x="128" y="736"/>
      <point x="140" y="749" type="qcurve"/>
      <point x="146" y="756"/>
      <point x="149" y="758" type="qcurve"/>
      <point x="156" y="760"/>
      <point x="174" y="760" type="qcurve"/>
      <point x="175" y="759"/>
      <point x="178" y="757" type="qcurve"/>
      <point x="182" y="753"/>
      <point x="192" y="737" type="qcurve"/>
      <point x="207" y="715"/>
      <point x="218" y="704" type="qcurve"/>
      <point x="241" y="680"/>
      <point x="272" y="679" type="qcurve"/>
      <point x="278" y="678"/>
      <point x="283" y="678" type="qcurve"/>
      <point x="297" y="678"/>
      <point x="310" y="686" type="qcurve"/>
      <point x="303" y="604"/>
      <point x="274" y="441" type="qcurve"/>
      <point x="260" y="366"/>
      <point x="254" y="325" type="qcurve"/>
      <point x="247" y="284"/>
      <point x="240" y="219" type="qcurve"/>
      <point x="233" y="153"/>
      <point x="233" y="98" type="qcurve"/>
      <point x="233" y="28"/>
      <point x="261" y="0" type="qcurve"/>
      <point x="279" y="-18"/>
      <point x="306" y="-23" type="qcurve"/>
      <point x="332" y="-29"/>
      <point x="375" y="-29" type="qcurve"/>
      <point x="410" y="-29"/>
      <point x="433" y="-19" type="qcurve"/>
      <point x="450" y="-11"/>
      <point x="464" y="2" type="qcurve"/>
      <point x="471" y="9"/>
      <point x="481" y="23" type="qcurve"/>
      <point x="491" y="36"/>
      <point x="497" y="41" type="qcurve"/>
      <point x="497" y="34"/>
      <point x="498" y="31" type="qcurve"/>
      <point x="510" y="-12"/>
      <point x="524" y="-26" type="qcurve"/>
      <point x="540" y="-42"/>
      <point x="563" y="-42" type="qcurve"/>
      <point x="574" y="-42"/>
      <point x="587" y="-38" type="qcurve"/>
      <point x="667" y="-32"/>
      <point x="718" y="20" type="qcurve"/>
      <point x="781" y="82"/>
      <point x="799" y="212" type="qcurve"/>
      <point x="806" y="267"/>
      <point x="806" y="337" type="qcurve"/>
      <point x="806" y="387"/>
      <point x="801" y="480" type="qcurve"/>
      <point x="801" y="484"/>
      <point x="801" y="492" type="qcurve"/>
      <point x="800" y="499"/>
      <point x="800" y="505" type="qcurve"/>
      <point x="799" y="511"/>
      <point x="799" y="516" type="qcurve"/>
      <point x="804" y="519"/>
      <point x="815" y="526" type="qcurve"/>
      <point x="822" y="531"/>
      <point x="824" y="532" type="qcurve"/>
      <point x="857" y="562" type="line"/>
      <point x="865" y="570"/>
      <point x="865" y="581" type="qcurve"/>
      <point x="865" y="591"/>
      <point x="858" y="599" type="qcurve"/>
      <point x="850" y="606"/>
      <point x="840" y="606" type="qcurve"/>
      <point x="830" y="606"/>
      <point x="823" y="600" type="qcurve"/>
      <point x="792" y="571" type="line"/>
      <point x="792" y="571"/>
      <point x="791" y="571" type="qcurve"/>
      <point x="773" y="681"/>
      <point x="746" y="744" type="qcurve"/>
      <point x="731" y="778"/>
      <point x="714" y="795" type="qcurve"/>
      <point x="696" y="813"/>
      <point x="675" y="813" type="qcurve"/>
      <point x="632" y="813"/>
      <point x="598" y="779" type="qcurve"/>
      <point x="575" y="756"/>
      <point x="560" y="720" type="qcurve"/>
      <point x="542" y="680"/>
      <point x="542" y="644" type="qcurve"/>
      <point x="542" y="643"/>
      <point x="542" y="643" type="qcurve"/>
      <point x="544" y="588"/>
      <point x="582" y="551" type="qcurve"/>
      <point x="627" y="506"/>
      <point x="694" y="506" type="qcurve"/>
      <point x="710" y="506"/>
      <point x="724" y="508" type="qcurve"/>
      <point x="729" y="509"/>
      <point x="738" y="509" type="qcurve"/>
      <point x="743" y="509"/>
      <point x="749" y="509" type="qcurve"/>
      <point x="756" y="376"/>
      <point x="756" y="337" type="qcurve"/>
      <point x="756" y="270"/>
      <point x="749" y="218" type="qcurve"/>
      <point x="734" y="105"/>
      <point x="683" y="55" type="qcurve"/>
      <point x="644" y="16"/>
      <point x="581" y="12" type="qcurve"/>
      <point x="577" y="12"/>
      <point x="573" y="10" type="qcurve"/>
      <point x="567" y="8"/>
      <point x="563" y="8" type="qcurve"/>
      <point x="561" y="8"/>
      <point x="560" y="9" type="qcurve"/>
      <point x="557" y="12"/>
      <point x="555" y="18" type="qcurve"/>
      <point x="552" y="24"/>
      <point x="547" y="42" type="qcurve"/>
      <point x="544" y="174" type="line"/>
      <point x="544" y="184"/>
      <point x="537" y="191" type="qcurve"/>
      <point x="529" y="198"/>
      <point x="519" y="198" type="qcurve"/>
      <point x="510" y="198"/>
      <point x="503" y="192" type="qcurve"/>
      <point x="496" y="186"/>
      <point x="494" y="178" type="qcurve"/>
      <point x="478" y="92" type="line"/>
      <point x="470" y="85"/>
      <point x="463" y="78" type="qcurve"/>
      <point x="454" y="70"/>
      <point x="442" y="54" type="qcurve"/>
      <point x="426" y="32"/>
      <point x="413" y="27" type="qcurve"/>
      <point x="399" y="21"/>
      <point x="375" y="21" type="qcurve"/>
      <point x="335" y="21"/>
      <point x="316" y="26" type="qcurve"/>
      <point x="302" y="29"/>
      <point x="296" y="35" type="qcurve"/>
      <point x="283" y="49"/>
      <point x="283" y="98" type="qcurve"/>
      <point x="283" y="150"/>
      <point x="290" y="213" type="qcurve"/>
      <point x="296" y="276"/>
      <point x="303" y="318" type="qcurve"/>
      <point x="310" y="359"/>
      <point x="323" y="432" type="qcurve"/>
      <point x="362" y="648"/>
      <point x="364" y="761" type="qcurve"/>
      <point x="364" y="763"/>
      <point x="364" y="765" type="qcurve"/>
      <point x="364" y="775"/>
      <point x="362" y="781" type="qcurve"/>
      <point x="360" y="788"/>
      <point x="356" y="793" type="qcurve"/>
      <point x="348" y="800"/>
      <point x="338" y="800" type="qcurve"/>
      <point x="333" y="800"/>
      <point x="330" y="799" type="qcurve"/>
      <point x="324" y="797"/>
      <point x="319" y="792" type="qcurve"/>
      <point x="315" y="788"/>
      <point x="312" y="781" type="qcurve"/>
      <point x="310" y="778"/>
      <point x="305" y="765" type="qcurve"/>
      <point x="300" y="752"/>
      <point x="296" y="744" type="qcurve"/>
      <point x="291" y="735"/>
      <point x="285" y="730" type="qcurve"/>
      <point x="284" y="729"/>
      <point x="283" y="728" type="qcurve"/>
      <point x="280" y="729"/>
      <point x="276" y="729" type="qcurve"/>
      <point x="264" y="729"/>
      <point x="253" y="740" type="qcurve"/>
      <point x="246" y="747"/>
      <point x="234" y="766" type="qcurve"/>
      <point x="221" y="784"/>
      <point x="213" y="792" type="qcurve"/>
      <point x="196" y="810"/>
      <point x="174" y="810" type="qcurve"/>
      <point x="147" y="810"/>
      <point x="132" y="804" type="qcurve"/>
      <point x="122" y="801"/>
      <point x="115" y="795" type="qcurve"/>
      <point x="107" y="788"/>
      <point x="99" y="779" type="qcurve"/>
      <point x="91" y="770"/>
      <point x="86" y="765" type="qcurve"/>
      <point x="76" y="757"/>
      <point x="64" y="740" type="qcurve"/>
      <point x="59" y="733"/>
      <point x="57" y="730" type="qcurve"/>
      <point x="50" y="723"/>
    </contour>
    <contour>
      <point x="695" y="556" type="qcurve"/>
      <point x="653" y="556"/>
      <point x="624" y="581" type="qcurve"/>
      <point x="594" y="605"/>
      <point x="592" y="645" type="qcurve"/>
      <point x="592" y="670"/>
      <point x="606" y="700" type="qcurve"/>
      <point x="633" y="763"/>
      <point x="675" y="763" type="qcurve"/>
      <point x="676" y="762"/>
      <point x="679" y="760" type="qcurve"/>
      <point x="689" y="750"/>
      <point x="700" y="724" type="qcurve"/>
      <point x="725" y="666"/>
      <point x="742" y="559" type="qcurve"/>
      <point x="740" y="559"/>
      <point x="738" y="559" type="qcurve"/>
      <point x="725" y="559"/>
      <point x="716" y="558" type="qcurve"/>
      <point x="705" y="556"/>
    </contour>
  </outline>
</glyph>
<glyph name="X.2" format="2">
  <advance width="940"/>
  <outline>
    <contour>
      <point x="130" y="528" type="qcurve"/>
      <point x="130" y="529"/>
      <point x="131" y="531" type="qcurve"/>
      <point x="131" y="532"/>
      <point x="131" y="533" type="qcurve"/>
      <point x="131" y="534"/>
      <point x="131" y="534" type="qcurve"/>
      <point x="116" y="586"/>
      <point x="116" y="664" type="qcurve"/>
      <point x="116" y="668"/>
      <point x="116" y="678" type="qcurve"/>
      <point x="116" y="687"/>
      <point x="116" y="691" type="qcurve"/>
      <point x="122" y="713"/>
      <point x="145" y="732" type="qcurve"/>
      <point x="167" y="750"/>
      <point x="194" y="759" type="qcurve"/>
      <point x="226" y="771"/>
      <point x="273" y="771" type="qcurve"/>
      <point x="313" y="771"/>
      <point x="332" y="759" type="qcurve"/>
      <point x="347" y="750"/>
      <point x="361" y="720" type="qcurve"/>
      <point x="377" y="683"/>
      <point x="397" y="665" type="qcurve"/>
      <point x="409" y="584" type="line"/>
      <point x="403" y="456" type="line"/>
      <point x="350" y="311" type="line"/>
      <point x="296" y="280"/>
      <point x="266" y="262" type="qcurve"/>
      <point x="236" y="244"/>
      <point x="194" y="215" type="qcurve"/>
      <point x="151" y="186"/>
      <point x="120" y="159" type="qcurve"/>
      <point x="82" y="124"/>
      <point x="70" y="75" type="qcurve"/>
      <point x="70" y="75"/>
      <point x="70" y="74" type="qcurve"/>
      <point x="70" y="48"/>
      <point x="87" y="8" type="qcurve"/>
      <point x="102" y="-30"/>
      <point x="120" y="-30" type="qcurve"/>
      <point x="138" y="-30"/>
      <point x="156" y="-19" type="qcurve"/>
      <point x="174" y="-9"/>
      <point x="187" y="3" type="qcurve"/>
      <point x="199" y="15"/>
      <point x="216" y="40" type="qcurve"/>
      <point x="233" y="65"/>
      <point x="240" y="78" type="qcurve"/>
      <point x="247" y="90"/>
      <point x="262" y="118" type="qcurve"/>
      <point x="289" y="168"/>
      <point x="301" y="182" type="qcurve"/>
      <point x="301" y="182"/>
      <point x="301" y="183" type="qcurve"/>
      <point x="349" y="279" type="line"/>
      <point x="350" y="279"/>
      <point x="350" y="279" type="qcurve"/>
      <point x="359" y="304" type="line"/>
      <point x="425" y="342"/>
      <point x="457" y="361" type="qcurve"/>
      <point x="460" y="300"/>
      <point x="480" y="242" type="qcurve"/>
      <point x="499" y="183"/>
      <point x="533" y="135" type="qcurve"/>
      <point x="566" y="86"/>
      <point x="618" y="55" type="qcurve"/>
      <point x="670" y="24"/>
      <point x="732" y="21" type="qcurve"/>
      <point x="746" y="20"/>
      <point x="758" y="20" type="qcurve"/>
      <point x="803" y="20"/>
      <point x="827" y="34" type="qcurve"/>
      <point x="866" y="55"/>
      <point x="866" y="116" type="qcurve"/>
      <point x="866" y="118"/>
      <point x="864" y="120" type="qcurve"/>
      <point x="862" y="123"/>
      <point x="853" y="129" type="qcurve"/>
      <point x="847" y="133"/>
      <point x="835" y="140" type="qcurve"/>
      <point x="823" y="147"/>
      <point x="819" y="150" type="qcurve"/>
      <point x="818" y="151"/>
      <point x="817" y="151" type="qcurve"/>
      <point x="781" y="157" type="line"/>
      <point x="780" y="157"/>
      <point x="780" y="157" type="qcurve"/>
      <point x="775" y="157"/>
      <point x="775" y="152" type="qcurve"/>
      <point x="775" y="148"/>
      <point x="779" y="147" type="qcurve"/>
      <point x="814" y="141" type="line"/>
      <point x="854" y="116"/>
      <point x="856" y="114" type="qcurve"/>
      <point x="856" y="61"/>
      <point x="822" y="42" type="qcurve"/>
      <point x="801" y="30"/>
      <point x="758" y="30" type="qcurve"/>
      <point x="747" y="30"/>
      <point x="732" y="31" type="qcurve"/>
      <point x="672" y="34"/>
      <point x="622" y="65" type="qcurve"/>
      <point x="572" y="95"/>
      <point x="539" y="143" type="qcurve"/>
      <point x="506" y="190"/>
      <point x="488" y="248" type="qcurve"/>
      <point x="469" y="306"/>
      <point x="466" y="367" type="qcurve"/>
      <point x="525" y="403"/>
      <point x="568" y="437" type="qcurve"/>
      <point x="611" y="471"/>
      <point x="653" y="516" type="qcurve"/>
      <point x="694" y="560"/>
      <point x="720" y="616" type="qcurve"/>
      <point x="746" y="671"/>
      <point x="755" y="736" type="qcurve"/>
      <point x="756" y="743"/>
      <point x="756" y="753" type="qcurve"/>
      <point x="756" y="759"/>
      <point x="756" y="771" type="qcurve"/>
      <point x="755" y="782"/>
      <point x="755" y="788" type="qcurve"/>
      <point x="755" y="804"/>
      <point x="729" y="804" type="qcurve"/>
      <point x="724" y="804"/>
      <point x="715" y="803" type="qcurve"/>
      <point x="706" y="802"/>
      <point x="702" y="802" type="qcurve"/>
      <point x="652" y="802"/>
      <point x="612" y="784" type="qcurve"/>
      <point x="571" y="765"/>
      <point x="546" y="733" type="qcurve"/>
      <point x="520" y="700"/>
      <point x="502" y="662" type="qcurve"/>
      <point x="483" y="623"/>
      <point x="474" y="577" type="qcurve"/>
      <point x="465" y="530"/>
      <point x="461" y="491" type="qcurve"/>
      <point x="457" y="451"/>
      <point x="457" y="410" type="qcurve"/>
      <point x="456" y="396"/>
      <point x="456" y="382" type="qcurve"/>
      <point x="456" y="378"/>
      <point x="456" y="372" type="qcurve"/>
      <point x="423" y="352"/>
      <point x="364" y="319" type="qcurve"/>
      <point x="413" y="453" type="line"/>
      <point x="413" y="454"/>
      <point x="413" y="455" type="qcurve"/>
      <point x="419" y="584" type="line"/>
      <point x="419" y="584"/>
      <point x="419" y="585" type="qcurve"/>
      <point x="407" y="669" type="line"/>
      <point x="407" y="671"/>
      <point x="405" y="672" type="qcurve"/>
      <point x="386" y="688"/>
      <point x="370" y="724" type="qcurve"/>
      <point x="355" y="757"/>
      <point x="338" y="767" type="qcurve"/>
      <point x="316" y="781"/>
      <point x="273" y="781" type="qcurve"/>
      <point x="224" y="781"/>
      <point x="190" y="769" type="qcurve"/>
      <point x="161" y="758"/>
      <point x="137" y="739" type="qcurve"/>
      <point x="113" y="719"/>
      <point x="106" y="693" type="qcurve"/>
      <point x="106" y="693"/>
      <point x="106" y="692" type="qcurve"/>
      <point x="106" y="687"/>
      <point x="106" y="678" type="qcurve"/>
      <point x="106" y="668"/>
      <point x="106" y="664" type="qcurve"/>
      <point x="106" y="586"/>
      <point x="121" y="533" type="qcurve"/>
      <point x="120" y="530"/>
      <point x="120" y="528" type="qcurve"/>
      <point x="120" y="519"/>
      <point x="126" y="519" type="qcurve"/>
      <point x="131" y="519"/>
      <point x="131" y="524" type="qcurve"/>
      <point x="131" y="525"/>
      <point x="131" y="526" type="qcurve"/>
      <point x="130" y="527"/>
    </contour>
    <contour>
      <point x="729" y="794" type="qcurve"/>
      <point x="745" y="794"/>
      <point x="745" y="788" type="qcurve"/>
      <point x="745" y="782"/>
      <point x="746" y="771" type="qcurve"/>
      <point x="746" y="759"/>
      <point x="746" y="753" type="qcurve"/>
      <point x="746" y="744"/>
      <point x="745" y="738" type="qcurve"/>
      <point x="736" y="675"/>
      <point x="711" y="622" type="qcurve"/>
      <point x="686" y="568"/>
      <point x="647" y="524" type="qcurve"/>
      <point x="607" y="480"/>
      <point x="565" y="447" type="qcurve"/>
      <point x="523" y="414"/>
      <point x="466" y="379" type="qcurve"/>
      <point x="466" y="381"/>
      <point x="466" y="382" type="qcurve"/>
      <point x="466" y="396"/>
      <point x="467" y="410" type="qcurve"/>
      <point x="467" y="460"/>
      <point x="472" y="507" type="qcurve"/>
      <point x="477" y="554"/>
      <point x="493" y="608" type="qcurve"/>
      <point x="509" y="662"/>
      <point x="534" y="701" type="qcurve"/>
      <point x="558" y="740"/>
      <point x="602" y="766" type="qcurve"/>
      <point x="645" y="792"/>
      <point x="702" y="792" type="qcurve"/>
      <point x="706" y="792"/>
      <point x="716" y="793" type="qcurve"/>
      <point x="725" y="794"/>
    </contour>
    <contour>
      <point x="120" y="-20" type="qcurve"/>
      <point x="109" y="-20"/>
      <point x="96" y="12" type="qcurve"/>
      <point x="81" y="49"/>
      <point x="80" y="73" type="qcurve"/>
      <point x="91" y="119"/>
      <point x="126" y="151" type="qcurve"/>
      <point x="192" y="209"/>
      <point x="345" y="296" type="qcurve"/>
      <point x="340" y="283" type="line"/>
      <point x="293" y="188" type="line"/>
      <point x="281" y="173"/>
      <point x="254" y="123" type="qcurve"/>
      <point x="236" y="91"/>
      <point x="225" y="72" type="qcurve"/>
      <point x="213" y="53"/>
      <point x="195" y="29" type="qcurve"/>
      <point x="177" y="4"/>
      <point x="158" y="-8" type="qcurve"/>
      <point x="139" y="-20"/>
    </contour>
  </outline>
</glyph>
<glyph name="Y.0" format="2">
  <advance width="744"/>
  <outline>
    <contour>
      <point x="307" y="631" type="qcurve"/>
      <point x="307" y="624"/>
      <point x="307" y="617" type="qcurve"/>
      <point x="305" y="574"/>
      <point x="305" y="551" type="qcurve"/>
      <point x="305" y="482"/>
      <point x="320" y="427" type="qcurve"/>
      <point x="334" y="372"/>
      <point x="373" y="327" type="qcurve"/>
      <point x="376" y="324"/>
      <point x="385" y="315" type="qcurve"/>
      <point x="393" y="305"/>
      <point x="397" y="301" type="qcurve"/>
      <point x="401" y="296"/>
      <point x="409" y="290" type="qcurve"/>
      <point x="416" y="284"/>
      <point x="424" y="280" type="qcurve"/>
      <point x="442" y="271"/>
      <point x="467" y="271" type="qcurve"/>
      <point x="483" y="268"/>
      <point x="499" y="268" type="qcurve"/>
      <point x="567" y="268"/>
      <point x="623" y="315" type="qcurve"/>
      <point x="626" y="292"/>
      <point x="630" y="266" type="qcurve"/>
      <point x="634" y="240"/>
      <point x="639" y="208" type="qcurve"/>
      <point x="644" y="176"/>
      <point x="646" y="158" type="qcurve"/>
      <point x="652" y="79" type="line"/>
      <point x="652" y="54" type="line"/>
      <point x="635" y="33"/>
      <point x="547" y="33" type="qcurve"/>
      <point x="480" y="33"/>
      <point x="451" y="76" type="qcurve"/>
      <point x="457" y="73"/>
      <point x="464" y="73" type="qcurve"/>
      <point x="470" y="73"/>
      <point x="475" y="76" type="qcurve"/>
      <point x="487" y="82" type="line"/>
      <point x="497" y="86"/>
      <point x="500" y="97" type="qcurve"/>
      <point x="500" y="98"/>
      <point x="503" y="103" type="qcurve"/>
      <point x="505" y="108"/>
      <point x="506" y="114" type="qcurve"/>
      <point x="507" y="119"/>
      <point x="507" y="125" type="qcurve"/>
      <point x="507" y="142"/>
      <point x="497" y="165" type="qcurve"/>
      <point x="488" y="184"/>
      <point x="477" y="196" type="qcurve"/>
      <point x="463" y="210"/>
      <point x="446" y="210" type="qcurve"/>
      <point x="427" y="210"/>
      <point x="411" y="194" type="qcurve"/>
      <point x="398" y="182"/>
      <point x="391" y="164" type="qcurve"/>
      <point x="385" y="149"/>
      <point x="385" y="137" type="qcurve"/>
      <point x="385" y="70"/>
      <point x="427" y="28" type="qcurve"/>
      <point x="472" y="-17"/>
      <point x="547" y="-17" type="qcurve"/>
      <point x="549" y="-17"/>
      <point x="552" y="-17" type="qcurve"/>
      <point x="606" y="-16"/>
      <point x="629" y="-11" type="qcurve"/>
      <point x="665" y="-3"/>
      <point x="685" y="17" type="qcurve"/>
      <point x="694" y="25"/>
      <point x="699" y="36" type="qcurve"/>
      <point x="702" y="41"/>
      <point x="702" y="47" type="qcurve"/>
      <point x="702" y="80" type="line"/>
      <point x="702" y="81"/>
      <point x="702" y="82" type="qcurve"/>
      <point x="696" y="163" type="line"/>
      <point x="696" y="164"/>
      <point x="696" y="165" type="qcurve"/>
      <point x="675" y="309"/>
      <point x="666" y="363" type="qcurve"/>
      <point x="677" y="380"/>
      <point x="684" y="399" type="qcurve"/>
      <point x="699" y="424"/>
      <point x="709" y="458" type="qcurve"/>
      <point x="719" y="492"/>
      <point x="722" y="512" type="qcurve"/>
      <point x="725" y="532"/>
      <point x="730" y="573" type="qcurve"/>
      <point x="734" y="614"/>
      <point x="738" y="634" type="qcurve"/>
      <point x="740" y="648"/>
      <point x="740" y="666" type="qcurve"/>
      <point x="740" y="676"/>
      <point x="739" y="696" type="qcurve"/>
      <point x="738" y="716"/>
      <point x="738" y="725" type="qcurve"/>
      <point x="738" y="744"/>
      <point x="727" y="755" type="qcurve"/>
      <point x="717" y="765"/>
      <point x="702" y="766" type="qcurve"/>
      <point x="699" y="767"/>
      <point x="695" y="767" type="qcurve"/>
      <point x="690" y="767"/>
      <point x="682" y="766" type="qcurve"/>
      <point x="674" y="765"/>
      <point x="671" y="765" type="qcurve"/>
      <point x="663" y="767"/>
      <point x="655" y="767" type="qcurve"/>
      <point x="644" y="767"/>
      <point x="634" y="764" type="qcurve"/>
      <point x="600" y="752"/>
      <point x="587" y="709" type="qcurve"/>
      <point x="582" y="693"/>
      <point x="582" y="675" type="qcurve"/>
      <point x="582" y="670"/>
      <point x="583" y="665" type="qcurve"/>
      <point x="573" y="636"/>
      <point x="573" y="598" type="qcurve"/>
      <point x="573" y="581"/>
      <point x="576" y="544" type="qcurve"/>
      <point x="581" y="486"/>
      <point x="591" y="469" type="qcurve"/>
      <point x="613" y="375" type="line"/>
      <point x="608" y="369"/>
      <point x="602" y="364" type="qcurve"/>
      <point x="557" y="318"/>
      <point x="499" y="318" type="qcurve"/>
      <point x="487" y="318"/>
      <point x="475" y="321" type="qcurve"/>
      <point x="472" y="321"/>
      <point x="470" y="321" type="qcurve"/>
      <point x="457" y="321"/>
      <point x="449" y="324" type="qcurve"/>
      <point x="442" y="326"/>
      <point x="434" y="334" type="qcurve"/>
      <point x="430" y="338"/>
      <point x="421" y="349" type="qcurve"/>
      <point x="412" y="359"/>
      <point x="411" y="361" type="qcurve"/>
      <point x="379" y="396"/>
      <point x="367" y="444" type="qcurve"/>
      <point x="355" y="491"/>
      <point x="355" y="555" type="qcurve"/>
      <point x="355" y="579"/>
      <point x="357" y="616" type="qcurve"/>
      <point x="357" y="617"/>
      <point x="357" y="617" type="qcurve"/>
      <point x="357" y="619"/>
      <point x="357" y="624" type="qcurve"/>
      <point x="357" y="629"/>
      <point x="357" y="631" type="qcurve"/>
      <point x="357" y="647"/>
      <point x="358" y="675" type="qcurve"/>
      <point x="358" y="703"/>
      <point x="358" y="716" type="qcurve"/>
      <point x="358" y="743"/>
      <point x="354" y="756" type="qcurve"/>
      <point x="346" y="782"/>
      <point x="321" y="782" type="qcurve"/>
      <point x="315" y="782"/>
      <point x="309" y="780" type="qcurve"/>
      <point x="300" y="778"/>
      <point x="290" y="770" type="qcurve"/>
      <point x="270" y="757"/>
      <point x="226" y="714" type="qcurve"/>
      <point x="182" y="716"/>
      <point x="163" y="735" type="qcurve"/>
      <point x="150" y="748"/>
      <point x="150" y="773" type="qcurve"/>
      <point x="150" y="779" type="line"/>
      <point x="150" y="789"/>
      <point x="143" y="797" type="qcurve"/>
      <point x="135" y="804"/>
      <point x="125" y="804" type="qcurve"/>
      <point x="115" y="804"/>
      <point x="108" y="797" type="qcurve"/>
      <point x="100" y="789"/>
      <point x="100" y="779" type="qcurve"/>
      <point x="100" y="773" type="line"/>
      <point x="100" y="728"/>
      <point x="128" y="700" type="qcurve"/>
      <point x="164" y="664"/>
      <point x="236" y="664" type="qcurve"/>
      <point x="246" y="664"/>
      <point x="254" y="671" type="qcurve"/>
      <point x="291" y="708"/>
      <point x="308" y="722" type="qcurve"/>
      <point x="308" y="719"/>
      <point x="308" y="717" type="qcurve"/>
      <point x="308" y="703"/>
      <point x="308" y="675" type="qcurve"/>
      <point x="307" y="647"/>
    </contour>
    <contour>
      <point x="688" y="716" type="qcurve"/>
      <point x="688" y="710"/>
      <point x="689" y="693" type="qcurve"/>
      <point x="690" y="675"/>
      <point x="690" y="666" type="qcurve"/>
      <point x="690" y="652"/>
      <point x="688" y="642" type="qcurve"/>
      <point x="685" y="621"/>
      <point x="680" y="579" type="qcurve"/>
      <point x="669" y="480"/>
      <point x="649" y="439" type="qcurve"/>
      <point x="638" y="485" type="line"/>
      <point x="637" y="489"/>
      <point x="634" y="493" type="qcurve"/>
      <point x="631" y="506" type="line"/>
      <point x="629" y="516"/>
      <point x="626" y="548" type="qcurve"/>
      <point x="623" y="580"/>
      <point x="623" y="598" type="qcurve"/>
      <point x="623" y="631"/>
      <point x="631" y="653" type="qcurve"/>
      <point x="633" y="657"/>
      <point x="633" y="662" type="qcurve"/>
      <point x="633" y="664"/>
      <point x="633" y="668" type="qcurve"/>
      <point x="632" y="672"/>
      <point x="632" y="674" type="qcurve"/>
      <point x="632" y="686"/>
      <point x="635" y="695" type="qcurve"/>
      <point x="638" y="707"/>
      <point x="644" y="713" type="qcurve"/>
      <point x="649" y="717"/>
      <point x="654" y="717" type="qcurve"/>
      <point x="656" y="717"/>
      <point x="661" y="716" type="qcurve"/>
      <point x="666" y="715"/>
      <point x="668" y="715" type="qcurve"/>
      <point x="672" y="715"/>
    </contour>
    <contour>
      <point x="457" y="125" type="qcurve"/>
      <point x="457" y="125"/>
      <point x="457" y="124" type="qcurve"/>
      <point x="456" y="123"/>
      <point x="456" y="122" type="qcurve"/>
      <point x="449" y="119"/>
      <point x="446" y="116" type="qcurve"/>
      <point x="441" y="110"/>
      <point x="439" y="103" type="qcurve"/>
      <point x="435" y="118"/>
      <point x="435" y="137" type="qcurve"/>
      <point x="437" y="147"/>
      <point x="445" y="157" type="qcurve"/>
      <point x="448" y="151"/>
      <point x="451" y="145" type="qcurve"/>
      <point x="457" y="131"/>
    </contour>
  </outline>
</glyph>
